SplineFontDB: 2.0
FontName: ArundinaSans-Bold
FullName: Arundina Sans Bold
FamilyName: Arundina Sans
Weight: Bold
Copyright: Copyright (c) 2003 by Bitstream, Inc. All Rights Reserved.\nCopyright (c) 2007 by Software Industry Promotion Agency (Public Organization). All Rights Reserved.
Version: 1.20
ItalicAngle: 0
UnderlinePosition: -153
UnderlineWidth: 102
Ascent: 1638
Descent: 410
Order2: 1
NeedsXUIDChange: 1
XUID: [1021 375 425136265 4916284]
FSType: 0
OS2Version: 2
OS2_WeightWidthSlopeOnly: 0
OS2_UseTypoMetrics: 1
CreationTime: 1125072480
ModificationTime: 1195227073
PfmFamily: 33
TTFWeight: 700
TTFWidth: 5
LineGap: 78
VLineGap: 0
Panose: 2 11 3 0 2 2 2 2 2 4
OS2TypoAscent: 0
OS2TypoAOffset: 1
OS2TypoDescent: -410
OS2TypoDOffset: 1
OS2TypoLinegap: 0
OS2WinAscent: 57
OS2WinAOffset: 1
OS2WinDescent: 104
OS2WinDOffset: 1
HheadAscent: 57
HheadAOffset: 1
HheadDescent: -104
HheadDOffset: 1
OS2SubXSize: 1434
OS2SubYSize: 1331
OS2SubXOff: 0
OS2SubYOff: 287
OS2SupXSize: 1434
OS2SupYSize: 1331
OS2SupXOff: 0
OS2SupYOff: 977
OS2StrikeYSize: 102
OS2StrikeYPos: 512
OS2FamilyClass: 2063
OS2Vendor: 'BLWK'
Lookup: 4 0 0 "'frac' Diagonal Fractions in Latin lookup 0"  {"'frac' Diagonal Fractions in Latin lookup 0 subtable"  } ['frac' ('latn' <'dflt' > ) ]
Lookup: 6 0 0 "'liga' Standard Ligatures in Latin lookup 1"  {"'liga' Standard Ligatures in Latin lookup 1 subtable"  } ['liga' ('latn' <'dflt' > ) ]
Lookup: 6 0 0 "'liga' Standard Ligatures in Latin lookup 2"  {"'liga' Standard Ligatures in Latin lookup 2 subtable"  } ['liga' ('latn' <'dflt' > ) ]
Lookup: 6 0 0 "'liga' Standard Ligatures in Latin lookup 3"  {"'liga' Standard Ligatures in Latin lookup 3 subtable"  } ['liga' ('latn' <'dflt' > ) ]
Lookup: 6 0 0 "'liga' Standard Ligatures in Latin lookup 4"  {"'liga' Standard Ligatures in Latin lookup 4 subtable"  } ['liga' ('latn' <'dflt' > ) ]

StartChar: .notdef
Encoding: 65536 -1 0
Width: 1222
VWidth: 3555
Flags: W
HStem: -359 118<214 1007> 1319 113<214 1007>
VStem: 99 115<-241 1319> 1007 109<-241 1319>
Fore
99 1432 m 1,0,-1
 1116 1432 l 1,1,-1
 1116 -359 l 1,2,-1
 99 -359 l 1,3,-1
 99 1432 l 1,0,-1
1007 -241 m 1,4,-1
 1007 1319 l 1,5,-1
 214 1319 l 1,6,-1
 214 -241 l 1,7,-1
 1007 -241 l 1,4,-1
EndSplineSet
EndChar
StartChar: exclam
Encoding: 33 33 4
Width: 927
VWidth: 3555
Flags: W
HStem: 0 356<285 644> 1463 20G<285 644>
VStem: 285 359<0 356 863.579 1483>
Fore
644 1483 m 1,0,-1
 644 910 l 1,1,-1
 590 502 l 1,2,-1
 339 502 l 1,3,-1
 285 910 l 1,4,-1
 285 1483 l 1,5,-1
 644 1483 l 1,0,-1
644 356 m 1,6,-1
 644 0 l 1,7,-1
 285 0 l 1,8,-1
 285 356 l 1,9,-1
 644 356 l 1,6,-1
EndSplineSet
EndChar
StartChar: quotedbl
Encoding: 34 34 5
Width: 1058
VWidth: 3555
Flags: W
HStem: 1463 20G<193 431 628 868>
VStem: 193 238<932 1483> 628 240<932 1483>
Fore
868 932 m 1,0,-1
 628 932 l 1,1,-1
 628 1483 l 1,2,-1
 868 1483 l 1,3,-1
 868 932 l 1,0,-1
431 932 m 1,4,-1
 193 932 l 1,5,-1
 193 1483 l 1,6,-1
 431 1483 l 1,7,-1
 431 932 l 1,4,-1
EndSplineSet
EndChar
StartChar: numbersign
Encoding: 35 35 6
Width: 1701
VWidth: 3555
Flags: W
HStem: 0 21G<316 541.316 804 1028.84> 380 214<139 417 686 896 1170 1455> 868 214<248 529 811 1017 1286 1564>
Fore
811 1082 m 1,0,-1
 1073 1082 l 1,1,-1
 1170 1462 l 1,2,-1
 1387 1462 l 1,3,-1
 1286 1082 l 1,4,-1
 1564 1082 l 1,5,-1
 1564 868 l 1,6,-1
 1238 868 l 1,7,-1
 1170 594 l 1,8,-1
 1455 594 l 1,9,-1
 1455 380 l 1,10,-1
 1116 380 l 1,11,-1
 1024 0 l 1,12,-1
 804 0 l 1,13,-1
 896 380 l 1,14,-1
 637 380 l 1,15,-1
 536 0 l 1,16,-1
 316 0 l 1,17,-1
 417 380 l 1,18,-1
 139 380 l 1,19,-1
 139 594 l 1,20,-1
 462 594 l 1,21,-1
 529 868 l 1,22,-1
 248 868 l 1,23,-1
 248 1082 l 1,24,-1
 587 1082 l 1,25,-1
 682 1462 l 1,26,-1
 903 1462 l 1,27,-1
 811 1082 l 1,0,-1
753 868 m 1,28,-1
 686 594 l 1,29,-1
 946 594 l 1,30,-1
 1017 868 l 1,31,-1
 753 868 l 1,28,-1
EndSplineSet
EndChar
StartChar: dollar
Encoding: 36 36 7
Width: 1414
VWidth: 3555
Flags: W
HStem: 0 231<790 928.857>
VStem: 628 162<-299 0 231 509 832 1088 1319 1547>
Fore
628 -299 m 1,0,-1
 628 0 l 1,1,2
 505 3 505 3 388 28.5 c 128,-1,3
 271 54 271 54 160 92 c 1,4,-1
 160 352 l 1,5,6
 274 292 274 292 393 261.5 c 128,-1,7
 512 231 512 231 628 224 c 1,8,-1
 628 533 l 1,9,-1
 594 536 l 2,10,11
 359 583 359 583 259.5 670 c 128,-1,12
 160 757 160 757 160 929 c 0,13,14
 160 1109 160 1109 280.5 1209 c 128,-1,15
 401 1309 401 1309 628 1316 c 1,16,-1
 628 1547 l 1,17,-1
 790 1547 l 1,18,-1
 790 1319 l 1,19,20
 885 1312 885 1312 986.5 1294 c 128,-1,21
 1088 1276 1088 1276 1187 1248 c 1,22,-1
 1187 998 l 1,23,24
 1088 1038 1088 1038 988.5 1063 c 128,-1,25
 889 1088 889 1088 790 1092 c 1,26,-1
 790 807 l 1,27,-1
 821 804 l 2,28,29
 1078 760 1078 760 1175 668 c 128,-1,30
 1272 576 1272 576 1272 391 c 0,31,32
 1272 24 1272 24 790 0 c 1,33,-1
 790 -299 l 1,34,-1
 628 -299 l 1,0,-1
628 1088 m 1,35,36
 559 1085 559 1085 515.5 1051 c 128,-1,37
 472 1017 472 1017 472 963 c 0,38,39
 472 845 472 845 628 832 c 1,40,-1
 628 1088 l 1,35,36
790 231 m 1,41,42
 960 231 960 231 960 363 c 0,43,44
 960 431 960 431 921 464.5 c 128,-1,45
 882 498 882 498 790 509 c 1,46,-1
 790 231 l 1,41,42
EndSplineSet
EndChar
StartChar: percent
Encoding: 37 37 8
Width: 2036
VWidth: 3555
Flags: W
HStem: -28 170<1472.5 1668.63> 611 168<1472.5 1668.63> 705 166<359.713 555.203> 1340 167<359.713 555.203>
VStem: 68 241<922.08 1289.53> 608 253<931.343 1280.17> 1177 248<191.088 561.937> 1720 254<200.705 552.788>
Fore
1575 611 m 0,0,1
 1425 611 1425 611 1425 377 c 256,2,3
 1425 142 1425 142 1575 142 c 0,4,5
 1642 142 1642 142 1681 203 c 128,-1,6
 1720 264 1720 264 1720 377 c 256,7,8
 1720 491 1720 491 1681 551 c 128,-1,9
 1642 611 1642 611 1575 611 c 0,0,1
1575 779 m 256,10,11
 1760 779 1760 779 1867 670.5 c 128,-1,12
 1974 562 1974 562 1974 377 c 0,13,14
 1974 184 1974 184 1867 78 c 128,-1,15
 1760 -28 1760 -28 1575 -28 c 256,16,17
 1391 -28 1391 -28 1284 78 c 128,-1,18
 1177 184 1177 184 1177 377 c 0,19,20
 1177 562 1177 562 1284 670.5 c 128,-1,21
 1391 779 1391 779 1575 779 c 256,10,11
448 -28 m 1,22,-1
 1373 1507 l 1,23,-1
 1594 1507 l 1,24,-1
 665 -28 l 1,25,-1
 448 -28 l 1,22,-1
462 1507 m 256,26,27
 648 1507 648 1507 754.5 1403 c 128,-1,28
 861 1299 861 1299 861 1106 c 256,29,30
 861 913 861 913 754.5 809 c 128,-1,31
 648 705 648 705 462 705 c 256,32,33
 278 705 278 705 173 809 c 128,-1,34
 68 913 68 913 68 1106 c 256,35,36
 68 1299 68 1299 173 1403 c 128,-1,37
 278 1507 278 1507 462 1507 c 256,26,27
462 1340 m 0,38,39
 309 1340 309 1340 309 1106 c 256,40,41
 309 871 309 871 462 871 c 0,42,43
 529 871 529 871 568.5 929.5 c 128,-1,44
 608 988 608 988 608 1106 c 256,45,46
 608 1224 608 1224 568.5 1282 c 128,-1,47
 529 1340 529 1340 462 1340 c 0,38,39
EndSplineSet
EndChar
StartChar: ampersand
Encoding: 38 38 9
Width: 1768
VWidth: 3555
Flags: W
HStem: -28 255<595.155 901.9> 1266 241<728.731 935.522>
VStem: 125 340<355.347 651.19> 1312 306<660.306 885>
Fore
1198 536 m 1,0,1
 1305 672 1305 672 1312 885 c 1,2,-1
 1618 885 l 1,3,4
 1594 536 1594 536 1397 316 c 1,5,-1
 1689 0 l 1,6,-1
 1266 0 l 1,7,-1
 1170 106 l 1,8,9
 1062 40 1062 40 948.5 6 c 128,-1,10
 835 -28 835 -28 708 -28 c 0,11,12
 441 -28 441 -28 283 105 c 128,-1,13
 125 238 125 238 125 462 c 0,14,15
 125 611 125 611 194.5 721.5 c 128,-1,16
 264 832 264 832 427 936 c 1,17,18
 345 1038 345 1038 345 1156 c 0,19,20
 345 1316 345 1316 469.5 1411.5 c 128,-1,21
 594 1507 594 1507 807 1507 c 0,22,23
 892 1507 892 1507 992 1493 c 128,-1,24
 1092 1479 1092 1479 1198 1455 c 1,25,-1
 1198 1177 l 1,26,27
 1106 1227 1106 1227 1021 1246.5 c 128,-1,28
 936 1266 936 1266 861 1266 c 0,29,30
 783 1266 783 1266 738 1237 c 128,-1,31
 693 1208 693 1208 693 1160 c 0,32,33
 693 1123 693 1123 719.5 1079 c 128,-1,34
 746 1035 746 1035 793 981 c 2,35,-1
 1198 536 l 1,0,1
594 740 m 1,36,37
 465 641 465 641 465 505 c 0,38,39
 465 387 465 387 549.5 307 c 128,-1,40
 634 227 634 227 753 227 c 0,41,42
 821 227 821 227 878.5 249 c 128,-1,43
 936 271 936 271 981 306 c 1,44,-1
 594 740 l 1,36,37
EndSplineSet
EndChar
StartChar: quotesingle
Encoding: 39 39 10
Width: 618
VWidth: 3555
Flags: W
HStem: 1463 20G<193 431>
VStem: 193 238<932 1483>
Fore
431 932 m 1,0,-1
 193 932 l 1,1,-1
 193 1483 l 1,2,-1
 431 1483 l 1,3,-1
 431 932 l 1,0,-1
EndSplineSet
EndChar
StartChar: parenleft
Encoding: 40 40 11
Width: 927
VWidth: 3555
Flags: W
VStem: 174 342<293.846 979.255>
Fore
469 -271 m 1,0,1
 316 -21 316 -21 245 199.5 c 128,-1,2
 174 420 174 420 174 637 c 0,3,4
 174 861 174 861 246.5 1080 c 128,-1,5
 319 1299 319 1299 469 1543 c 1,6,-1
 767 1543 l 1,7,8
 516 1082 516 1082 516 641 c 256,9,10
 516 200 516 200 767 -271 c 1,11,-1
 469 -271 l 1,0,1
EndSplineSet
EndChar
StartChar: parenright
Encoding: 41 41 12
Width: 927
VWidth: 3555
Flags: W
VStem: 420 333<295.512 984.123>
Fore
163 -271 m 1,0,1
 420 207 420 207 420 641 c 256,2,3
 420 1073 420 1073 163 1543 c 1,4,-1
 458 1543 l 1,5,6
 608 1299 608 1299 680.5 1080 c 128,-1,7
 753 861 753 861 753 637 c 0,8,9
 753 420 753 420 680.5 199.5 c 128,-1,10
 608 -21 608 -21 458 -271 c 1,11,-1
 163 -271 l 1,0,1
EndSplineSet
EndChar
StartChar: asterisk
Encoding: 42 42 13
Width: 1062
VWidth: 3555
Flags: W
HStem: 1487 20G<448 615>
VStem: 448 167<566 903 1170 1507>
Fore
693 1035 m 1,0,-1
 1024 868 l 1,1,-1
 946 726 l 1,2,-1
 615 903 l 1,3,-1
 615 566 l 1,4,-1
 448 566 l 1,5,-1
 448 903 l 1,6,-1
 118 726 l 1,7,-1
 43 868 l 1,8,-1
 373 1035 l 1,9,-1
 43 1208 l 1,10,-1
 118 1347 l 1,11,-1
 448 1170 l 1,12,-1
 448 1507 l 1,13,-1
 615 1507 l 1,14,-1
 615 1170 l 1,15,-1
 946 1347 l 1,16,-1
 1024 1208 l 1,17,-1
 693 1035 l 1,0,-1
EndSplineSet
EndChar
StartChar: plus
Encoding: 43 43 14
Width: 1701
VWidth: 3555
Flags: W
HStem: 0 21G<733 967> 523 230<214 733 967 1486>
VStem: 733 234<0 523 753 1272>
Fore
967 753 m 1,0,-1
 1486 753 l 1,1,-1
 1486 523 l 1,2,-1
 967 523 l 1,3,-1
 967 0 l 1,4,-1
 733 0 l 1,5,-1
 733 523 l 1,6,-1
 214 523 l 1,7,-1
 214 753 l 1,8,-1
 733 753 l 1,9,-1
 733 1272 l 1,10,-1
 967 1272 l 1,11,-1
 967 753 l 1,0,-1
EndSplineSet
EndChar
StartChar: comma
Encoding: 44 44 15
Width: 770
VWidth: 3555
Flags: W
VStem: 207 359<82 384>
Fore
566 384 m 1,0,-1
 566 82 l 1,1,-1
 316 -288 l 1,2,-1
 106 -288 l 1,3,-1
 207 82 l 1,4,-1
 207 384 l 1,5,-1
 566 384 l 1,0,-1
EndSplineSet
EndChar
StartChar: hyphen
Encoding: 45 45 16
Width: 845
VWidth: 3555
Flags: W
HStem: 441 288<115 733>
Fore
733 729 m 1,0,-1
 733 441 l 1,1,-1
 115 441 l 1,2,-1
 115 729 l 1,3,-1
 733 729 l 1,0,-1
EndSplineSet
EndChar
StartChar: period
Encoding: 46 46 17
Width: 770
VWidth: 3555
Flags: W
HStem: 0 384<207 566>
VStem: 207 359<0 384>
Fore
566 384 m 1,0,-1
 566 0 l 1,1,-1
 207 0 l 1,2,-1
 207 384 l 1,3,-1
 566 384 l 1,0,-1
EndSplineSet
EndChar
StartChar: slash
Encoding: 47 47 18
Width: 743
VWidth: 3555
Flags: W
HStem: 1463 20G<516.744 743>
VStem: 0 743<-189 1483>
Fore
743 1483 m 1,0,-1
 220 -189 l 1,1,-1
 0 -189 l 1,2,-1
 523 1483 l 1,3,-1
 743 1483 l 1,0,-1
EndSplineSet
EndChar
StartChar: zero
Encoding: 48 48 19
Width: 1414
VWidth: 3555
Flags: W
HStem: -28 259<585.3 832.143> 1245 262<584.075 833.386>
VStem: 95 389<403.024 1081.51> 936 380<397.053 1086.64>
Fore
936 743 m 0,0,1
 936 1021 936 1021 884 1133 c 128,-1,2
 832 1245 832 1245 708 1245 c 256,3,4
 583 1245 583 1245 533.5 1133 c 128,-1,5
 484 1021 484 1021 484 743 c 0,6,7
 484 462 484 462 533.5 346.5 c 128,-1,8
 583 231 583 231 708 231 c 256,9,10
 832 231 832 231 884 346.5 c 128,-1,11
 936 462 936 462 936 743 c 0,0,1
1316 740 m 0,12,13
 1316 373 1316 373 1161.5 172.5 c 128,-1,14
 1007 -28 1007 -28 708 -28 c 0,15,16
 417 -28 417 -28 256 172.5 c 128,-1,17
 95 373 95 373 95 740 c 0,18,19
 95 1113 95 1113 256 1310 c 128,-1,20
 417 1507 417 1507 708 1507 c 0,21,22
 1007 1507 1007 1507 1161.5 1310 c 128,-1,23
 1316 1113 1316 1113 1316 740 c 0,12,13
EndSplineSet
EndChar
StartChar: one
Encoding: 49 49 20
Width: 1414
VWidth: 3555
Flags: W
HStem: 0 264<234 576 936 1272> 1463 20G<476.889 936>
VStem: 576 360<264 1227>
Fore
576 264 m 1,0,-1
 576 1227 l 1,1,-1
 227 1153 l 1,2,-1
 227 1411 l 1,3,-1
 573 1483 l 1,4,-1
 936 1483 l 1,5,-1
 936 264 l 1,6,-1
 1272 264 l 1,7,-1
 1272 0 l 1,8,-1
 234 0 l 1,9,-1
 234 264 l 1,10,-1
 576 264 l 1,0,-1
EndSplineSet
EndChar
StartChar: two
Encoding: 50 50 21
Width: 1414
VWidth: 3555
Flags: W
HStem: 0 281<587 1238> 1245 262<385.294 750.381>
VStem: 845 386<881.981 1153.18>
Fore
1238 281 m 1,0,-1
 1238 0 l 1,1,-1
 160 0 l 1,2,-1
 160 281 l 1,3,-1
 705 757 l 2,4,5
 771 825 771 825 808 887.5 c 128,-1,6
 845 950 845 950 845 1017 c 0,7,8
 845 1120 845 1120 775 1182.5 c 128,-1,9
 705 1245 705 1245 587 1245 c 0,10,11
 502 1245 502 1245 393.5 1209.5 c 128,-1,12
 285 1174 285 1174 163 1095 c 1,13,-1
 163 1422 l 1,14,15
 427 1507 427 1507 668 1507 c 0,16,17
 936 1507 936 1507 1083.5 1391.5 c 128,-1,18
 1231 1276 1231 1276 1231 1062 c 0,19,20
 1231 943 1231 943 1167 838 c 0,21,22
 1099 729 1099 729 899 559 c 2,23,-1
 587 281 l 1,24,-1
 1238 281 l 1,0,-1
EndSplineSet
EndChar
StartChar: three
Encoding: 51 51 22
Width: 1414
VWidth: 3555
Flags: W
HStem: -28 259<376.156 777.287> 641 244<387 758.43> 1245 262<385.686 763.626>
Fore
946 800 m 1,0,1
 1252 719 1252 719 1252 424 c 0,2,3
 1252 200 1252 200 1082.5 86 c 128,-1,4
 913 -28 913 -28 590 -28 c 0,5,6
 476 -28 476 -28 360.5 -10.5 c 128,-1,7
 245 7 245 7 139 47 c 1,8,-1
 139 342 l 1,9,10
 345 231 345 231 559 231 c 0,11,12
 871 231 871 231 871 437 c 0,13,14
 871 533 871 533 791.5 587 c 128,-1,15
 712 641 712 641 540 641 c 2,16,-1
 387 641 l 1,17,-1
 387 885 l 1,18,-1
 547 885 l 2,19,20
 835 885 835 885 835 1066 c 0,21,22
 835 1160 835 1160 765.5 1202.5 c 128,-1,23
 696 1245 696 1245 573 1245 c 0,24,25
 484 1245 484 1245 388 1225 c 128,-1,26
 292 1205 292 1205 200 1167 c 1,27,-1
 200 1448 l 1,28,29
 424 1507 424 1507 644 1507 c 0,30,31
 1224 1507 1224 1507 1224 1127 c 0,32,33
 1224 865 1224 865 946 800 c 1,0,1
EndSplineSet
EndChar
StartChar: four
Encoding: 52 52 23
Width: 1414
VWidth: 3555
Flags: W
HStem: 0 21G<750 1109> 271 272<326 750 1109 1319> 1463 20G<672.591 1109>
VStem: 750 359<0 271 543 1170>
Fore
326 543 m 1,0,-1
 750 543 l 1,1,-1
 750 1170 l 1,2,-1
 326 543 l 1,0,-1
1109 1483 m 1,3,-1
 1109 543 l 1,4,-1
 1319 543 l 1,5,-1
 1319 271 l 1,6,-1
 1109 271 l 1,7,-1
 1109 0 l 1,8,-1
 750 0 l 1,9,-1
 750 271 l 1,10,-1
 92 271 l 1,11,-1
 92 597 l 1,12,-1
 686 1483 l 1,13,-1
 1109 1483 l 1,3,-1
EndSplineSet
EndChar
StartChar: five
Encoding: 53 53 24
Width: 1414
VWidth: 3555
Flags: W
HStem: -28 259<458.044 774.604> 736 262<556.786 779.577> 1201 282<523 1167>
VStem: 214 309<970 1201> 889 380<338.15 632.556>
Fore
1167 1483 m 1,0,-1
 1167 1201 l 1,1,-1
 523 1201 l 1,2,-1
 523 970 l 1,3,4
 562 981 562 981 606.5 989.5 c 128,-1,5
 651 998 651 998 696 998 c 0,6,7
 974 998 974 998 1121.5 862 c 128,-1,8
 1269 726 1269 726 1269 488 c 0,9,10
 1269 241 1269 241 1106 106.5 c 128,-1,11
 943 -28 943 -28 651 -28 c 0,12,13
 529 -28 529 -28 405 -5.5 c 128,-1,14
 281 17 281 17 156 71 c 1,15,-1
 156 370 l 1,16,17
 278 302 278 302 388 266.5 c 128,-1,18
 498 231 498 231 590 231 c 0,19,20
 733 231 733 231 811 300.5 c 128,-1,21
 889 370 889 370 889 488 c 0,22,23
 889 601 889 601 811 668.5 c 128,-1,24
 733 736 733 736 590 736 c 0,25,26
 512 736 512 736 415.5 714.5 c 128,-1,27
 319 693 319 693 214 648 c 1,28,-1
 214 1483 l 1,29,-1
 1167 1483 l 1,0,-1
EndSplineSet
EndChar
StartChar: six
Encoding: 54 54 25
Width: 1414
VWidth: 3555
Flags: W
HStem: -28 238<604.646 864.214> 733 244<620.018 863.924> 1255 252<668.844 1032.57>
VStem: 128 405<385.885 880.922> 936 369<283.298 658.458>
Fore
736 733 m 0,0,1
 533 733 533 733 533 469 c 0,2,3
 533 210 533 210 736 210 c 0,4,5
 936 210 936 210 936 469 c 0,6,7
 936 733 936 733 736 733 c 0,0,1
1208 1170 m 1,8,9
 1113 1215 1113 1215 1029.5 1235 c 128,-1,10
 946 1255 946 1255 871 1255 c 0,11,12
 523 1255 523 1255 495 882 c 1,13,14
 554 929 554 929 633 953 c 128,-1,15
 712 977 712 977 800 977 c 0,16,17
 1028 977 1028 977 1166.5 844.5 c 128,-1,18
 1305 712 1305 712 1305 498 c 0,19,20
 1305 260 1305 260 1148 116 c 128,-1,21
 991 -28 991 -28 733 -28 c 0,22,23
 444 -28 444 -28 286 165.5 c 128,-1,24
 128 359 128 359 128 722 c 0,25,26
 128 1088 128 1088 313 1297.5 c 128,-1,27
 498 1507 498 1507 821 1507 c 0,28,29
 1010 1507 1010 1507 1208 1448 c 1,30,-1
 1208 1170 l 1,8,9
EndSplineSet
EndChar
StartChar: seven
Encoding: 55 55 26
Width: 1414
VWidth: 3555
Flags: W
HStem: 0 21G<302 684.115> 1201 282<139 854>
Fore
1252 1483 m 1,0,-1
 1252 1266 l 1,1,-1
 675 0 l 1,2,-1
 302 0 l 1,3,-1
 854 1201 l 1,4,-1
 139 1201 l 1,5,-1
 139 1483 l 1,6,-1
 1252 1483 l 1,0,-1
EndSplineSet
EndChar
StartChar: eight
Encoding: 56 56 27
Width: 1414
VWidth: 3555
Flags: W
HStem: -28 238<556.977 859.103> 661 238<571.635 839.719> 1266 241<566.068 843.229>
VStem: 128 360<280.529 587.015> 156 363<952.878 1218.66> 892 363<952.089 1218.66> 929 357<280.529 586.007>
Fore
708 661 m 256,0,1
 601 661 601 661 544.5 602 c 128,-1,2
 488 543 488 543 488 437 c 0,3,4
 488 210 488 210 708 210 c 256,5,6
 929 210 929 210 929 437 c 0,7,8
 929 543 929 543 871.5 602 c 128,-1,9
 814 661 814 661 708 661 c 256,0,1
431 790 m 1,10,11
 156 875 156 875 156 1123 c 0,12,13
 156 1316 156 1316 296.5 1411.5 c 128,-1,14
 437 1507 437 1507 708 1507 c 0,15,16
 974 1507 974 1507 1114.5 1411.5 c 128,-1,17
 1255 1316 1255 1316 1255 1123 c 0,18,19
 1255 875 1255 875 981 790 c 1,20,21
 1286 705 1286 705 1286 420 c 0,22,23
 1286 -28 1286 -28 708 -28 c 256,24,25
 128 -28 128 -28 128 420 c 0,26,27
 128 705 128 705 431 790 c 1,10,11
519 1088 m 0,28,29
 519 998 519 998 567 948.5 c 128,-1,30
 615 899 615 899 708 899 c 256,31,32
 800 899 800 899 846 948.5 c 128,-1,33
 892 998 892 998 892 1088 c 0,34,35
 892 1266 892 1266 708 1266 c 0,36,37
 519 1266 519 1266 519 1088 c 0,28,29
EndSplineSet
EndChar
StartChar: nine
Encoding: 57 57 28
Width: 1414
VWidth: 3555
Flags: W
HStem: -28 248<305.419 741.832> 502 244<542.864 754.604> 1266 241<545.028 804.514>
VStem: 102 370<821.384 1192.22> 878 405<757 1094.85>
Fore
203 306 m 1,0,1
 391 220 391 220 540 220 c 0,2,3
 889 220 889 220 917 597 c 1,4,5
 858 543 858 543 777 522.5 c 128,-1,6
 696 502 696 502 611 502 c 0,7,8
 384 502 384 502 243 633 c 128,-1,9
 102 764 102 764 102 977 c 0,10,11
 102 1224 102 1224 259.5 1365.5 c 128,-1,12
 417 1507 417 1507 675 1507 c 0,13,14
 967 1507 967 1507 1125 1313.5 c 128,-1,15
 1283 1120 1283 1120 1283 757 c 0,16,17
 1283 391 1283 391 1096.5 181.5 c 128,-1,18
 910 -28 910 -28 590 -28 c 0,19,20
 380 -28 380 -28 203 31 c 1,21,-1
 203 306 l 1,0,1
675 746 m 256,22,23
 878 746 878 746 878 1007 c 256,24,25
 878 1266 878 1266 675 1266 c 256,26,27
 472 1266 472 1266 472 1007 c 256,28,29
 472 746 472 746 675 746 c 256,22,23
EndSplineSet
EndChar
StartChar: colon
Encoding: 58 58 29
Width: 812
VWidth: 3555
Flags: W
HStem: 0 384<227 587> 729 384<227 587>
VStem: 227 360<0 384 729 1113>
Fore
587 1113 m 1,0,-1
 587 729 l 1,1,-1
 227 729 l 1,2,-1
 227 1113 l 1,3,-1
 587 1113 l 1,0,-1
587 384 m 1,4,-1
 587 0 l 1,5,-1
 227 0 l 1,6,-1
 227 384 l 1,7,-1
 587 384 l 1,4,-1
EndSplineSet
EndChar
StartChar: semicolon
Encoding: 59 59 30
Width: 812
VWidth: 3555
Flags: W
HStem: 729 384<227 587>
VStem: 227 360<82 384 729 1113>
Fore
587 384 m 1,0,-1
 587 82 l 1,1,-1
 342 -288 l 1,2,-1
 132 -288 l 1,3,-1
 227 82 l 1,4,-1
 227 384 l 1,5,-1
 587 384 l 1,0,-1
587 1113 m 1,6,-1
 587 729 l 1,7,-1
 227 729 l 1,8,-1
 227 1113 l 1,9,-1
 587 1113 l 1,6,-1
EndSplineSet
EndChar
StartChar: less
Encoding: 60 60 31
Width: 1701
VWidth: 3555
Flags: W
Fore
529 637 m 1,0,-1
 1486 306 l 1,1,-1
 1486 64 l 1,2,-1
 214 523 l 1,3,-1
 214 753 l 1,4,-1
 1486 1215 l 1,5,-1
 1486 963 l 1,6,-1
 529 637 l 1,0,-1
EndSplineSet
EndChar
StartChar: equal
Encoding: 61 61 32
Width: 1701
VWidth: 3555
Flags: W
HStem: 292 237<214 1486> 746 231<214 1486>
Fore
1486 977 m 1,0,-1
 1486 746 l 1,1,-1
 214 746 l 1,2,-1
 214 977 l 1,3,-1
 1486 977 l 1,0,-1
1486 529 m 1,4,-1
 1486 292 l 1,5,-1
 214 292 l 1,6,-1
 214 529 l 1,7,-1
 1486 529 l 1,4,-1
EndSplineSet
EndChar
StartChar: greater
Encoding: 62 62 33
Width: 1701
VWidth: 3555
Flags: W
Fore
214 1215 m 1,0,-1
 1486 753 l 1,1,-1
 1486 523 l 1,2,-1
 214 64 l 1,3,-1
 214 306 l 1,4,-1
 1174 637 l 1,5,-1
 214 963 l 1,6,-1
 214 1215 l 1,0,-1
EndSplineSet
EndChar
StartChar: question
Encoding: 63 63 34
Width: 1178
VWidth: 3555
Flags: W
HStem: 0 356<345 705> 1116 21G<142 190> 1245 262<390.611 644.994>
VStem: 345 360<0 356 502 590.949>
Fore
345 502 m 1,0,-1
 345 543 l 2,1,2
 345 628 345 628 379 692.5 c 128,-1,3
 413 757 413 757 519 858 c 2,4,-1
 580 910 l 2,5,6
 689 1017 689 1017 689 1099 c 0,7,8
 689 1170 689 1170 641.5 1207.5 c 128,-1,9
 594 1245 594 1245 512 1245 c 256,10,11
 431 1245 431 1245 334.5 1214.5 c 128,-1,12
 238 1184 238 1184 142 1116 c 1,13,-1
 142 1425 l 1,14,15
 260 1469 260 1469 359 1488 c 128,-1,16
 458 1507 458 1507 547 1507 c 0,17,18
 1045 1507 1045 1507 1045 1123 c 0,19,20
 1045 1024 1045 1024 1006 947.5 c 128,-1,21
 967 871 967 871 878 783 c 2,22,-1
 814 726 l 2,23,24
 746 665 746 665 725.5 627.5 c 128,-1,25
 705 590 705 590 705 540 c 2,26,-1
 705 502 l 1,27,-1
 345 502 l 1,0,-1
705 356 m 1,28,-1
 705 0 l 1,29,-1
 345 0 l 1,30,-1
 345 356 l 1,31,-1
 705 356 l 1,28,-1
EndSplineSet
EndChar
StartChar: at
Encoding: 64 64 35
Width: 2032
VWidth: 3555
Flags: W
HStem: -356 189<763.875 1275.56> 85 189<903.123 1134.54> 797 180<903.123 1134.54> 1241 188<801.336 1300.32>
VStem: 135 181<287.614 784.895> 597 228<357.097 713.263> 1212 231<356.943 714.026> 1234 209<832 960> 1703 189<437.043 862.745>
Fore
825 533 m 0,0,1
 825 417 825 417 877 345.5 c 128,-1,2
 929 274 929 274 1017 274 c 256,3,4
 1106 274 1106 274 1159 345.5 c 128,-1,5
 1212 417 1212 417 1212 533 c 0,6,7
 1212 654 1212 654 1159 725.5 c 128,-1,8
 1106 797 1106 797 1017 797 c 256,9,10
 929 797 929 797 877 725.5 c 128,-1,11
 825 654 825 654 825 533 c 0,0,1
1234 234 m 1,12,13
 1201 167 1201 167 1137 126 c 128,-1,14
 1073 85 1073 85 981 85 c 0,15,16
 811 85 811 85 704 210 c 128,-1,17
 597 335 597 335 597 529 c 0,18,19
 597 733 597 733 704 855 c 128,-1,20
 811 977 811 977 981 977 c 0,21,22
 1073 977 1073 977 1137 938 c 128,-1,23
 1201 899 1201 899 1234 832 c 1,24,-1
 1234 960 l 1,25,-1
 1443 960 l 1,26,-1
 1443 274 l 1,27,28
 1564 292 1564 292 1633.5 393.5 c 128,-1,29
 1703 495 1703 495 1703 648 c 0,30,31
 1703 838 1703 838 1585 988 c 0,32,33
 1493 1113 1493 1113 1350.5 1177 c 128,-1,34
 1208 1241 1208 1241 1045 1241 c 0,35,36
 929 1241 929 1241 825.5 1212.5 c 128,-1,37
 722 1184 722 1184 628 1123 c 0,38,39
 488 1028 488 1028 402 873.5 c 128,-1,40
 316 719 316 719 316 536 c 0,41,42
 316 245 316 245 529 31 c 0,43,44
 621 -68 621 -68 749.5 -117.5 c 128,-1,45
 878 -167 878 -167 1028 -167 c 0,46,47
 1156 -167 1156 -167 1280 -121 c 128,-1,48
 1404 -75 1404 -75 1493 3 c 1,49,-1
 1601 -156 l 1,50,51
 1476 -248 1476 -248 1330 -302 c 128,-1,52
 1184 -356 1184 -356 1031 -356 c 0,53,54
 658 -356 658 -356 391 -99 c 0,55,56
 267 24 267 24 201 188 c 128,-1,57
 135 352 135 352 135 536 c 256,58,59
 135 722 135 722 203 883.5 c 128,-1,60
 271 1045 271 1045 391 1174 c 0,61,62
 523 1293 523 1293 686 1361 c 128,-1,63
 849 1429 849 1429 1031 1429 c 0,64,65
 1255 1429 1255 1429 1434.5 1344 c 128,-1,66
 1614 1259 1614 1259 1738 1099 c 0,67,68
 1892 903 1892 903 1892 651 c 0,69,70
 1892 380 1892 380 1730 231 c 128,-1,71
 1568 82 1568 82 1269 82 c 2,72,-1
 1234 82 l 1,73,-1
 1234 234 l 1,12,13
EndSplineSet
EndChar
StartChar: A
Encoding: 65 65 36
Width: 1574
VWidth: 3555
Flags: W
HStem: 0 21G<10 398.38 1173.21 1564> 271 269<583 988> 1463 20G<551.596 1021.42>
Fore
491 271 m 1,0,-1
 391 0 l 1,1,-1
 10 0 l 1,2,-1
 559 1483 l 1,3,-1
 1014 1483 l 1,4,-1
 1564 0 l 1,5,-1
 1180 0 l 1,6,-1
 1088 271 l 1,7,-1
 491 271 l 1,0,-1
988 540 m 1,8,-1
 790 1134 l 1,9,-1
 583 540 l 1,10,-1
 988 540 l 1,8,-1
EndSplineSet
EndChar
StartChar: B
Encoding: 66 66 37
Width: 1548
VWidth: 3555
Flags: W
HStem: 0 260<569 957.641> 648 258<569 919.723> 1227 256<569 920.247>
VStem: 184 385<260 648 906 1227> 1024 380<324.311 587.087>
Fore
783 906 m 1,0,1
 963 906 963 906 963 1062 c 0,2,3
 963 1227 963 1227 783 1227 c 2,4,-1
 569 1227 l 1,5,-1
 569 906 l 1,6,-1
 783 906 l 1,0,1
793 260 m 1,7,8
 1024 260 1024 260 1024 455 c 0,9,10
 1024 648 1024 648 793 648 c 2,11,-1
 569 648 l 1,12,-1
 569 260 l 1,13,-1
 793 260 l 1,7,8
1153 793 m 1,14,15
 1269 757 1269 757 1336.5 661.5 c 128,-1,16
 1404 566 1404 566 1404 427 c 0,17,18
 1404 0 1404 0 821 0 c 2,19,-1
 184 0 l 1,20,-1
 184 1483 l 1,21,-1
 760 1483 l 2,22,23
 1069 1483 1069 1483 1206.5 1391 c 128,-1,24
 1344 1299 1344 1299 1344 1092 c 0,25,26
 1344 875 1344 875 1153 793 c 1,14,15
EndSplineSet
EndChar
StartChar: C
Encoding: 67 67 38
Width: 1492
VWidth: 3555
Flags: W
HStem: -28 273<731.351 1163.4> 1234 273<731.351 1163.4>
VStem: 99 399<497.597 981.515>
Fore
1361 82 m 1,0,1
 1153 -28 1153 -28 903 -28 c 0,2,3
 719 -28 719 -28 569.5 25 c 128,-1,4
 420 78 420 78 317 178 c 128,-1,5
 214 278 214 278 156.5 420 c 128,-1,6
 99 562 99 562 99 740 c 256,7,8
 99 917 99 917 156.5 1059 c 128,-1,9
 214 1201 214 1201 317 1301 c 128,-1,10
 420 1401 420 1401 569.5 1454 c 128,-1,11
 719 1507 719 1507 903 1507 c 0,12,13
 1153 1507 1153 1507 1361 1397 c 1,14,-1
 1361 1092 l 1,15,16
 1255 1167 1255 1167 1152 1200.5 c 128,-1,17
 1049 1234 1049 1234 936 1234 c 0,18,19
 733 1234 733 1234 615.5 1100.5 c 128,-1,20
 498 967 498 967 498 740 c 256,21,22
 498 512 498 512 615.5 378.5 c 128,-1,23
 733 245 733 245 936 245 c 0,24,25
 1049 245 1049 245 1152 278.5 c 128,-1,26
 1255 312 1255 312 1361 387 c 1,27,-1
 1361 82 l 1,0,1
EndSplineSet
EndChar
StartChar: D
Encoding: 68 68 39
Width: 1687
VWidth: 3555
Flags: W
HStem: 0 288<569 952.445> 1194 289<569 955.08>
VStem: 184 385<288 1194> 1187 394<516.661 970.85>
Fore
569 288 m 1,0,-1
 708 288 l 2,1,2
 943 288 943 288 1065 403.5 c 128,-1,3
 1187 519 1187 519 1187 743 c 256,4,5
 1187 967 1187 967 1065 1080.5 c 128,-1,6
 943 1194 943 1194 708 1194 c 2,7,-1
 569 1194 l 1,8,-1
 569 288 l 1,0,-1
590 1483 m 2,9,10
 920 1483 920 1483 1092 1432 c 0,11,12
 1255 1387 1255 1387 1377 1269 c 0,13,14
 1581 1073 1581 1073 1581 743 c 0,15,16
 1581 404 1581 404 1377 210 c 0,17,18
 1248 92 1248 92 1088 47 c 256,19,20
 929 0 929 0 590 0 c 2,21,-1
 184 0 l 1,22,-1
 184 1483 l 1,23,-1
 590 1483 l 2,9,10
EndSplineSet
EndChar
StartChar: E
Encoding: 69 69 40
Width: 1385
VWidth: 3555
Flags: W
HStem: 0 288<569 1238> 628 285<569 1180> 1194 289<569 1224>
VStem: 184 385<288 628 913 1194>
Fore
1224 1483 m 1,0,-1
 1224 1194 l 1,1,-1
 569 1194 l 1,2,-1
 569 913 l 1,3,-1
 1180 913 l 1,4,-1
 1180 628 l 1,5,-1
 569 628 l 1,6,-1
 569 288 l 1,7,-1
 1238 288 l 1,8,-1
 1238 0 l 1,9,-1
 184 0 l 1,10,-1
 184 1483 l 1,11,-1
 1224 1483 l 1,0,-1
EndSplineSet
EndChar
StartChar: F
Encoding: 70 70 41
Width: 1385
VWidth: 3555
Flags: W
HStem: 0 21G<184 569> 628 285<569 1180> 1194 289<569 1224>
VStem: 184 385<0 628 913 1194>
Fore
1224 1483 m 1,0,-1
 1224 1194 l 1,1,-1
 569 1194 l 1,2,-1
 569 913 l 1,3,-1
 1180 913 l 1,4,-1
 1180 628 l 1,5,-1
 569 628 l 1,6,-1
 569 0 l 1,7,-1
 184 0 l 1,8,-1
 184 1483 l 1,9,-1
 1224 1483 l 1,0,-1
EndSplineSet
EndChar
StartChar: G
Encoding: 71 71 42
Width: 1670
VWidth: 3555
Flags: W
HStem: -28 273<733.846 1156.23> 566 259<924 1160> 1234 273<741.526 1246.74>
VStem: 99 399<492.917 980.399> 1160 362<281 566>
Fore
1522 115 m 1,0,1
 1234 -28 1234 -28 903 -28 c 0,2,3
 719 -28 719 -28 569.5 25 c 128,-1,4
 420 78 420 78 317 178 c 128,-1,5
 214 278 214 278 156.5 420 c 128,-1,6
 99 562 99 562 99 740 c 0,7,8
 99 1102 99 1102 317.5 1304.5 c 128,-1,9
 536 1507 536 1507 924 1507 c 0,10,11
 1231 1507 1231 1507 1465 1397 c 1,12,-1
 1465 1092 l 1,13,14
 1215 1234 1215 1234 970 1234 c 0,15,16
 743 1234 743 1234 620.5 1104 c 128,-1,17
 498 974 498 974 498 740 c 256,18,19
 498 505 498 505 617 375 c 128,-1,20
 736 245 736 245 953 245 c 0,21,22
 1078 245 1078 245 1160 281 c 1,23,-1
 1160 566 l 1,24,-1
 924 566 l 1,25,-1
 924 825 l 1,26,-1
 1522 825 l 1,27,-1
 1522 115 l 1,0,1
EndSplineSet
EndChar
StartChar: H
Encoding: 72 72 43
Width: 1697
VWidth: 3555
Flags: W
HStem: 0 21G<184 569 1134 1517> 628 285<569 1134> 1463 20G<184 569 1134 1517>
VStem: 184 385<0 628 913 1483> 1134 383<0 628 913 1483>
Fore
569 1483 m 1,0,-1
 569 913 l 1,1,-1
 1134 913 l 1,2,-1
 1134 1483 l 1,3,-1
 1517 1483 l 1,4,-1
 1517 0 l 1,5,-1
 1134 0 l 1,6,-1
 1134 628 l 1,7,-1
 569 628 l 1,8,-1
 569 0 l 1,9,-1
 184 0 l 1,10,-1
 184 1483 l 1,11,-1
 569 1483 l 1,0,-1
EndSplineSet
EndChar
StartChar: I
Encoding: 73 73 44
Width: 756
VWidth: 3555
Flags: W
HStem: 0 21G<184 569> 1463 20G<184 569>
VStem: 184 385<0 1483>
Fore
569 1483 m 1,0,-1
 569 0 l 1,1,-1
 184 0 l 1,2,-1
 184 1483 l 1,3,-1
 569 1483 l 1,0,-1
EndSplineSet
EndChar
StartChar: J
Encoding: 74 74 45
Width: 756
VWidth: 3555
Flags: W
HStem: -410 288<-118 98.0414> 1463 20G<184 569>
VStem: 184 385<-30.231 1483>
Fore
569 1483 m 1,0,-1
 569 146 l 2,1,2
 569 -135 569 -135 421.5 -272.5 c 128,-1,3
 274 -410 274 -410 -40 -410 c 2,4,-1
 -118 -410 l 1,5,-1
 -118 -122 l 1,6,-1
 -57 -122 l 2,7,8
 184 -122 184 -122 184 146 c 2,9,-1
 184 1483 l 1,10,-1
 569 1483 l 1,0,-1
EndSplineSet
EndChar
StartChar: K
Encoding: 75 75 46
Width: 1574
VWidth: 3555
Flags: W
HStem: 0 21G<184 569 1139.73 1635> 1463 20G<184 569 1099.74 1564>
VStem: 184 385<0 583 939 1483>
Fore
569 1483 m 1,0,-1
 569 939 l 1,1,-1
 1120 1483 l 1,2,-1
 1564 1483 l 1,3,-1
 854 783 l 1,4,-1
 1635 0 l 1,5,-1
 1160 0 l 1,6,-1
 569 583 l 1,7,-1
 569 0 l 1,8,-1
 184 0 l 1,9,-1
 184 1483 l 1,10,-1
 569 1483 l 1,0,-1
EndSplineSet
EndChar
StartChar: L
Encoding: 76 76 47
Width: 1296
VWidth: 3555
Flags: W
HStem: 0 288<569 1238> 1463 20G<184 569>
VStem: 184 385<288 1483>
Fore
569 1483 m 1,0,-1
 569 288 l 1,1,-1
 1238 288 l 1,2,-1
 1238 0 l 1,3,-1
 184 0 l 1,4,-1
 184 1483 l 1,5,-1
 569 1483 l 1,0,-1
EndSplineSet
EndChar
StartChar: M
Encoding: 77 77 48
Width: 2018
VWidth: 3555
Flags: W
HStem: 0 21G<184 543 1476 1838> 1463 20G<184 680.514 1338.51 1838>
VStem: 184 359<0 1085> 1476 362<0 1085>
Fore
672 1483 m 1,0,-1
 1010 689 l 1,1,-1
 1347 1483 l 1,2,-1
 1838 1483 l 1,3,-1
 1838 0 l 1,4,-1
 1476 0 l 1,5,-1
 1476 1085 l 1,6,-1
 1134 285 l 1,7,-1
 889 285 l 1,8,-1
 543 1085 l 1,9,-1
 543 0 l 1,10,-1
 184 0 l 1,11,-1
 184 1483 l 1,12,-1
 672 1483 l 1,0,-1
EndSplineSet
EndChar
StartChar: N
Encoding: 78 78 49
Width: 1697
VWidth: 3555
Flags: W
HStem: 0 21G<184 543 1077.28 1517> 1463 20G<184 621.707 1156 1517>
VStem: 184 359<0 1017> 1156 361<465 1483>
Fore
611 1483 m 1,0,-1
 1156 465 l 1,1,-1
 1156 1483 l 1,2,-1
 1517 1483 l 1,3,-1
 1517 0 l 1,4,-1
 1088 0 l 1,5,-1
 543 1017 l 1,6,-1
 543 0 l 1,7,-1
 184 0 l 1,8,-1
 184 1483 l 1,9,-1
 611 1483 l 1,0,-1
EndSplineSet
EndChar
StartChar: O
Encoding: 79 79 50
Width: 1727
VWidth: 3555
Flags: W
HStem: -28 273<686.71 1039.81> 1234 273<686.71 1039.81>
VStem: 99 399<469.028 1010.2> 1234 391<471.584 1007.65>
Fore
868 1234 m 0,0,1
 686 1234 686 1234 592 1104 c 128,-1,2
 498 974 498 974 498 740 c 256,3,4
 498 505 498 505 592 375 c 128,-1,5
 686 245 686 245 868 245 c 0,6,7
 1038 245 1038 245 1136 375 c 128,-1,8
 1234 505 1234 505 1234 740 c 256,9,10
 1234 974 1234 974 1136 1104 c 128,-1,11
 1038 1234 1038 1234 868 1234 c 0,0,1
868 1507 m 256,12,13
 1231 1507 1231 1507 1428 1304.5 c 128,-1,14
 1625 1102 1625 1102 1625 740 c 256,15,16
 1625 377 1625 377 1428 174.5 c 128,-1,17
 1231 -28 1231 -28 868 -28 c 256,18,19
 505 -28 505 -28 302 174.5 c 128,-1,20
 99 377 99 377 99 740 c 256,21,22
 99 1102 99 1102 302 1304.5 c 128,-1,23
 505 1507 505 1507 868 1507 c 256,12,13
EndSplineSet
EndChar
StartChar: P
Encoding: 80 80 51
Width: 1489
VWidth: 3555
Flags: W
HStem: 0 21G<184 569> 516 277<569 940.277> 1205 278<569 940.277>
VStem: 184 385<0 516 793 1205> 1014 390<862.492 1134.27>
Fore
821 1483 m 2,0,1
 1109 1483 1109 1483 1256.5 1358.5 c 128,-1,2
 1404 1234 1404 1234 1404 998 c 256,3,4
 1404 764 1404 764 1256.5 640 c 128,-1,5
 1109 516 1109 516 821 516 c 2,6,-1
 569 516 l 1,7,-1
 569 0 l 1,8,-1
 184 0 l 1,9,-1
 184 1483 l 1,10,-1
 821 1483 l 2,0,1
569 793 m 1,11,-1
 783 793 l 2,12,13
 889 793 889 793 951.5 844.5 c 128,-1,14
 1014 896 1014 896 1014 998 c 0,15,16
 1014 1099 1014 1099 951.5 1152 c 128,-1,17
 889 1205 889 1205 783 1205 c 2,18,-1
 569 1205 l 1,19,-1
 569 793 l 1,11,-1
EndSplineSet
EndChar
StartChar: Q
Encoding: 81 81 52
Width: 1727
VWidth: 3555
Flags: W
HStem: -24 269<686.975 903> 1234 273<686.71 1039.81>
VStem: 99 399<469.193 1010.2> 1234 391<473.47 1004.09>
Fore
878 -24 m 2,0,1
 512 -24 512 -24 305.5 176.5 c 128,-1,2
 99 377 99 377 99 740 c 256,3,4
 99 1102 99 1102 302 1304.5 c 128,-1,5
 505 1507 505 1507 868 1507 c 256,6,7
 1231 1507 1231 1507 1428 1306.5 c 128,-1,8
 1625 1106 1625 1106 1625 740 c 0,9,10
 1625 491 1625 491 1520 311.5 c 128,-1,11
 1415 132 1415 132 1212 40 c 1,12,-1
 1510 -295 l 1,13,-1
 1149 -295 l 1,14,-1
 903 -24 l 1,15,-1
 878 -24 l 2,0,1
868 1234 m 0,16,17
 686 1234 686 1234 592 1104 c 128,-1,18
 498 974 498 974 498 740 c 256,19,20
 498 505 498 505 592 375 c 128,-1,21
 686 245 686 245 868 245 c 0,22,23
 1038 245 1038 245 1136 375 c 128,-1,24
 1234 505 1234 505 1234 740 c 256,25,26
 1234 974 1234 974 1136 1104 c 128,-1,27
 1038 1234 1038 1234 868 1234 c 0,16,17
EndSplineSet
EndChar
StartChar: R
Encoding: 82 82 53
Width: 1564
VWidth: 3555
Flags: W
HStem: 0 21G<184 569 1106.27 1529> 562 263<569 822.695> 1205 278<569 898.065>
VStem: 184 385<0 562 825 1205> 953 380<877.526 1153.7>
Fore
729 825 m 1,0,1
 854 825 854 825 903.5 869 c 128,-1,2
 953 913 953 913 953 1017 c 0,3,4
 953 1116 953 1116 903.5 1160.5 c 128,-1,5
 854 1205 854 1205 729 1205 c 2,6,-1
 569 1205 l 1,7,-1
 569 825 l 1,8,-1
 729 825 l 1,0,1
569 0 m 1,9,-1
 184 0 l 1,10,-1
 184 1483 l 1,11,-1
 767 1483 l 2,12,13
 1066 1483 1066 1483 1199.5 1383 c 128,-1,14
 1333 1283 1333 1283 1333 1078 c 0,15,16
 1333 783 1333 783 1049 693 c 1,17,18
 1130 675 1130 675 1191 609 c 128,-1,19
 1252 543 1252 543 1316 424 c 2,20,-1
 1529 0 l 1,21,-1
 1116 0 l 1,22,-1
 936 370 l 2,23,24
 882 484 882 484 824.5 523 c 128,-1,25
 767 562 767 562 675 562 c 2,26,-1
 569 562 l 1,27,-1
 569 0 l 1,9,-1
EndSplineSet
EndChar
StartChar: S
Encoding: 83 83 54
Width: 1463
VWidth: 3555
Flags: W
HStem: -28 273<418.319 871.102> 1123 21G<1159.5 1224> 1234 273<554.013 910.162>
Fore
1224 1123 m 1,0,1
 1095 1177 1095 1177 981.5 1205.5 c 128,-1,2
 868 1234 868 1234 760 1234 c 0,3,4
 618 1234 618 1234 556.5 1197 c 128,-1,5
 495 1160 495 1160 495 1082 c 0,6,7
 495 1017 495 1017 537.5 983.5 c 128,-1,8
 580 950 580 950 693 929 c 2,9,-1
 861 892 l 2,10,11
 1106 845 1106 845 1211 746.5 c 128,-1,12
 1316 648 1316 648 1316 455 c 0,13,14
 1316 -28 1316 -28 726 -28 c 0,15,16
 444 -28 444 -28 160 78 c 1,17,-1
 160 398 l 1,18,19
 448 245 448 245 689 245 c 0,20,21
 814 245 814 245 880 290 c 128,-1,22
 946 335 946 335 946 413 c 0,23,24
 946 476 946 476 903.5 515 c 128,-1,25
 861 554 861 554 722 583 c 2,26,-1
 573 615 l 2,27,28
 349 665 349 665 249 770 c 128,-1,29
 149 875 149 875 149 1049 c 0,30,31
 149 1272 149 1272 290 1389.5 c 128,-1,32
 431 1507 431 1507 696 1507 c 0,33,34
 821 1507 821 1507 951.5 1489.5 c 128,-1,35
 1082 1472 1082 1472 1224 1432 c 1,36,-1
 1224 1123 l 1,0,1
EndSplineSet
EndChar
StartChar: T
Encoding: 84 84 55
Width: 1385
VWidth: 3555
Flags: W
HStem: 0 21G<505 882> 1194 289<10 505 882 1377>
VStem: 505 377<0 1194>
Fore
1377 1483 m 1,0,-1
 1377 1194 l 1,1,-1
 882 1194 l 1,2,-1
 882 0 l 1,3,-1
 505 0 l 1,4,-1
 505 1194 l 1,5,-1
 10 1194 l 1,6,-1
 10 1483 l 1,7,-1
 1377 1483 l 1,0,-1
EndSplineSet
EndChar
StartChar: U
Encoding: 85 85 56
Width: 1649
VWidth: 3555
Flags: W
HStem: -28 276<670.501 981.825> 1463 20G<184 569 1085 1465>
VStem: 184 385<366.976 1483> 1085 380<358.686 1483>
Fore
569 1483 m 1,0,-1
 569 594 l 2,1,2
 569 413 569 413 629 330.5 c 128,-1,3
 689 248 689 248 825 248 c 256,4,5
 960 248 960 248 1022.5 330.5 c 128,-1,6
 1085 413 1085 413 1085 594 c 2,7,-1
 1085 1483 l 1,8,-1
 1465 1483 l 1,9,-1
 1465 594 l 2,10,11
 1465 281 1465 281 1310.5 126.5 c 128,-1,12
 1156 -28 1156 -28 825 -28 c 0,13,14
 184 -28 184 -28 184 594 c 2,15,-1
 184 1483 l 1,16,-1
 569 1483 l 1,0,-1
EndSplineSet
EndChar
StartChar: V
Encoding: 86 86 57
Width: 1574
VWidth: 3555
Flags: W
HStem: 0 21G<551.596 1021.42> 1463 20G<10 398.281 1172.88 1564>
Fore
391 1483 m 1,0,-1
 790 387 l 1,1,-1
 1180 1483 l 1,2,-1
 1564 1483 l 1,3,-1
 1014 0 l 1,4,-1
 559 0 l 1,5,-1
 10 1483 l 1,6,-1
 391 1483 l 1,0,-1
EndSplineSet
EndChar
StartChar: W
Encoding: 87 87 58
Width: 2239
VWidth: 3555
Flags: W
HStem: 0 21G<412.239 862.65 1382.26 1835.64> 1463 20G<64 435.64 931.305 1309.73 1813.25 2175>
Fore
431 1483 m 1,0,-1
 682 401 l 1,1,-1
 936 1483 l 1,2,-1
 1305 1483 l 1,3,-1
 1561 401 l 1,4,-1
 1818 1483 l 1,5,-1
 2175 1483 l 1,6,-1
 1831 0 l 1,7,-1
 1387 0 l 1,8,-1
 1120 1127 l 1,9,-1
 858 0 l 1,10,-1
 417 0 l 1,11,-1
 64 1483 l 1,12,-1
 431 1483 l 1,0,-1
EndSplineSet
EndChar
StartChar: X
Encoding: 88 88 59
Width: 1567
VWidth: 3555
Flags: W
HStem: 0 21G<40 454.438 1113.48 1529> 1463 20G<61 471.655 1092.43 1507>
Fore
1529 0 m 1,0,-1
 1127 0 l 1,1,-1
 783 509 l 1,2,-1
 441 0 l 1,3,-1
 40 0 l 1,4,-1
 547 757 l 1,5,-1
 61 1483 l 1,6,-1
 458 1483 l 1,7,-1
 783 1007 l 1,8,-1
 1106 1483 l 1,9,-1
 1507 1483 l 1,10,-1
 1014 757 l 1,11,-1
 1529 0 l 1,0,-1
EndSplineSet
EndChar
StartChar: Y
Encoding: 89 89 60
Width: 1470
VWidth: 3555
Flags: W
HStem: 0 21G<540 929> 1463 20G<-17 410.755 1065.09 1493>
VStem: 540 389<0 621>
Fore
398 1483 m 1,0,-1
 736 953 l 1,1,-1
 1078 1483 l 1,2,-1
 1493 1483 l 1,3,-1
 929 621 l 1,4,-1
 929 0 l 1,5,-1
 540 0 l 1,6,-1
 540 621 l 1,7,-1
 -17 1483 l 1,8,-1
 398 1483 l 1,0,-1
EndSplineSet
EndChar
StartChar: Z
Encoding: 90 90 61
Width: 1473
VWidth: 3555
Flags: W
HStem: 0 288<566 1384> 1194 289<118 885>
Fore
1358 1483 m 1,0,-1
 1358 1248 l 1,1,-1
 566 288 l 1,2,-1
 1384 288 l 1,3,-1
 1384 0 l 1,4,-1
 92 0 l 1,5,-1
 92 231 l 1,6,-1
 885 1194 l 1,7,-1
 118 1194 l 1,8,-1
 118 1483 l 1,9,-1
 1358 1483 l 1,0,-1
EndSplineSet
EndChar
StartChar: bracketleft
Encoding: 91 91 62
Width: 927
VWidth: 3555
Flags: W
HStem: -271 224<516 793> 1319 228<516 793>
VStem: 174 342<-47 1319>
Fore
793 1547 m 1,0,-1
 793 1319 l 1,1,-1
 516 1319 l 1,2,-1
 516 -47 l 1,3,-1
 793 -47 l 1,4,-1
 793 -271 l 1,5,-1
 174 -271 l 1,6,-1
 174 1547 l 1,7,-1
 793 1547 l 1,0,-1
EndSplineSet
EndChar
StartChar: backslash
Encoding: 92 92 63
Width: 743
VWidth: 3555
Flags: W
HStem: 1463 20G<0 226.256>
VStem: 0 743<-189 1483>
Fore
0 1483 m 1,0,-1
 220 1483 l 1,1,-1
 743 -189 l 1,2,-1
 523 -189 l 1,3,-1
 0 1483 l 1,0,-1
EndSplineSet
EndChar
StartChar: bracketright
Encoding: 93 93 64
Width: 927
VWidth: 3555
Flags: W
HStem: -271 224<139 420> 1319 228<139 420>
VStem: 420 333<-47 1319>
Fore
139 -271 m 1,0,-1
 139 -47 l 1,1,-1
 420 -47 l 1,2,-1
 420 1319 l 1,3,-1
 139 1319 l 1,4,-1
 139 1547 l 1,5,-1
 753 1547 l 1,6,-1
 753 -271 l 1,7,-1
 139 -271 l 1,0,-1
EndSplineSet
EndChar
StartChar: asciicircum
Encoding: 94 94 65
Width: 1701
VWidth: 3555
Flags: W
HStem: 929 554<729 1496>
Fore
1496 929 m 1,0,-1
 1255 929 l 1,1,-1
 854 1231 l 1,2,-1
 448 929 l 1,3,-1
 207 929 l 1,4,-1
 729 1483 l 1,5,-1
 974 1483 l 1,6,-1
 1496 929 l 1,0,-1
EndSplineSet
EndChar
StartChar: underscore
Encoding: 95 95 66
Width: 1015
VWidth: 3555
Flags: W
HStem: -484 192<0 1017>
Fore
1017 -484 m 1,0,-1
 0 -484 l 1,1,-1
 0 -292 l 1,2,-1
 1017 -292 l 1,3,-1
 1017 -484 l 1,0,-1
EndSplineSet
EndChar
StartChar: grave
Encoding: 96 96 67
Width: 1015
VWidth: 3555
Flags: W
HStem: 1252 373<92 654>
VStem: 92 562<1252 1625>
Fore
654 1252 m 1,0,-1
 462 1252 l 1,1,-1
 92 1625 l 1,2,-1
 373 1625 l 1,3,-1
 654 1252 l 1,0,-1
EndSplineSet
EndChar
StartChar: a
Encoding: 97 97 68
Width: 1371
VWidth: 3555
Flags: W
HStem: -28 235<387 688.648> 502 210<494.063 858> 899 238<474.691 794.182>
VStem: 858 354<0 163 310.5 502 712 844.179>
Fore
668 502 m 1,0,1
 448 502 448 502 448 352 c 0,2,3
 448 285 448 285 490.5 246 c 128,-1,4
 533 207 533 207 615 207 c 0,5,6
 719 207 719 207 788.5 279.5 c 128,-1,7
 858 352 858 352 858 462 c 2,8,-1
 858 502 l 1,9,-1
 668 502 l 1,0,1
1212 0 m 1,10,-1
 858 0 l 1,11,-1
 858 163 l 1,12,13
 783 64 783 64 692 18 c 128,-1,14
 601 -28 601 -28 472 -28 c 0,15,16
 302 -28 302 -28 193.5 73 c 128,-1,17
 85 174 85 174 85 335 c 0,18,19
 85 529 85 529 220.5 620.5 c 128,-1,20
 356 712 356 712 644 712 c 2,21,-1
 858 712 l 1,22,-1
 858 740 l 2,23,24
 858 825 858 825 790 862 c 128,-1,25
 722 899 722 899 580 899 c 0,26,27
 465 899 465 899 368 880 c 128,-1,28
 271 861 271 861 184 811 c 1,29,-1
 184 1085 l 1,30,31
 299 1109 299 1109 414 1123 c 128,-1,32
 529 1137 529 1137 644 1137 c 0,33,34
 946 1137 946 1137 1079 1018 c 128,-1,35
 1212 899 1212 899 1212 634 c 2,36,-1
 1212 0 l 1,10,-1
EndSplineSet
Substitution2: "Single Substitution lookup 22 subtable" uni0E38
Substitution2: "Single Substitution lookup 22 subtable" uni0E38
EndChar
StartChar: b
Encoding: 98 98 69
Width: 1456
VWidth: 3555
Flags: W
HStem: -28 255<692.449 900.972> 882 255<692.449 900.972>
VStem: 170 359<0 160 330.465 778.219 950 1547> 998 363<335.093 774.617>
Fore
760 227 m 0,0,1
 998 227 998 227 998 554 c 256,2,3
 998 882 998 882 760 882 c 0,4,5
 529 882 529 882 529 554 c 256,6,7
 529 227 529 227 760 227 c 0,0,1
529 950 m 1,8,9
 661 1137 661 1137 892 1137 c 0,10,11
 995 1137 995 1137 1081 1094.5 c 128,-1,12
 1167 1052 1167 1052 1228.5 975.5 c 128,-1,13
 1290 899 1290 899 1325.5 790.5 c 128,-1,14
 1361 682 1361 682 1361 554 c 256,15,16
 1361 427 1361 427 1325.5 320.5 c 128,-1,17
 1290 214 1290 214 1228.5 135.5 c 128,-1,18
 1167 57 1167 57 1081 14.5 c 128,-1,19
 995 -28 995 -28 892 -28 c 0,20,21
 661 -28 661 -28 529 160 c 1,22,-1
 529 0 l 1,23,-1
 170 0 l 1,24,-1
 170 1547 l 1,25,-1
 529 1547 l 1,26,-1
 529 950 l 1,8,9
EndSplineSet
Substitution2: "Single Substitution lookup 22 subtable" uni0E39
Substitution2: "Single Substitution lookup 22 subtable" uni0E39
EndChar
StartChar: c
Encoding: 99 99 70
Width: 1204
VWidth: 3555
Flags: W
HStem: -28 252<591.704 885.366> 882 255<585.919 954.342>
VStem: 85 373<356.665 748.379>
Fore
1066 790 m 1,0,1
 998 838 998 838 926 860 c 128,-1,2
 854 882 854 882 771 882 c 0,3,4
 618 882 618 882 538 798.5 c 128,-1,5
 458 715 458 715 458 554 c 256,6,7
 458 394 458 394 538 309 c 128,-1,8
 618 224 618 224 771 224 c 0,9,10
 858 224 858 224 932.5 249 c 128,-1,11
 1007 274 1007 274 1066 319 c 1,12,-1
 1066 31 l 1,13,14
 984 0 984 0 899 -14 c 128,-1,15
 814 -28 814 -28 729 -28 c 0,16,17
 427 -28 427 -28 256 125 c 128,-1,18
 85 278 85 278 85 554 c 256,19,20
 85 832 85 832 256 984.5 c 128,-1,21
 427 1137 427 1137 729 1137 c 0,22,23
 906 1137 906 1137 1066 1082 c 1,24,-1
 1066 790 l 1,0,1
EndSplineSet
Substitution2: "Single Substitution lookup 22 subtable" uni0E3A
Substitution2: "Single Substitution lookup 22 subtable" uni0E3A
EndChar
StartChar: d
Encoding: 100 100 71
Width: 1456
VWidth: 3555
Flags: W
HStem: -28 255<556.161 760.492> 882 255<556.802 759.996>
VStem: 92 370<330.529 776.861> 929 354<0 160 336.293 772.373 950 1547>
Fore
929 1547 m 1,0,-1
 1283 1547 l 1,1,-1
 1283 0 l 1,2,-1
 929 0 l 1,3,-1
 929 160 l 1,4,5
 786 -28 786 -28 562 -28 c 0,6,7
 458 -28 458 -28 373 14.5 c 128,-1,8
 288 57 288 57 225.5 135.5 c 128,-1,9
 163 214 163 214 127.5 320.5 c 128,-1,10
 92 427 92 427 92 554 c 256,11,12
 92 682 92 682 127.5 790.5 c 128,-1,13
 163 899 163 899 225.5 975.5 c 128,-1,14
 288 1052 288 1052 373 1094.5 c 128,-1,15
 458 1137 458 1137 562 1137 c 0,16,17
 786 1137 786 1137 929 950 c 1,18,-1
 929 1547 l 1,0,-1
693 227 m 0,19,20
 929 227 929 227 929 554 c 256,21,22
 929 882 929 882 693 882 c 0,23,24
 462 882 462 882 462 554 c 256,25,26
 462 227 462 227 693 227 c 0,19,20
EndSplineSet
EndChar
StartChar: e
Encoding: 101 101 72
Width: 1378
VWidth: 3555
Flags: W
HStem: -28 235<565.062 936.097> 458 217<455 913> 899 238<549.019 837.427>
Fore
1279 458 m 1,0,-1
 451 458 l 1,1,2
 472 207 472 207 757 207 c 0,3,4
 977 207 977 207 1231 342 c 1,5,-1
 1231 68 l 1,6,7
 1102 17 1102 17 978 -5.5 c 128,-1,8
 854 -28 854 -28 726 -28 c 0,9,10
 424 -28 424 -28 254.5 125 c 128,-1,11
 85 278 85 278 85 554 c 256,12,13
 85 832 85 832 251 984.5 c 128,-1,14
 417 1137 417 1137 705 1137 c 0,15,16
 963 1137 963 1137 1121 981 c 128,-1,17
 1279 825 1279 825 1279 559 c 2,18,-1
 1279 458 l 1,0,-1
913 675 m 1,19,20
 913 779 913 779 856.5 839 c 128,-1,21
 800 899 800 899 705 899 c 0,22,23
 597 899 597 899 533 844.5 c 128,-1,24
 469 790 469 790 455 675 c 1,25,-1
 913 675 l 1,19,20
EndSplineSet
EndChar
StartChar: f
Encoding: 102 102 73
Width: 880
VWidth: 3555
Flags: W
HStem: 0 21G<214 569> 861 252<40 214 569 878> 1312 235<599.434 628 628 899>
VStem: 214 355<0 861 1113 1282.6>
Fore
899 1312 m 1,0,-1
 708 1312 l 2,1,2
 628 1312 628 1312 598.5 1283.5 c 128,-1,3
 569 1255 569 1255 569 1191 c 2,4,-1
 569 1113 l 1,5,-1
 878 1113 l 1,6,-1
 878 861 l 1,7,-1
 569 861 l 1,8,-1
 569 0 l 1,9,-1
 214 0 l 1,10,-1
 214 861 l 1,11,-1
 40 861 l 1,12,-1
 40 1113 l 1,13,-1
 214 1113 l 1,14,-1
 214 1191 l 2,15,16
 214 1547 214 1547 628 1547 c 2,17,-1
 899 1547 l 1,18,-1
 899 1312 l 1,0,-1
EndSplineSet
EndChar
StartChar: g
Encoding: 103 103 74
Width: 1456
VWidth: 3555
Flags: W
HStem: -441 238<383.277 803.102> 0 260<553.954 759.535> 882 255<458.567 762.05>
VStem: 92 370<358.702 773.674> 929 354<-83.98 189 363.865 776.224 946 1113>
Fore
929 189 m 1,0,1
 786 0 786 0 562 0 c 0,2,3
 359 0 359 0 224 160 c 0,4,5
 92 316 92 316 92 569 c 256,6,7
 92 821 92 821 224 977 c 0,8,9
 359 1137 359 1137 562 1137 c 0,10,11
 790 1137 790 1137 929 946 c 1,12,-1
 929 1113 l 1,13,-1
 1283 1113 l 1,14,-1
 1283 115 l 2,15,16
 1283 -156 1283 -156 1114.5 -298.5 c 128,-1,17
 946 -441 946 -441 621 -441 c 0,18,19
 417 -441 417 -441 227 -373 c 1,20,-1
 227 -95 l 1,21,22
 319 -153 319 -153 410.5 -178 c 128,-1,23
 502 -203 502 -203 590 -203 c 0,24,25
 764 -203 764 -203 846.5 -130 c 128,-1,26
 929 -57 929 -57 929 115 c 2,27,-1
 929 189 l 1,0,1
693 882 m 0,28,29
 583 882 583 882 522.5 800.5 c 128,-1,30
 462 719 462 719 462 569 c 0,31,32
 462 260 462 260 693 260 c 0,33,34
 807 260 807 260 868 340 c 128,-1,35
 929 420 929 420 929 569 c 256,36,37
 929 719 929 719 868 800.5 c 128,-1,38
 807 882 807 882 693 882 c 0,28,29
EndSplineSet
EndChar
StartChar: h
Encoding: 104 104 75
Width: 1449
VWidth: 3555
Flags: W
HStem: 0 21G<170 529 932 1286> 871 266<699.696 992>
VStem: 170 359<0 754.557 950 1547> 932 354<0 701.342>
Fore
1286 0 m 1,0,-1
 932 0 l 1,1,-1
 932 115 l 1,2,-1
 932 519 l 2,3,4
 932 661 932 661 924.5 714 c 128,-1,5
 917 767 917 767 899 800 c 0,6,7
 858 871 858 871 764 871 c 0,8,9
 654 871 654 871 591.5 783.5 c 128,-1,10
 529 696 529 696 529 543 c 2,11,-1
 529 0 l 1,12,-1
 170 0 l 1,13,-1
 170 1547 l 1,14,-1
 529 1547 l 1,15,-1
 529 950 l 1,16,17
 675 1137 675 1137 896 1137 c 0,18,19
 1088 1137 1088 1137 1187 1018 c 128,-1,20
 1286 899 1286 899 1286 675 c 2,21,-1
 1286 0 l 1,0,-1
EndSplineSet
EndChar
StartChar: i
Encoding: 105 105 76
Width: 692
VWidth: 3555
Flags: W
HStem: 0 21G<170 529> 1093 20G<170 529> 1252 295<170 529>
VStem: 170 359<0 1113 1252 1547>
Fore
529 1113 m 1,0,-1
 529 0 l 1,1,-1
 170 0 l 1,2,-1
 170 1113 l 1,3,-1
 529 1113 l 1,0,-1
529 1547 m 1,4,-1
 529 1252 l 1,5,-1
 170 1252 l 1,6,-1
 170 1547 l 1,7,-1
 529 1547 l 1,4,-1
EndSplineSet
EndChar
StartChar: j
Encoding: 106 106 77
Width: 692
VWidth: 3555
Flags: W
HStem: -441 234<-68 131.012> 1093 20G<170 529> 1252 295<170 529>
VStem: 170 359<-161.087 1113 1252 1547>
Fore
529 1113 m 1,0,-1
 529 17 l 2,1,2
 529 -207 529 -207 419 -324 c 128,-1,3
 309 -441 309 -441 106 -441 c 2,4,-1
 -68 -441 l 1,5,-1
 -68 -207 l 1,6,-1
 -3 -207 l 2,7,8
 95 -207 95 -207 132.5 -162.5 c 128,-1,9
 170 -118 170 -118 170 17 c 2,10,-1
 170 1113 l 1,11,-1
 529 1113 l 1,0,-1
529 1547 m 1,12,-1
 529 1252 l 1,13,-1
 170 1252 l 1,14,-1
 170 1547 l 1,15,-1
 529 1547 l 1,12,-1
EndSplineSet
EndChar
StartChar: k
Encoding: 107 107 78
Width: 1350
VWidth: 3555
Flags: W
HStem: 0 21G<170 529 941.342 1391> 1093 20G<916.049 1347>
VStem: 170 359<0 462 705 1547>
Fore
529 1547 m 1,0,-1
 529 705 l 1,1,-1
 936 1113 l 1,2,-1
 1347 1113 l 1,3,-1
 807 601 l 1,4,-1
 1391 0 l 1,5,-1
 960 0 l 1,6,-1
 529 462 l 1,7,-1
 529 0 l 1,8,-1
 170 0 l 1,9,-1
 170 1547 l 1,10,-1
 529 1547 l 1,0,-1
EndSplineSet
EndChar
StartChar: l
Encoding: 108 108 79
Width: 692
VWidth: 3555
Flags: W
HStem: 0 21G<170 529>
VStem: 170 359<0 1547>
Fore
529 1547 m 1,0,-1
 529 0 l 1,1,-1
 170 0 l 1,2,-1
 170 1547 l 1,3,-1
 529 1547 l 1,0,-1
EndSplineSet
EndChar
StartChar: m
Encoding: 109 109 80
Width: 2117
VWidth: 3555
Flags: W
HStem: 0 21G<170 529 882 1241 1601 1958> 871 266<683.199 885.494 1377.93 1661.62>
VStem: 170 359<0 772.904 950 1113> 882 359<0 698.312> 1604 354<0 603.563 604.441 815.813>
Fore
1201 929 m 1,0,1
 1266 1031 1266 1031 1362 1084 c 128,-1,2
 1458 1137 1458 1137 1564 1137 c 0,3,4
 1760 1137 1760 1137 1859 1018 c 128,-1,5
 1958 899 1958 899 1958 675 c 2,6,-1
 1958 0 l 1,7,-1
 1601 0 l 1,8,-1
 1601 580 l 2,9,10
 1601 590 1601 590 1602.5 604 c 128,-1,11
 1604 618 1604 618 1604 648 c 0,12,13
 1604 764 1604 764 1570 817.5 c 128,-1,14
 1536 871 1536 871 1458 871 c 0,15,16
 1241 871 1241 871 1241 543 c 2,17,-1
 1241 0 l 1,18,-1
 882 0 l 1,19,-1
 882 580 l 2,20,21
 882 672 882 672 875 729 c 128,-1,22
 868 786 868 786 851.5 817.5 c 128,-1,23
 835 849 835 849 809 860 c 128,-1,24
 783 871 783 871 740 871 c 0,25,26
 529 871 529 871 529 543 c 2,27,-1
 529 0 l 1,28,-1
 170 0 l 1,29,-1
 170 1113 l 1,30,-1
 529 1113 l 1,31,-1
 529 950 l 1,32,33
 654 1137 654 1137 868 1137 c 0,34,35
 977 1137 977 1137 1068.5 1082.5 c 128,-1,36
 1160 1028 1160 1028 1201 929 c 1,0,1
EndSplineSet
EndChar
StartChar: n
Encoding: 110 110 81
Width: 1449
VWidth: 3555
Flags: W
HStem: 0 21G<170 529 932 1286> 871 266<699.696 992>
VStem: 170 359<0 754.557 950 1113> 932 354<0 701.342>
Fore
1286 0 m 1,0,-1
 932 0 l 1,1,-1
 932 115 l 1,2,-1
 932 519 l 2,3,4
 932 661 932 661 924.5 714 c 128,-1,5
 917 767 917 767 899 800 c 0,6,7
 858 871 858 871 764 871 c 0,8,9
 654 871 654 871 591.5 783.5 c 128,-1,10
 529 696 529 696 529 543 c 2,11,-1
 529 0 l 1,12,-1
 170 0 l 1,13,-1
 170 1113 l 1,14,-1
 529 1113 l 1,15,-1
 529 950 l 1,16,17
 675 1137 675 1137 896 1137 c 0,18,19
 1088 1137 1088 1137 1187 1018 c 128,-1,20
 1286 899 1286 899 1286 675 c 2,21,-1
 1286 0 l 1,0,-1
EndSplineSet
EndChar
StartChar: o
Encoding: 111 111 82
Width: 1395
VWidth: 3555
Flags: W
HStem: -28 252<559.191 839.875> 882 255<554.226 839.709>
VStem: 85 373<335.216 772.801> 939 370<335.216 772.801>
Fore
696 882 m 0,0,1
 458 882 458 882 458 554 c 0,2,3
 458 394 458 394 519 309 c 128,-1,4
 580 224 580 224 696 224 c 0,5,6
 818 224 818 224 878.5 309 c 128,-1,7
 939 394 939 394 939 554 c 0,8,9
 939 882 939 882 696 882 c 0,0,1
696 1137 m 256,10,11
 984 1137 984 1137 1146.5 984.5 c 128,-1,12
 1309 832 1309 832 1309 554 c 256,13,14
 1309 278 1309 278 1146.5 125 c 128,-1,15
 984 -28 984 -28 696 -28 c 256,16,17
 410 -28 410 -28 247.5 125 c 128,-1,18
 85 278 85 278 85 554 c 256,19,20
 85 832 85 832 247.5 984.5 c 128,-1,21
 410 1137 410 1137 696 1137 c 256,10,11
EndSplineSet
EndChar
StartChar: p
Encoding: 112 112 83
Width: 1456
VWidth: 3555
Flags: W
HStem: -424 21G<170 529> -28 255<692.449 900.972> 882 255<693.452 900.325>
VStem: 170 359<-424 160 330.465 778.219 950 1113> 998 363<336.293 772.373>
Fore
529 -424 m 1,0,-1
 170 -424 l 1,1,-1
 170 1113 l 1,2,-1
 529 1113 l 1,3,-1
 529 950 l 1,4,5
 661 1137 661 1137 892 1137 c 0,6,7
 995 1137 995 1137 1081 1094.5 c 128,-1,8
 1167 1052 1167 1052 1228.5 975.5 c 128,-1,9
 1290 899 1290 899 1325.5 790.5 c 128,-1,10
 1361 682 1361 682 1361 554 c 256,11,12
 1361 427 1361 427 1325.5 320.5 c 128,-1,13
 1290 214 1290 214 1228.5 135.5 c 128,-1,14
 1167 57 1167 57 1081 14.5 c 128,-1,15
 995 -28 995 -28 892 -28 c 0,16,17
 661 -28 661 -28 529 160 c 1,18,-1
 529 -424 l 1,0,-1
760 882 m 0,19,20
 529 882 529 882 529 554 c 256,21,22
 529 227 529 227 760 227 c 0,23,24
 998 227 998 227 998 554 c 256,25,26
 998 882 998 882 760 882 c 0,19,20
EndSplineSet
EndChar
StartChar: q
Encoding: 113 113 84
Width: 1456
VWidth: 3555
Flags: W
HStem: -424 21G<929 1283> -28 255<556.161 760.492> 882 255<556.161 761.491>
VStem: 92 370<330.497 777.54> 929 354<-424 160 336.293 772.373 946 1113>
Fore
693 882 m 0,0,1
 462 882 462 882 462 554 c 256,2,3
 462 227 462 227 693 227 c 0,4,5
 929 227 929 227 929 554 c 256,6,7
 929 882 929 882 693 882 c 0,0,1
929 160 m 1,8,9
 786 -28 786 -28 562 -28 c 0,10,11
 458 -28 458 -28 373 14.5 c 128,-1,12
 288 57 288 57 225.5 135.5 c 128,-1,13
 163 214 163 214 127.5 320.5 c 128,-1,14
 92 427 92 427 92 554 c 256,15,16
 92 682 92 682 127.5 790.5 c 128,-1,17
 163 899 163 899 225.5 975.5 c 128,-1,18
 288 1052 288 1052 373 1094.5 c 128,-1,19
 458 1137 458 1137 562 1137 c 0,20,21
 790 1137 790 1137 929 946 c 1,22,-1
 929 1113 l 1,23,-1
 1283 1113 l 1,24,-1
 1283 -424 l 1,25,-1
 929 -424 l 1,26,-1
 929 160 l 1,8,9
EndSplineSet
EndChar
StartChar: r
Encoding: 114 114 85
Width: 1001
VWidth: 3555
Flags: W
HStem: 0 21G<170 529> 854 283<699.8 910.481>
VStem: 170 359<0 722.018 929 1113>
Fore
998 811 m 1,0,1
 950 832 950 832 905.5 843 c 128,-1,2
 861 854 861 854 811 854 c 0,3,4
 672 854 672 854 600.5 764.5 c 128,-1,5
 529 675 529 675 529 516 c 2,6,-1
 529 0 l 1,7,-1
 170 0 l 1,8,-1
 170 1113 l 1,9,-1
 529 1113 l 1,10,-1
 529 929 l 1,11,12
 654 1137 654 1137 896 1137 c 0,13,14
 913 1137 913 1137 935 1135.5 c 128,-1,15
 957 1134 957 1134 998 1130 c 1,16,-1
 998 811 l 1,0,1
EndSplineSet
EndChar
StartChar: s
Encoding: 115 115 86
Width: 1208
VWidth: 3555
Flags: W
HStem: -28 235<362.553 744.858> 899 238<441.231 817.926>
Fore
1038 807 m 1,0,1
 924 858 924 858 819.5 878.5 c 128,-1,2
 715 899 715 899 615 899 c 0,3,4
 420 899 420 899 420 800 c 0,5,6
 420 757 420 757 457.5 734.5 c 128,-1,7
 495 712 495 712 590 696 c 2,8,-1
 651 689 l 2,9,10
 929 658 929 658 1017 580 c 0,11,12
 1113 502 1113 502 1113 326 c 0,13,14
 1113 -28 1113 -28 590 -28 c 0,15,16
 484 -28 484 -28 362.5 -12.5 c 128,-1,17
 241 3 241 3 125 43 c 1,18,-1
 125 309 l 1,19,20
 339 207 339 207 566 207 c 0,21,22
 779 207 779 207 779 319 c 0,23,24
 779 370 779 370 742 393.5 c 128,-1,25
 705 417 705 417 594 431 c 2,26,-1
 529 437 l 2,27,28
 295 465 295 465 198.5 546.5 c 128,-1,29
 102 628 102 628 102 793 c 0,30,31
 102 1137 102 1137 597 1137 c 0,32,33
 790 1137 790 1137 1038 1082 c 1,34,-1
 1038 807 l 1,0,1
EndSplineSet
EndChar
StartChar: t
Encoding: 116 116 87
Width: 970
VWidth: 3555
Flags: W
HStem: 0 252<589.438 590 590 892> 861 252<24 203 559 924>
VStem: 203 356<279.856 861 1113 1425>
Fore
559 1113 m 1,0,-1
 924 1113 l 1,1,-1
 924 861 l 1,2,-1
 559 861 l 1,3,-1
 559 384 l 2,4,5
 559 306 559 306 588.5 279 c 128,-1,6
 618 252 618 252 712 252 c 2,7,-1
 892 252 l 1,8,-1
 892 0 l 1,9,-1
 590 0 l 2,10,11
 377 0 377 0 290 85 c 128,-1,12
 203 170 203 170 203 384 c 2,13,-1
 203 861 l 1,14,-1
 24 861 l 1,15,-1
 24 1113 l 1,16,-1
 203 1113 l 1,17,-1
 203 1425 l 1,18,-1
 559 1425 l 1,19,-1
 559 1113 l 1,0,-1
EndSplineSet
EndChar
StartChar: u
Encoding: 117 117 88
Width: 1449
VWidth: 3555
Flags: W
HStem: -28 266<455 745.567> 1093 20G<160 519 917 1272>
VStem: 160 359<403.697 1113> 917 355<0 160 351.326 1113>
Fore
160 1113 m 1,0,-1
 519 1113 l 1,1,-1
 519 1003 l 2,2,3
 519 953 519 953 519 895.5 c 128,-1,4
 519 838 519 838 516 771 c 2,5,-1
 516 590 l 2,6,7
 516 458 516 458 522.5 400 c 128,-1,8
 529 342 529 342 540 309 c 1,9,10
 594 238 594 238 682 238 c 0,11,12
 797 238 797 238 857 325.5 c 128,-1,13
 917 413 917 413 917 562 c 2,14,-1
 917 1113 l 1,15,-1
 1272 1113 l 1,16,-1
 1272 0 l 1,17,-1
 917 0 l 1,18,-1
 917 160 l 1,19,20
 771 -28 771 -28 547 -28 c 0,21,22
 363 -28 363 -28 261.5 89.5 c 128,-1,23
 160 207 160 207 160 434 c 2,24,-1
 160 1113 l 1,0,-1
EndSplineSet
EndChar
StartChar: v
Encoding: 118 118 89
Width: 1321
VWidth: 3555
Flags: W
HStem: 0 21G<457.147 868.871> 1093 20G<28 391.214 931.76 1299>
Fore
384 1113 m 1,0,-1
 661 345 l 1,1,-1
 939 1113 l 1,2,-1
 1299 1113 l 1,3,-1
 861 0 l 1,4,-1
 465 0 l 1,5,-1
 28 1113 l 1,6,-1
 384 1113 l 1,0,-1
EndSplineSet
EndChar
StartChar: w
Encoding: 119 119 90
Width: 1876
VWidth: 3555
Flags: W
HStem: 0 21G<360.771 757.869 1122.08 1522.18> 1093 20G<75 424.714 788 1092.86 1459.9 1805>
Fore
420 1113 m 1,0,-1
 601 345 l 1,1,-1
 793 1113 l 1,2,-1
 1088 1113 l 1,3,-1
 1272 356 l 1,4,-1
 1465 1113 l 1,5,-1
 1805 1113 l 1,6,-1
 1517 0 l 1,7,-1
 1127 0 l 1,8,-1
 939 764 l 1,9,-1
 753 0 l 1,10,-1
 366 0 l 1,11,-1
 75 1113 l 1,12,-1
 420 1113 l 1,0,-1
EndSplineSet
EndChar
StartChar: x
Encoding: 120 120 91
Width: 1310
VWidth: 3555
Flags: W
HStem: 0 21G<28 423.864 888.852 1279> 1093 20G<54 444.515 868.182 1259>
Fore
54 1113 m 1,0,-1
 431 1113 l 1,1,-1
 654 783 l 1,2,-1
 882 1113 l 1,3,-1
 1259 1113 l 1,4,-1
 861 569 l 1,5,-1
 1279 0 l 1,6,-1
 903 0 l 1,7,-1
 654 352 l 1,8,-1
 410 0 l 1,9,-1
 28 0 l 1,10,-1
 451 569 l 1,11,-1
 54 1113 l 1,0,-1
EndSplineSet
EndChar
StartChar: y
Encoding: 121 121 92
Width: 1321
VWidth: 3555
Flags: W
HStem: -441 234<203 444.583> 1093 20G<24 387.931 925.289 1286>
Fore
380 1113 m 1,0,-1
 679 359 l 1,1,-1
 932 1113 l 1,2,-1
 1286 1113 l 1,3,-1
 821 -102 l 2,4,5
 750 -295 750 -295 656 -368 c 128,-1,6
 562 -441 562 -441 413 -441 c 2,7,-1
 203 -441 l 1,8,-1
 203 -207 l 1,9,-1
 312 -207 l 2,10,11
 401 -207 401 -207 446 -178 c 128,-1,12
 491 -149 491 -149 512 -75 c 2,13,-1
 523 -47 l 1,14,-1
 24 1113 l 1,15,-1
 380 1113 l 1,0,-1
EndSplineSet
EndChar
StartChar: z
Encoding: 122 122 93
Width: 1182
VWidth: 3555
Flags: W
HStem: 0 252<502 1088> 861 252<118 675>
Fore
1088 1113 m 1,0,-1
 1088 868 l 1,1,-1
 502 252 l 1,2,-1
 1088 252 l 1,3,-1
 1088 0 l 1,4,-1
 92 0 l 1,5,-1
 92 245 l 1,6,-1
 675 861 l 1,7,-1
 118 861 l 1,8,-1
 118 1113 l 1,9,-1
 1088 1113 l 1,0,-1
EndSplineSet
EndChar
StartChar: braceleft
Encoding: 123 123 94
Width: 1449
VWidth: 3555
Flags: W
HStem: -335 229<1025.34 1194> 495 217<252 491.683> 1319 228<943.814 977 977 1194>
VStem: 562 337<22.9297 421.789 780.374 1275.05>
Fore
1194 -335 m 1,0,-1
 977 -335 l 2,1,2
 760 -335 760 -335 661 -247.5 c 128,-1,3
 562 -160 562 -160 562 31 c 2,4,-1
 562 224 l 2,5,6
 562 373 562 373 508.5 434 c 128,-1,7
 455 495 455 495 312 495 c 2,8,-1
 252 495 l 1,9,-1
 252 712 l 1,10,-1
 312 712 l 2,11,12
 455 712 455 712 508.5 768.5 c 128,-1,13
 562 825 562 825 562 974 c 2,14,-1
 562 1180 l 2,15,16
 562 1373 562 1373 661 1460 c 128,-1,17
 760 1547 760 1547 977 1547 c 2,18,-1
 1194 1547 l 1,19,-1
 1194 1319 l 1,20,-1
 1123 1319 l 2,21,22
 984 1319 984 1319 941.5 1276.5 c 128,-1,23
 899 1234 899 1234 899 1095 c 2,24,-1
 899 929 l 2,25,26
 899 767 899 767 855 700.5 c 128,-1,27
 811 634 811 634 705 608 c 1,28,29
 814 580 814 580 856.5 510.5 c 128,-1,30
 899 441 899 441 899 285 c 2,31,-1
 899 125 l 2,32,33
 899 50 899 50 908 5 c 128,-1,34
 917 -40 917 -40 942 -64.5 c 128,-1,35
 967 -89 967 -89 1011 -97.5 c 128,-1,36
 1055 -106 1055 -106 1123 -106 c 2,37,-1
 1194 -106 l 1,38,-1
 1194 -335 l 1,0,-1
EndSplineSet
EndChar
StartChar: bar
Encoding: 124 124 95
Width: 743
VWidth: 3555
Flags: W
VStem: 260 228<-484 1554>
Fore
488 -484 m 1,0,-1
 260 -484 l 1,1,-1
 260 1554 l 1,2,-1
 488 1554 l 1,3,-1
 488 -484 l 1,0,-1
EndSplineSet
EndChar
StartChar: braceright
Encoding: 125 125 96
Width: 1449
VWidth: 3555
Flags: W
HStem: -335 229<252 420.566> 495 217<949.302 1194> 1319 228<252 420.566>
VStem: 543 339<19.7949 426.031 776.967 1195.5>
Fore
319 -106 m 2,0,1
 391 -106 391 -106 435 -97.5 c 128,-1,2
 479 -89 479 -89 502.5 -64.5 c 128,-1,3
 526 -40 526 -40 534.5 5 c 128,-1,4
 543 50 543 50 543 125 c 2,5,-1
 543 285 l 2,6,7
 543 441 543 441 590 510.5 c 128,-1,8
 637 580 637 580 746 608 c 1,9,10
 637 634 637 634 590 700.5 c 128,-1,11
 543 767 543 767 543 929 c 2,12,-1
 543 1095 l 2,13,14
 543 1167 543 1167 534.5 1209.5 c 128,-1,15
 526 1252 526 1252 502.5 1277 c 128,-1,16
 479 1302 479 1302 435 1310.5 c 128,-1,17
 391 1319 391 1319 319 1319 c 2,18,-1
 252 1319 l 1,19,-1
 252 1547 l 1,20,-1
 469 1547 l 2,21,22
 686 1547 686 1547 784 1460 c 128,-1,23
 882 1373 882 1373 882 1180 c 2,24,-1
 882 974 l 2,25,26
 882 825 882 825 933 768.5 c 128,-1,27
 984 712 984 712 1134 712 c 2,28,-1
 1194 712 l 1,29,-1
 1194 495 l 1,30,-1
 1134 495 l 2,31,32
 984 495 984 495 933 434 c 128,-1,33
 882 373 882 373 882 224 c 2,34,-1
 882 31 l 2,35,36
 882 -160 882 -160 784 -247.5 c 128,-1,37
 686 -335 686 -335 469 -335 c 2,38,-1
 252 -335 l 1,39,-1
 252 -106 l 1,40,-1
 319 -106 l 2,0,1
EndSplineSet
EndChar
StartChar: asciitilde
Encoding: 126 126 97
Width: 1701
VWidth: 3555
Flags: W
HStem: 455 231<929.36 1297.33> 590 231<407.327 772.729>
Fore
1486 601 m 1,0,1
 1384 523 1384 523 1294.5 489 c 128,-1,2
 1205 455 1205 455 1109 455 c 0,3,4
 998 455 998 455 865 512 c 0,5,6
 842 519 842 519 838 523 c 1,7,8
 818 529 l 2,9,10
 658 590 658 590 569 590 c 0,11,12
 488 590 488 590 398.5 553 c 128,-1,13
 309 516 309 516 214 434 c 1,14,-1
 214 672 l 1,15,16
 319 753 319 753 410.5 787 c 128,-1,17
 502 821 502 821 594 821 c 0,18,19
 705 821 705 821 842 764 c 0,20,21
 865 757 865 757 868 753 c 1,22,23
 871 753 871 753 885 746 c 0,24,25
 1045 686 1045 686 1134 686 c 256,26,27
 1224 686 1224 686 1305.5 723 c 128,-1,28
 1387 760 1387 760 1486 845 c 1,29,-1
 1486 601 l 1,0,1
EndSplineSet
EndChar
StartChar: Adieresis
Encoding: 196 196 98
Width: 1574
VWidth: 3555
Flags: W
HStem: 0 21G<10 398.38 1173.21 1564> 271 269<583 988> 1463 20G<551.596 1021.42> 1639 248<448 682 838 1073>
VStem: 448 234<1639 1887> 838 235<1639 1887>
Fore
491 271 m 1,0,-1
 391 0 l 1,1,-1
 10 0 l 1,2,-1
 559 1483 l 1,3,-1
 1014 1483 l 1,4,-1
 1564 0 l 1,5,-1
 1180 0 l 1,6,-1
 1088 271 l 1,7,-1
 491 271 l 1,0,-1
988 540 m 1,8,-1
 790 1134 l 1,9,-1
 583 540 l 1,10,-1
 988 540 l 1,8,-1
682 1887 m 1,11,-1
 682 1639 l 1,12,-1
 448 1639 l 1,13,-1
 448 1887 l 1,14,-1
 682 1887 l 1,11,-1
1073 1887 m 1,15,-1
 1073 1639 l 1,16,-1
 838 1639 l 1,17,-1
 838 1887 l 1,18,-1
 1073 1887 l 1,15,-1
EndSplineSet
EndChar
StartChar: Aring
Encoding: 197 197 99
Width: 1574
VWidth: 3555
Flags: W
HStem: 0 21G<10 398.38 1173.21 1564> 271 269<583 988> 1731 161<696.677 874.326>
VStem: 505 153<1530.21 1677.35> 913 153<1509.99 1676.51>
Fore
1564 0 m 1,0,-1
 1180 0 l 1,1,-1
 1088 271 l 1,2,-1
 491 271 l 1,3,-1
 391 0 l 1,4,-1
 10 0 l 1,5,-1
 543 1455 l 1,6,7
 529 1486 529 1486 517 1523.5 c 128,-1,8
 505 1561 505 1561 505 1604 c 0,9,10
 505 1660 505 1660 526 1712 c 128,-1,11
 547 1764 547 1764 586 1804.5 c 128,-1,12
 625 1845 625 1845 677 1868.5 c 128,-1,13
 729 1892 729 1892 790 1892 c 0,14,15
 842 1892 842 1892 894 1868.5 c 128,-1,16
 946 1845 946 1845 983.5 1804.5 c 128,-1,17
 1021 1764 1021 1764 1043.5 1712 c 128,-1,18
 1066 1660 1066 1660 1066 1604 c 0,19,20
 1066 1514 1066 1514 1024 1455 c 1,21,-1
 1564 0 l 1,0,-1
658 1604 m 256,22,23
 658 1550 658 1550 695.5 1513 c 128,-1,24
 733 1476 733 1476 790 1476 c 0,25,26
 842 1476 842 1476 877.5 1513 c 128,-1,27
 913 1550 913 1550 913 1604 c 256,28,29
 913 1656 913 1656 875.5 1693.5 c 128,-1,30
 838 1731 838 1731 790 1731 c 0,31,32
 733 1731 733 1731 695.5 1693.5 c 128,-1,33
 658 1656 658 1656 658 1604 c 256,22,23
988 540 m 1,34,-1
 790 1134 l 1,35,-1
 583 540 l 1,36,-1
 988 540 l 1,34,-1
EndSplineSet
EndChar
StartChar: Ccedilla
Encoding: 199 199 100
Width: 1492
VWidth: 3555
Flags: W
HStem: -398 150<736.441 904.418> -28 28<835.213 967> 1234 273<731.351 1163.4>
VStem: 99 399<497.597 981.515> 913 169<-235.961 -92.3695>
Fore
1361 82 m 1,0,1
 1153 -28 1153 -28 903 -28 c 0,2,3
 719 -28 719 -28 569.5 25 c 128,-1,4
 420 78 420 78 317 178 c 128,-1,5
 214 278 214 278 156.5 420 c 128,-1,6
 99 562 99 562 99 740 c 256,7,8
 99 917 99 917 156.5 1059 c 128,-1,9
 214 1201 214 1201 317 1301 c 128,-1,10
 420 1401 420 1401 569.5 1454 c 128,-1,11
 719 1507 719 1507 903 1507 c 0,12,13
 1153 1507 1153 1507 1361 1397 c 1,14,-1
 1361 1092 l 1,15,16
 1255 1167 1255 1167 1152 1200.5 c 128,-1,17
 1049 1234 1049 1234 936 1234 c 0,18,19
 733 1234 733 1234 615.5 1100.5 c 128,-1,20
 498 967 498 967 498 740 c 256,21,22
 498 512 498 512 615.5 378.5 c 128,-1,23
 733 245 733 245 936 245 c 0,24,25
 1049 245 1049 245 1152 278.5 c 128,-1,26
 1255 312 1255 312 1361 387 c 1,27,-1
 1361 82 l 1,0,1
967 0 m 1,28,29
 1082 -132 1082 -132 1082 -214 c 0,30,31
 1082 -398 1082 -398 832 -398 c 0,32,33
 786 -398 786 -398 732.5 -391 c 128,-1,34
 679 -384 679 -384 634 -373 c 1,35,-1
 628 -220 l 1,36,37
 736 -248 736 -248 797 -248 c 0,38,39
 913 -248 913 -248 913 -167 c 0,40,41
 913 -118 913 -118 832 0 c 1,42,-1
 967 0 l 1,28,29
EndSplineSet
EndChar
StartChar: Eacute
Encoding: 201 201 101
Width: 1385
VWidth: 3555
Flags: W
HStem: 0 288<569 1238> 628 285<569 1180> 1194 289<569 1224>
VStem: 184 385<288 628 913 1194>
Fore
1224 1483 m 1,0,-1
 1224 1194 l 1,1,-1
 569 1194 l 1,2,-1
 569 913 l 1,3,-1
 1180 913 l 1,4,-1
 1180 628 l 1,5,-1
 569 628 l 1,6,-1
 569 288 l 1,7,-1
 1238 288 l 1,8,-1
 1238 0 l 1,9,-1
 184 0 l 1,10,-1
 184 1483 l 1,11,-1
 1224 1483 l 1,0,-1
1017 1887 m 1,12,-1
 736 1621 l 1,13,-1
 540 1621 l 1,14,-1
 736 1887 l 1,15,-1
 1017 1887 l 1,12,-1
EndSplineSet
EndChar
StartChar: Ntilde
Encoding: 209 209 102
Width: 1697
VWidth: 3555
Flags: W
HStem: 0 21G<184 543 1077.28 1517> 1463 20G<184 621.707 1156 1517> 1621 150<910.914 1012.43> 1738 149<617.865 740.389>
VStem: 184 359<0 1017> 469 139<1621 1732.47> 1024 139<1778.42 1869.17 1869.83 1887> 1156 361<465 1483>
Fore
611 1483 m 1,0,-1
 1156 465 l 1,1,-1
 1156 1483 l 1,2,-1
 1517 1483 l 1,3,-1
 1517 0 l 1,4,-1
 1088 0 l 1,5,-1
 543 1017 l 1,6,-1
 543 0 l 1,7,-1
 184 0 l 1,8,-1
 184 1483 l 1,9,-1
 611 1483 l 1,0,-1
760 1703 m 2,10,11
 757 1706 757 1706 755 1706 c 128,-1,12
 753 1706 753 1706 750 1710 c 0,13,14
 700 1738 700 1738 679 1738 c 0,15,16
 608 1738 608 1738 608 1625 c 2,17,-1
 608 1621 l 1,18,-1
 469 1621 l 1,19,-1
 469 1649 l 2,20,21
 469 1757 469 1757 522.5 1822 c 128,-1,22
 576 1887 576 1887 665 1887 c 0,23,24
 726 1887 726 1887 814 1838 c 2,25,-1
 871 1798 l 2,26,27
 917 1771 917 1771 946 1771 c 0,28,29
 1024 1771 1024 1771 1024 1887 c 1,30,-1
 1163 1887 l 1,31,32
 1163 1880 1163 1880 1161.5 1869.5 c 128,-1,33
 1160 1859 1160 1859 1160 1856 c 0,34,35
 1160 1753 1160 1753 1106 1687 c 128,-1,36
 1052 1621 1052 1621 963 1621 c 0,37,38
 924 1621 924 1621 889 1631.5 c 128,-1,39
 854 1642 854 1642 818 1672 c 1,40,-1
 760 1703 l 2,10,11
EndSplineSet
EndChar
StartChar: Odieresis
Encoding: 214 214 103
Width: 1727
VWidth: 3555
Flags: W
HStem: -28 273<686.71 1039.81> 1234 273<686.71 1039.81> 1639 248<529 764 920 1156>
VStem: 99 399<469.028 1010.2> 529 235<1639 1887> 920 236<1639 1887> 1234 391<471.584 1007.65>
Fore
868 1234 m 0,0,1
 686 1234 686 1234 592 1104 c 128,-1,2
 498 974 498 974 498 740 c 256,3,4
 498 505 498 505 592 375 c 128,-1,5
 686 245 686 245 868 245 c 0,6,7
 1038 245 1038 245 1136 375 c 128,-1,8
 1234 505 1234 505 1234 740 c 256,9,10
 1234 974 1234 974 1136 1104 c 128,-1,11
 1038 1234 1038 1234 868 1234 c 0,0,1
868 1507 m 256,12,13
 1231 1507 1231 1507 1428 1304.5 c 128,-1,14
 1625 1102 1625 1102 1625 740 c 256,15,16
 1625 377 1625 377 1428 174.5 c 128,-1,17
 1231 -28 1231 -28 868 -28 c 256,18,19
 505 -28 505 -28 302 174.5 c 128,-1,20
 99 377 99 377 99 740 c 256,21,22
 99 1102 99 1102 302 1304.5 c 128,-1,23
 505 1507 505 1507 868 1507 c 256,12,13
764 1887 m 1,24,-1
 764 1639 l 1,25,-1
 529 1639 l 1,26,-1
 529 1887 l 1,27,-1
 764 1887 l 1,24,-1
1156 1887 m 1,28,-1
 1156 1639 l 1,29,-1
 920 1639 l 1,30,-1
 920 1887 l 1,31,-1
 1156 1887 l 1,28,-1
EndSplineSet
EndChar
StartChar: Udieresis
Encoding: 220 220 104
Width: 1649
VWidth: 3555
Flags: W
HStem: -28 276<670.501 981.825> 1463 20G<184 569 1085 1465> 1639 248<488 722 878 1113>
VStem: 184 385<366.976 1483> 488 234<1639 1887> 878 235<1639 1887> 1085 380<358.686 1483>
Fore
569 1483 m 1,0,-1
 569 594 l 2,1,2
 569 413 569 413 629 330.5 c 128,-1,3
 689 248 689 248 825 248 c 256,4,5
 960 248 960 248 1022.5 330.5 c 128,-1,6
 1085 413 1085 413 1085 594 c 2,7,-1
 1085 1483 l 1,8,-1
 1465 1483 l 1,9,-1
 1465 594 l 2,10,11
 1465 281 1465 281 1310.5 126.5 c 128,-1,12
 1156 -28 1156 -28 825 -28 c 0,13,14
 184 -28 184 -28 184 594 c 2,15,-1
 184 1483 l 1,16,-1
 569 1483 l 1,0,-1
722 1887 m 1,17,-1
 722 1639 l 1,18,-1
 488 1639 l 1,19,-1
 488 1887 l 1,20,-1
 722 1887 l 1,17,-1
1113 1887 m 1,21,-1
 1113 1639 l 1,22,-1
 878 1639 l 1,23,-1
 878 1887 l 1,24,-1
 1113 1887 l 1,21,-1
EndSplineSet
EndChar
StartChar: aacute
Encoding: 225 225 105
Width: 1371
VWidth: 3555
Flags: W
HStem: -28 235<387 688.648> 502 210<494.063 858> 899 238<474.691 794.182>
VStem: 858 354<0 163 310.5 502 712 844.179>
Fore
668 502 m 1,0,1
 448 502 448 502 448 352 c 0,2,3
 448 285 448 285 490.5 246 c 128,-1,4
 533 207 533 207 615 207 c 0,5,6
 719 207 719 207 788.5 279.5 c 128,-1,7
 858 352 858 352 858 462 c 2,8,-1
 858 502 l 1,9,-1
 668 502 l 1,0,1
1212 0 m 1,10,-1
 858 0 l 1,11,-1
 858 163 l 1,12,13
 783 64 783 64 692 18 c 128,-1,14
 601 -28 601 -28 472 -28 c 0,15,16
 302 -28 302 -28 193.5 73 c 128,-1,17
 85 174 85 174 85 335 c 0,18,19
 85 529 85 529 220.5 620.5 c 128,-1,20
 356 712 356 712 644 712 c 2,21,-1
 858 712 l 1,22,-1
 858 740 l 2,23,24
 858 825 858 825 790 862 c 128,-1,25
 722 899 722 899 580 899 c 0,26,27
 465 899 465 899 368 880 c 128,-1,28
 271 861 271 861 184 811 c 1,29,-1
 184 1085 l 1,30,31
 299 1109 299 1109 414 1123 c 128,-1,32
 529 1137 529 1137 644 1137 c 0,33,34
 946 1137 946 1137 1079 1018 c 128,-1,35
 1212 899 1212 899 1212 634 c 2,36,-1
 1212 0 l 1,10,-1
1109 1625 m 1,37,-1
 743 1252 l 1,38,-1
 547 1252 l 1,39,-1
 828 1625 l 1,40,-1
 1109 1625 l 1,37,-1
EndSplineSet
EndChar
StartChar: agrave
Encoding: 224 224 106
Width: 1371
VWidth: 3555
Flags: W
HStem: -28 235<387 688.648> 502 210<494.063 858> 899 238<474.691 794.182>
VStem: 858 354<0 163 310.5 502 712 844.179>
Fore
668 502 m 1,0,1
 448 502 448 502 448 352 c 0,2,3
 448 285 448 285 490.5 246 c 128,-1,4
 533 207 533 207 615 207 c 0,5,6
 719 207 719 207 788.5 279.5 c 128,-1,7
 858 352 858 352 858 462 c 2,8,-1
 858 502 l 1,9,-1
 668 502 l 1,0,1
1212 0 m 1,10,-1
 858 0 l 1,11,-1
 858 163 l 1,12,13
 783 64 783 64 692 18 c 128,-1,14
 601 -28 601 -28 472 -28 c 0,15,16
 302 -28 302 -28 193.5 73 c 128,-1,17
 85 174 85 174 85 335 c 0,18,19
 85 529 85 529 220.5 620.5 c 128,-1,20
 356 712 356 712 644 712 c 2,21,-1
 858 712 l 1,22,-1
 858 740 l 2,23,24
 858 825 858 825 790 862 c 128,-1,25
 722 899 722 899 580 899 c 0,26,27
 465 899 465 899 368 880 c 128,-1,28
 271 861 271 861 184 811 c 1,29,-1
 184 1085 l 1,30,31
 299 1109 299 1109 414 1123 c 128,-1,32
 529 1137 529 1137 644 1137 c 0,33,34
 946 1137 946 1137 1079 1018 c 128,-1,35
 1212 899 1212 899 1212 634 c 2,36,-1
 1212 0 l 1,10,-1
838 1252 m 1,37,-1
 648 1252 l 1,38,-1
 278 1625 l 1,39,-1
 559 1625 l 1,40,-1
 838 1252 l 1,37,-1
EndSplineSet
EndChar
StartChar: acircumflex
Encoding: 226 226 107
Width: 1371
VWidth: 3555
Flags: W
HStem: -28 235<387 688.648> 502 210<494.063 858> 899 238<474.691 794.182>
VStem: 858 354<0 163 310.5 502 712 844.179>
Fore
668 502 m 1,0,1
 448 502 448 502 448 352 c 0,2,3
 448 285 448 285 490.5 246 c 128,-1,4
 533 207 533 207 615 207 c 0,5,6
 719 207 719 207 788.5 279.5 c 128,-1,7
 858 352 858 352 858 462 c 2,8,-1
 858 502 l 1,9,-1
 668 502 l 1,0,1
1212 0 m 1,10,-1
 858 0 l 1,11,-1
 858 163 l 1,12,13
 783 64 783 64 692 18 c 128,-1,14
 601 -28 601 -28 472 -28 c 0,15,16
 302 -28 302 -28 193.5 73 c 128,-1,17
 85 174 85 174 85 335 c 0,18,19
 85 529 85 529 220.5 620.5 c 128,-1,20
 356 712 356 712 644 712 c 2,21,-1
 858 712 l 1,22,-1
 858 740 l 2,23,24
 858 825 858 825 790 862 c 128,-1,25
 722 899 722 899 580 899 c 0,26,27
 465 899 465 899 368 880 c 128,-1,28
 271 861 271 861 184 811 c 1,29,-1
 184 1085 l 1,30,31
 299 1109 299 1109 414 1123 c 128,-1,32
 529 1137 529 1137 644 1137 c 0,33,34
 946 1137 946 1137 1079 1018 c 128,-1,35
 1212 899 1212 899 1212 634 c 2,36,-1
 1212 0 l 1,10,-1
814 1625 m 1,37,-1
 1066 1252 l 1,38,-1
 892 1252 l 1,39,-1
 696 1476 l 1,40,-1
 495 1252 l 1,41,-1
 319 1252 l 1,42,-1
 573 1625 l 1,43,-1
 814 1625 l 1,37,-1
EndSplineSet
EndChar
StartChar: adieresis
Encoding: 228 228 108
Width: 1371
VWidth: 3555
Flags: W
HStem: -28 235<387 688.648> 502 210<494.063 858> 899 238<474.691 794.182> 1326 249<380 615 771 1007>
VStem: 380 235<1326 1575> 771 236<1326 1575> 858 354<0 163 310.5 502 712 844.179>
Fore
668 502 m 1,0,1
 448 502 448 502 448 352 c 0,2,3
 448 285 448 285 490.5 246 c 128,-1,4
 533 207 533 207 615 207 c 0,5,6
 719 207 719 207 788.5 279.5 c 128,-1,7
 858 352 858 352 858 462 c 2,8,-1
 858 502 l 1,9,-1
 668 502 l 1,0,1
1212 0 m 1,10,-1
 858 0 l 1,11,-1
 858 163 l 1,12,13
 783 64 783 64 692 18 c 128,-1,14
 601 -28 601 -28 472 -28 c 0,15,16
 302 -28 302 -28 193.5 73 c 128,-1,17
 85 174 85 174 85 335 c 0,18,19
 85 529 85 529 220.5 620.5 c 128,-1,20
 356 712 356 712 644 712 c 2,21,-1
 858 712 l 1,22,-1
 858 740 l 2,23,24
 858 825 858 825 790 862 c 128,-1,25
 722 899 722 899 580 899 c 0,26,27
 465 899 465 899 368 880 c 128,-1,28
 271 861 271 861 184 811 c 1,29,-1
 184 1085 l 1,30,31
 299 1109 299 1109 414 1123 c 128,-1,32
 529 1137 529 1137 644 1137 c 0,33,34
 946 1137 946 1137 1079 1018 c 128,-1,35
 1212 899 1212 899 1212 634 c 2,36,-1
 1212 0 l 1,10,-1
615 1575 m 1,37,-1
 615 1326 l 1,38,-1
 380 1326 l 1,39,-1
 380 1575 l 1,40,-1
 615 1575 l 1,37,-1
1007 1575 m 1,41,-1
 1007 1326 l 1,42,-1
 771 1326 l 1,43,-1
 771 1575 l 1,44,-1
 1007 1575 l 1,41,-1
EndSplineSet
EndChar
StartChar: atilde
Encoding: 227 227 109
Width: 1371
VWidth: 3555
Flags: W
HStem: -28 235<387 688.648> 502 210<494.063 858> 899 238<474.691 794.182> 1299 156<791.463 885.192> 1425 156<499.198 587.834>
VStem: 349 139<1302 1418.12> 858 354<0 163 310.5 502 712 844.179> 903 139<1486.97 1578>
Fore
668 502 m 1,0,1
 448 502 448 502 448 352 c 0,2,3
 448 285 448 285 490.5 246 c 128,-1,4
 533 207 533 207 615 207 c 0,5,6
 719 207 719 207 788.5 279.5 c 128,-1,7
 858 352 858 352 858 462 c 2,8,-1
 858 502 l 1,9,-1
 668 502 l 1,0,1
1212 0 m 1,10,-1
 858 0 l 1,11,-1
 858 163 l 1,12,13
 783 64 783 64 692 18 c 128,-1,14
 601 -28 601 -28 472 -28 c 0,15,16
 302 -28 302 -28 193.5 73 c 128,-1,17
 85 174 85 174 85 335 c 0,18,19
 85 529 85 529 220.5 620.5 c 128,-1,20
 356 712 356 712 644 712 c 2,21,-1
 858 712 l 1,22,-1
 858 740 l 2,23,24
 858 825 858 825 790 862 c 128,-1,25
 722 899 722 899 580 899 c 0,26,27
 465 899 465 899 368 880 c 128,-1,28
 271 861 271 861 184 811 c 1,29,-1
 184 1085 l 1,30,31
 299 1109 299 1109 414 1123 c 128,-1,32
 529 1137 529 1137 644 1137 c 0,33,34
 946 1137 946 1137 1079 1018 c 128,-1,35
 1212 899 1212 899 1212 634 c 2,36,-1
 1212 0 l 1,10,-1
641 1391 m 1,37,-1
 634 1397 l 1,38,39
 583 1425 583 1425 559 1425 c 0,40,41
 488 1425 488 1425 488 1309 c 2,42,-1
 488 1302 l 1,43,-1
 349 1302 l 1,44,45
 349 1432 349 1432 400 1506.5 c 128,-1,46
 451 1581 451 1581 543 1581 c 0,47,48
 576 1581 576 1581 613.5 1567.5 c 128,-1,49
 651 1554 651 1554 693 1529 c 1,50,-1
 750 1483 l 2,51,52
 797 1455 797 1455 825 1455 c 0,53,54
 861 1455 861 1455 882 1486 c 128,-1,55
 903 1517 903 1517 903 1571 c 2,56,-1
 903 1578 l 1,57,-1
 1042 1578 l 1,58,59
 1042 1448 1042 1448 989 1373.5 c 128,-1,60
 936 1299 936 1299 842 1299 c 0,61,62
 804 1299 804 1299 773.5 1309 c 128,-1,63
 743 1319 743 1319 696 1351 c 2,64,-1
 641 1391 l 1,37,-1
EndSplineSet
EndChar
StartChar: aring
Encoding: 229 229 110
Width: 1371
VWidth: 3555
Flags: W
HStem: -28 235<387 688.648> 502 210<494.063 858> 899 238<474.691 794.182> 1238 156<604.676 784.263> 1649 153<604.676 752.811>
VStem: 410 156<1429.7 1614.84> 825 152<1429.7 1596.45> 858 354<0 163 310.5 502 712 844.179>
Fore
668 502 m 1,0,1
 448 502 448 502 448 352 c 0,2,3
 448 285 448 285 490.5 246 c 128,-1,4
 533 207 533 207 615 207 c 0,5,6
 719 207 719 207 788.5 279.5 c 128,-1,7
 858 352 858 352 858 462 c 2,8,-1
 858 502 l 1,9,-1
 668 502 l 1,0,1
1212 0 m 1,10,-1
 858 0 l 1,11,-1
 858 163 l 1,12,13
 783 64 783 64 692 18 c 128,-1,14
 601 -28 601 -28 472 -28 c 0,15,16
 302 -28 302 -28 193.5 73 c 128,-1,17
 85 174 85 174 85 335 c 0,18,19
 85 529 85 529 220.5 620.5 c 128,-1,20
 356 712 356 712 644 712 c 2,21,-1
 858 712 l 1,22,-1
 858 740 l 2,23,24
 858 825 858 825 790 862 c 128,-1,25
 722 899 722 899 580 899 c 0,26,27
 465 899 465 899 368 880 c 128,-1,28
 271 861 271 861 184 811 c 1,29,-1
 184 1085 l 1,30,31
 299 1109 299 1109 414 1123 c 128,-1,32
 529 1137 529 1137 644 1137 c 0,33,34
 946 1137 946 1137 1079 1018 c 128,-1,35
 1212 899 1212 899 1212 634 c 2,36,-1
 1212 0 l 1,10,-1
566 1526 m 0,37,38
 566 1469 566 1469 603.5 1431.5 c 128,-1,39
 641 1394 641 1394 696 1394 c 0,40,41
 746 1394 746 1394 785.5 1431.5 c 128,-1,42
 825 1469 825 1469 825 1526 c 0,43,44
 825 1575 825 1575 785.5 1612 c 128,-1,45
 746 1649 746 1649 696 1649 c 0,46,47
 641 1649 641 1649 603.5 1612 c 128,-1,48
 566 1575 566 1575 566 1526 c 0,37,38
410 1526 m 0,49,50
 410 1639 410 1639 493 1720.5 c 128,-1,51
 576 1802 576 1802 696 1802 c 0,52,53
 750 1802 750 1802 802 1781 c 128,-1,54
 854 1760 854 1760 893 1723 c 128,-1,55
 932 1686 932 1686 954.5 1633.5 c 128,-1,56
 977 1581 977 1581 977 1526 c 0,57,58
 977 1404 977 1404 892 1321 c 128,-1,59
 807 1238 807 1238 696 1238 c 0,60,61
 576 1238 576 1238 493 1321 c 128,-1,62
 410 1404 410 1404 410 1526 c 0,49,50
EndSplineSet
EndChar
StartChar: ccedilla
Encoding: 231 231 111
Width: 1204
VWidth: 3555
Flags: W
HStem: -398 150<544.362 713.06> -28 28<646.653 774> 882 255<585.919 954.342>
VStem: 85 373<356.665 748.379> 722 167<-233.243 -92.3695>
Fore
1066 790 m 1,0,1
 998 838 998 838 926 860 c 128,-1,2
 854 882 854 882 771 882 c 0,3,4
 618 882 618 882 538 798.5 c 128,-1,5
 458 715 458 715 458 554 c 256,6,7
 458 394 458 394 538 309 c 128,-1,8
 618 224 618 224 771 224 c 0,9,10
 858 224 858 224 932.5 249 c 128,-1,11
 1007 274 1007 274 1066 319 c 1,12,-1
 1066 31 l 1,13,14
 984 0 984 0 899 -14 c 128,-1,15
 814 -28 814 -28 729 -28 c 0,16,17
 427 -28 427 -28 256 125 c 128,-1,18
 85 278 85 278 85 554 c 256,19,20
 85 832 85 832 256 984.5 c 128,-1,21
 427 1137 427 1137 729 1137 c 0,22,23
 906 1137 906 1137 1066 1082 c 1,24,-1
 1066 790 l 1,0,1
774 0 m 1,25,26
 889 -132 889 -132 889 -214 c 0,27,28
 889 -398 889 -398 641 -398 c 0,29,30
 594 -398 594 -398 541 -391 c 128,-1,31
 488 -384 488 -384 441 -373 c 1,32,-1
 437 -220 l 1,33,34
 543 -248 543 -248 604 -248 c 0,35,36
 722 -248 722 -248 722 -167 c 0,37,38
 722 -118 722 -118 641 0 c 1,39,-1
 774 0 l 1,25,26
EndSplineSet
EndChar
StartChar: eacute
Encoding: 233 233 112
Width: 1378
VWidth: 3555
Flags: W
HStem: -28 235<565.062 936.097> 458 217<455 913> 899 238<549.019 837.427>
Fore
1279 458 m 1,0,-1
 451 458 l 1,1,2
 472 207 472 207 757 207 c 0,3,4
 977 207 977 207 1231 342 c 1,5,-1
 1231 68 l 1,6,7
 1102 17 1102 17 978 -5.5 c 128,-1,8
 854 -28 854 -28 726 -28 c 0,9,10
 424 -28 424 -28 254.5 125 c 128,-1,11
 85 278 85 278 85 554 c 256,12,13
 85 832 85 832 251 984.5 c 128,-1,14
 417 1137 417 1137 705 1137 c 0,15,16
 963 1137 963 1137 1121 981 c 128,-1,17
 1279 825 1279 825 1279 559 c 2,18,-1
 1279 458 l 1,0,-1
913 675 m 1,19,20
 913 779 913 779 856.5 839 c 128,-1,21
 800 899 800 899 705 899 c 0,22,23
 597 899 597 899 533 844.5 c 128,-1,24
 469 790 469 790 455 675 c 1,25,-1
 913 675 l 1,19,20
1137 1625 m 1,26,-1
 771 1252 l 1,27,-1
 576 1252 l 1,28,-1
 858 1625 l 1,29,-1
 1137 1625 l 1,26,-1
EndSplineSet
EndChar
StartChar: egrave
Encoding: 232 232 113
Width: 1378
VWidth: 3555
Flags: W
HStem: -28 235<565.062 936.097> 458 217<455 913> 899 238<549.019 837.427>
Fore
1279 458 m 1,0,-1
 451 458 l 1,1,2
 472 207 472 207 757 207 c 0,3,4
 977 207 977 207 1231 342 c 1,5,-1
 1231 68 l 1,6,7
 1102 17 1102 17 978 -5.5 c 128,-1,8
 854 -28 854 -28 726 -28 c 0,9,10
 424 -28 424 -28 254.5 125 c 128,-1,11
 85 278 85 278 85 554 c 256,12,13
 85 832 85 832 251 984.5 c 128,-1,14
 417 1137 417 1137 705 1137 c 0,15,16
 963 1137 963 1137 1121 981 c 128,-1,17
 1279 825 1279 825 1279 559 c 2,18,-1
 1279 458 l 1,0,-1
913 675 m 1,19,20
 913 779 913 779 856.5 839 c 128,-1,21
 800 899 800 899 705 899 c 0,22,23
 597 899 597 899 533 844.5 c 128,-1,24
 469 790 469 790 455 675 c 1,25,-1
 913 675 l 1,19,20
868 1252 m 1,26,-1
 675 1252 l 1,27,-1
 306 1625 l 1,28,-1
 587 1625 l 1,29,-1
 868 1252 l 1,26,-1
EndSplineSet
EndChar
StartChar: ecircumflex
Encoding: 234 234 114
Width: 1378
VWidth: 3555
Flags: W
HStem: -28 235<565.062 936.097> 458 217<455 913> 899 238<549.019 837.427>
Fore
1279 458 m 1,0,-1
 451 458 l 1,1,2
 472 207 472 207 757 207 c 0,3,4
 977 207 977 207 1231 342 c 1,5,-1
 1231 68 l 1,6,7
 1102 17 1102 17 978 -5.5 c 128,-1,8
 854 -28 854 -28 726 -28 c 0,9,10
 424 -28 424 -28 254.5 125 c 128,-1,11
 85 278 85 278 85 554 c 256,12,13
 85 832 85 832 251 984.5 c 128,-1,14
 417 1137 417 1137 705 1137 c 0,15,16
 963 1137 963 1137 1121 981 c 128,-1,17
 1279 825 1279 825 1279 559 c 2,18,-1
 1279 458 l 1,0,-1
913 675 m 1,19,20
 913 779 913 779 856.5 839 c 128,-1,21
 800 899 800 899 705 899 c 0,22,23
 597 899 597 899 533 844.5 c 128,-1,24
 469 790 469 790 455 675 c 1,25,-1
 913 675 l 1,19,20
842 1625 m 1,26,-1
 1095 1252 l 1,27,-1
 920 1252 l 1,28,-1
 726 1476 l 1,29,-1
 523 1252 l 1,30,-1
 349 1252 l 1,31,-1
 601 1625 l 1,32,-1
 842 1625 l 1,26,-1
EndSplineSet
EndChar
StartChar: edieresis
Encoding: 235 235 115
Width: 1378
VWidth: 3555
Flags: W
HStem: -28 235<565.062 936.097> 458 217<455 913> 899 238<549.019 837.427> 1326 249<410 644 800 1035>
VStem: 410 234<1326 1575> 800 235<1326 1575>
Fore
1279 458 m 1,0,-1
 451 458 l 1,1,2
 472 207 472 207 757 207 c 0,3,4
 977 207 977 207 1231 342 c 1,5,-1
 1231 68 l 1,6,7
 1102 17 1102 17 978 -5.5 c 128,-1,8
 854 -28 854 -28 726 -28 c 0,9,10
 424 -28 424 -28 254.5 125 c 128,-1,11
 85 278 85 278 85 554 c 256,12,13
 85 832 85 832 251 984.5 c 128,-1,14
 417 1137 417 1137 705 1137 c 0,15,16
 963 1137 963 1137 1121 981 c 128,-1,17
 1279 825 1279 825 1279 559 c 2,18,-1
 1279 458 l 1,0,-1
913 675 m 1,19,20
 913 779 913 779 856.5 839 c 128,-1,21
 800 899 800 899 705 899 c 0,22,23
 597 899 597 899 533 844.5 c 128,-1,24
 469 790 469 790 455 675 c 1,25,-1
 913 675 l 1,19,20
644 1575 m 1,26,-1
 644 1326 l 1,27,-1
 410 1326 l 1,28,-1
 410 1575 l 1,29,-1
 644 1575 l 1,26,-1
1035 1575 m 1,30,-1
 1035 1326 l 1,31,-1
 800 1326 l 1,32,-1
 800 1575 l 1,33,-1
 1035 1575 l 1,30,-1
EndSplineSet
EndChar
StartChar: iacute
Encoding: 237 237 116
Width: 692
VWidth: 3555
Flags: W
HStem: 0 21G<170 529> 1093 20G<170 529>
VStem: 170 359<0 1113>
Fore
529 1113 m 1,0,-1
 529 0 l 1,1,-1
 170 0 l 1,2,-1
 170 1113 l 1,3,-1
 529 1113 l 1,0,-1
800 1625 m 1,4,-1
 434 1252 l 1,5,-1
 238 1252 l 1,6,-1
 519 1625 l 1,7,-1
 800 1625 l 1,4,-1
EndSplineSet
EndChar
StartChar: igrave
Encoding: 236 236 117
Width: 692
VWidth: 3555
Flags: W
HStem: 0 21G<170 529> 1093 20G<170 529>
VStem: 170 359<0 1113>
Fore
529 1113 m 1,0,-1
 529 0 l 1,1,-1
 170 0 l 1,2,-1
 170 1113 l 1,3,-1
 529 1113 l 1,0,-1
529 1252 m 1,4,-1
 339 1252 l 1,5,-1
 -31 1625 l 1,6,-1
 248 1625 l 1,7,-1
 529 1252 l 1,4,-1
EndSplineSet
EndChar
StartChar: icircumflex
Encoding: 238 238 118
Width: 692
VWidth: 3555
Flags: W
HStem: 0 21G<170 529> 1093 20G<170 529>
VStem: 170 359<0 1113>
Fore
529 1113 m 1,0,-1
 529 0 l 1,1,-1
 170 0 l 1,2,-1
 170 1113 l 1,3,-1
 529 1113 l 1,0,-1
505 1625 m 1,4,-1
 757 1252 l 1,5,-1
 583 1252 l 1,6,-1
 387 1476 l 1,7,-1
 184 1252 l 1,8,-1
 10 1252 l 1,9,-1
 264 1625 l 1,10,-1
 505 1625 l 1,4,-1
EndSplineSet
EndChar
StartChar: idieresis
Encoding: 239 239 119
Width: 692
VWidth: 3555
Flags: W
HStem: 0 21G<170 529> 1093 20G<170 529> 1326 249<71 306 462 696>
VStem: 71 235<1326 1575> 170 359<0 1113> 462 234<1326 1575>
Fore
529 1113 m 1,0,-1
 529 0 l 1,1,-1
 170 0 l 1,2,-1
 170 1113 l 1,3,-1
 529 1113 l 1,0,-1
306 1575 m 1,4,-1
 306 1326 l 1,5,-1
 71 1326 l 1,6,-1
 71 1575 l 1,7,-1
 306 1575 l 1,4,-1
696 1575 m 1,8,-1
 696 1326 l 1,9,-1
 462 1326 l 1,10,-1
 462 1575 l 1,11,-1
 696 1575 l 1,8,-1
EndSplineSet
EndChar
StartChar: ntilde
Encoding: 241 241 120
Width: 1449
VWidth: 3555
Flags: W
HStem: 0 21G<170 529 932 1286> 871 266<699.696 992> 1299 156<844.818 938.234> 1425 156<550.891 640.663>
VStem: 170 359<0 754.557 950 1113> 401 139<1302 1418.12> 932 354<0 701.342> 957 138<1486.97 1578>
Fore
1286 0 m 1,0,-1
 932 0 l 1,1,-1
 932 115 l 1,2,-1
 932 519 l 2,3,4
 932 661 932 661 924.5 714 c 128,-1,5
 917 767 917 767 899 800 c 0,6,7
 858 871 858 871 764 871 c 0,8,9
 654 871 654 871 591.5 783.5 c 128,-1,10
 529 696 529 696 529 543 c 2,11,-1
 529 0 l 1,12,-1
 170 0 l 1,13,-1
 170 1113 l 1,14,-1
 529 1113 l 1,15,-1
 529 950 l 1,16,17
 675 1137 675 1137 896 1137 c 0,18,19
 1088 1137 1088 1137 1187 1018 c 128,-1,20
 1286 899 1286 899 1286 675 c 2,21,-1
 1286 0 l 1,0,-1
693 1391 m 1,22,-1
 686 1397 l 1,23,24
 637 1425 637 1425 611 1425 c 0,25,26
 540 1425 540 1425 540 1309 c 2,27,-1
 540 1302 l 1,28,-1
 401 1302 l 1,29,30
 401 1432 401 1432 453 1506.5 c 128,-1,31
 505 1581 505 1581 597 1581 c 0,32,33
 628 1581 628 1581 666.5 1567.5 c 128,-1,34
 705 1554 705 1554 746 1529 c 1,35,-1
 804 1483 l 2,36,37
 849 1455 849 1455 878 1455 c 0,38,39
 913 1455 913 1455 935 1486 c 128,-1,40
 957 1517 957 1517 957 1571 c 2,41,-1
 957 1578 l 1,42,-1
 1095 1578 l 1,43,44
 1095 1448 1095 1448 1041.5 1373.5 c 128,-1,45
 988 1299 988 1299 896 1299 c 0,46,47
 858 1299 858 1299 827.5 1309 c 128,-1,48
 797 1319 797 1319 750 1351 c 2,49,-1
 693 1391 l 1,22,-1
EndSplineSet
EndChar
StartChar: oacute
Encoding: 243 243 121
Width: 1395
VWidth: 3555
Flags: W
HStem: -28 252<559.191 839.875> 882 255<554.226 839.709>
VStem: 85 373<335.216 772.801> 939 370<335.216 772.801>
Fore
696 882 m 0,0,1
 458 882 458 882 458 554 c 0,2,3
 458 394 458 394 519 309 c 128,-1,4
 580 224 580 224 696 224 c 0,5,6
 818 224 818 224 878.5 309 c 128,-1,7
 939 394 939 394 939 554 c 0,8,9
 939 882 939 882 696 882 c 0,0,1
696 1137 m 256,10,11
 984 1137 984 1137 1146.5 984.5 c 128,-1,12
 1309 832 1309 832 1309 554 c 256,13,14
 1309 278 1309 278 1146.5 125 c 128,-1,15
 984 -28 984 -28 696 -28 c 256,16,17
 410 -28 410 -28 247.5 125 c 128,-1,18
 85 278 85 278 85 554 c 256,19,20
 85 832 85 832 247.5 984.5 c 128,-1,21
 410 1137 410 1137 696 1137 c 256,10,11
1137 1625 m 1,22,-1
 771 1252 l 1,23,-1
 576 1252 l 1,24,-1
 858 1625 l 1,25,-1
 1137 1625 l 1,22,-1
EndSplineSet
EndChar
StartChar: ograve
Encoding: 242 242 122
Width: 1395
VWidth: 3555
Flags: W
HStem: -28 252<559.191 839.875> 882 255<554.226 839.709>
VStem: 85 373<335.216 772.801> 939 370<335.216 772.801>
Fore
696 882 m 0,0,1
 458 882 458 882 458 554 c 0,2,3
 458 394 458 394 519 309 c 128,-1,4
 580 224 580 224 696 224 c 0,5,6
 818 224 818 224 878.5 309 c 128,-1,7
 939 394 939 394 939 554 c 0,8,9
 939 882 939 882 696 882 c 0,0,1
696 1137 m 256,10,11
 984 1137 984 1137 1146.5 984.5 c 128,-1,12
 1309 832 1309 832 1309 554 c 256,13,14
 1309 278 1309 278 1146.5 125 c 128,-1,15
 984 -28 984 -28 696 -28 c 256,16,17
 410 -28 410 -28 247.5 125 c 128,-1,18
 85 278 85 278 85 554 c 256,19,20
 85 832 85 832 247.5 984.5 c 128,-1,21
 410 1137 410 1137 696 1137 c 256,10,11
868 1252 m 1,22,-1
 675 1252 l 1,23,-1
 306 1625 l 1,24,-1
 587 1625 l 1,25,-1
 868 1252 l 1,22,-1
EndSplineSet
EndChar
StartChar: ocircumflex
Encoding: 244 244 123
Width: 1395
VWidth: 3555
Flags: W
HStem: -28 252<559.191 839.875> 882 255<554.226 839.709>
VStem: 85 373<335.216 772.801> 939 370<335.216 772.801>
Fore
696 882 m 0,0,1
 458 882 458 882 458 554 c 0,2,3
 458 394 458 394 519 309 c 128,-1,4
 580 224 580 224 696 224 c 0,5,6
 818 224 818 224 878.5 309 c 128,-1,7
 939 394 939 394 939 554 c 0,8,9
 939 882 939 882 696 882 c 0,0,1
696 1137 m 256,10,11
 984 1137 984 1137 1146.5 984.5 c 128,-1,12
 1309 832 1309 832 1309 554 c 256,13,14
 1309 278 1309 278 1146.5 125 c 128,-1,15
 984 -28 984 -28 696 -28 c 256,16,17
 410 -28 410 -28 247.5 125 c 128,-1,18
 85 278 85 278 85 554 c 256,19,20
 85 832 85 832 247.5 984.5 c 128,-1,21
 410 1137 410 1137 696 1137 c 256,10,11
842 1625 m 1,22,-1
 1095 1252 l 1,23,-1
 920 1252 l 1,24,-1
 726 1476 l 1,25,-1
 523 1252 l 1,26,-1
 349 1252 l 1,27,-1
 601 1625 l 1,28,-1
 842 1625 l 1,22,-1
EndSplineSet
EndChar
StartChar: odieresis
Encoding: 246 246 124
Width: 1395
VWidth: 3555
Flags: W
HStem: -28 252<559.191 839.875> 882 255<554.226 839.709> 1326 249<410 644 800 1035>
VStem: 85 373<335.216 772.801> 410 234<1326 1575> 800 235<1326 1575> 939 370<335.216 772.801>
Fore
696 882 m 0,0,1
 458 882 458 882 458 554 c 0,2,3
 458 394 458 394 519 309 c 128,-1,4
 580 224 580 224 696 224 c 0,5,6
 818 224 818 224 878.5 309 c 128,-1,7
 939 394 939 394 939 554 c 0,8,9
 939 882 939 882 696 882 c 0,0,1
696 1137 m 256,10,11
 984 1137 984 1137 1146.5 984.5 c 128,-1,12
 1309 832 1309 832 1309 554 c 256,13,14
 1309 278 1309 278 1146.5 125 c 128,-1,15
 984 -28 984 -28 696 -28 c 256,16,17
 410 -28 410 -28 247.5 125 c 128,-1,18
 85 278 85 278 85 554 c 256,19,20
 85 832 85 832 247.5 984.5 c 128,-1,21
 410 1137 410 1137 696 1137 c 256,10,11
644 1575 m 1,22,-1
 644 1326 l 1,23,-1
 410 1326 l 1,24,-1
 410 1575 l 1,25,-1
 644 1575 l 1,22,-1
1035 1575 m 1,26,-1
 1035 1326 l 1,27,-1
 800 1326 l 1,28,-1
 800 1575 l 1,29,-1
 1035 1575 l 1,26,-1
EndSplineSet
EndChar
StartChar: otilde
Encoding: 245 245 125
Width: 1395
VWidth: 3555
Flags: W
HStem: -28 252<559.191 839.875> 882 255<554.226 839.709> 1299 156<819.739 913.474> 1425 156<526.465 615.839>
VStem: 85 373<335.216 772.801> 377 139<1302 1418.12> 932 137<1486.97 1578> 939 370<335.216 772.801>
Fore
696 882 m 0,0,1
 458 882 458 882 458 554 c 0,2,3
 458 394 458 394 519 309 c 128,-1,4
 580 224 580 224 696 224 c 0,5,6
 818 224 818 224 878.5 309 c 128,-1,7
 939 394 939 394 939 554 c 0,8,9
 939 882 939 882 696 882 c 0,0,1
696 1137 m 256,10,11
 984 1137 984 1137 1146.5 984.5 c 128,-1,12
 1309 832 1309 832 1309 554 c 256,13,14
 1309 278 1309 278 1146.5 125 c 128,-1,15
 984 -28 984 -28 696 -28 c 256,16,17
 410 -28 410 -28 247.5 125 c 128,-1,18
 85 278 85 278 85 554 c 256,19,20
 85 832 85 832 247.5 984.5 c 128,-1,21
 410 1137 410 1137 696 1137 c 256,10,11
668 1391 m 1,22,-1
 661 1397 l 1,23,24
 611 1425 611 1425 587 1425 c 0,25,26
 516 1425 516 1425 516 1309 c 2,27,-1
 516 1302 l 1,28,-1
 377 1302 l 1,29,30
 377 1432 377 1432 428 1506.5 c 128,-1,31
 479 1581 479 1581 573 1581 c 0,32,33
 604 1581 604 1581 641.5 1567.5 c 128,-1,34
 679 1554 679 1554 722 1529 c 1,35,-1
 779 1483 l 2,36,37
 825 1455 825 1455 854 1455 c 0,38,39
 889 1455 889 1455 910.5 1486 c 128,-1,40
 932 1517 932 1517 932 1571 c 2,41,-1
 932 1578 l 1,42,-1
 1069 1578 l 1,43,44
 1069 1448 1069 1448 1016 1373.5 c 128,-1,45
 963 1299 963 1299 871 1299 c 0,46,47
 832 1299 832 1299 801.5 1309 c 128,-1,48
 771 1319 771 1319 726 1351 c 2,49,-1
 668 1391 l 1,22,-1
EndSplineSet
EndChar
StartChar: uacute
Encoding: 250 250 126
Width: 1449
VWidth: 3555
Flags: W
HStem: -28 266<455 745.567> 1093 20G<160 519 917 1272>
VStem: 160 359<403.697 1113> 917 355<0 160 351.326 1113>
Fore
160 1113 m 1,0,-1
 519 1113 l 1,1,-1
 519 1003 l 2,2,3
 519 953 519 953 519 895.5 c 128,-1,4
 519 838 519 838 516 771 c 2,5,-1
 516 590 l 2,6,7
 516 458 516 458 522.5 400 c 128,-1,8
 529 342 529 342 540 309 c 1,9,10
 594 238 594 238 682 238 c 0,11,12
 797 238 797 238 857 325.5 c 128,-1,13
 917 413 917 413 917 562 c 2,14,-1
 917 1113 l 1,15,-1
 1272 1113 l 1,16,-1
 1272 0 l 1,17,-1
 917 0 l 1,18,-1
 917 160 l 1,19,20
 771 -28 771 -28 547 -28 c 0,21,22
 363 -28 363 -28 261.5 89.5 c 128,-1,23
 160 207 160 207 160 434 c 2,24,-1
 160 1113 l 1,0,-1
1163 1625 m 1,25,-1
 797 1252 l 1,26,-1
 601 1252 l 1,27,-1
 882 1625 l 1,28,-1
 1163 1625 l 1,25,-1
EndSplineSet
EndChar
StartChar: ugrave
Encoding: 249 249 127
Width: 1449
VWidth: 3555
Flags: W
HStem: -28 266<455 745.567> 1093 20G<160 519 917 1272>
VStem: 160 359<403.697 1113> 917 355<0 160 351.326 1113>
Fore
160 1113 m 1,0,-1
 519 1113 l 1,1,-1
 519 1003 l 2,2,3
 519 953 519 953 519 895.5 c 128,-1,4
 519 838 519 838 516 771 c 2,5,-1
 516 590 l 2,6,7
 516 458 516 458 522.5 400 c 128,-1,8
 529 342 529 342 540 309 c 1,9,10
 594 238 594 238 682 238 c 0,11,12
 797 238 797 238 857 325.5 c 128,-1,13
 917 413 917 413 917 562 c 2,14,-1
 917 1113 l 1,15,-1
 1272 1113 l 1,16,-1
 1272 0 l 1,17,-1
 917 0 l 1,18,-1
 917 160 l 1,19,20
 771 -28 771 -28 547 -28 c 0,21,22
 363 -28 363 -28 261.5 89.5 c 128,-1,23
 160 207 160 207 160 434 c 2,24,-1
 160 1113 l 1,0,-1
892 1252 m 1,25,-1
 700 1252 l 1,26,-1
 330 1625 l 1,27,-1
 611 1625 l 1,28,-1
 892 1252 l 1,25,-1
EndSplineSet
EndChar
StartChar: ucircumflex
Encoding: 251 251 128
Width: 1449
VWidth: 3555
Flags: W
HStem: -28 266<455 745.567> 1093 20G<160 519 917 1272>
VStem: 160 359<403.697 1113> 917 355<0 160 351.326 1113>
Fore
160 1113 m 1,0,-1
 519 1113 l 1,1,-1
 519 1003 l 2,2,3
 519 953 519 953 519 895.5 c 128,-1,4
 519 838 519 838 516 771 c 2,5,-1
 516 590 l 2,6,7
 516 458 516 458 522.5 400 c 128,-1,8
 529 342 529 342 540 309 c 1,9,10
 594 238 594 238 682 238 c 0,11,12
 797 238 797 238 857 325.5 c 128,-1,13
 917 413 917 413 917 562 c 2,14,-1
 917 1113 l 1,15,-1
 1272 1113 l 1,16,-1
 1272 0 l 1,17,-1
 917 0 l 1,18,-1
 917 160 l 1,19,20
 771 -28 771 -28 547 -28 c 0,21,22
 363 -28 363 -28 261.5 89.5 c 128,-1,23
 160 207 160 207 160 434 c 2,24,-1
 160 1113 l 1,0,-1
868 1625 m 1,25,-1
 1120 1252 l 1,26,-1
 946 1252 l 1,27,-1
 750 1476 l 1,28,-1
 547 1252 l 1,29,-1
 373 1252 l 1,30,-1
 625 1625 l 1,31,-1
 868 1625 l 1,25,-1
EndSplineSet
EndChar
StartChar: udieresis
Encoding: 252 252 129
Width: 1449
VWidth: 3555
Flags: W
HStem: -28 266<455 745.567> 1093 20G<160 519 917 1272> 1326 249<434 668 825 1059>
VStem: 160 359<403.697 1113> 434 234<1326 1575> 825 234<1326 1575> 917 355<0 160 351.326 1113>
Fore
160 1113 m 1,0,-1
 519 1113 l 1,1,-1
 519 1003 l 2,2,3
 519 953 519 953 519 895.5 c 128,-1,4
 519 838 519 838 516 771 c 2,5,-1
 516 590 l 2,6,7
 516 458 516 458 522.5 400 c 128,-1,8
 529 342 529 342 540 309 c 1,9,10
 594 238 594 238 682 238 c 0,11,12
 797 238 797 238 857 325.5 c 128,-1,13
 917 413 917 413 917 562 c 2,14,-1
 917 1113 l 1,15,-1
 1272 1113 l 1,16,-1
 1272 0 l 1,17,-1
 917 0 l 1,18,-1
 917 160 l 1,19,20
 771 -28 771 -28 547 -28 c 0,21,22
 363 -28 363 -28 261.5 89.5 c 128,-1,23
 160 207 160 207 160 434 c 2,24,-1
 160 1113 l 1,0,-1
668 1575 m 1,25,-1
 668 1326 l 1,26,-1
 434 1326 l 1,27,-1
 434 1575 l 1,28,-1
 668 1575 l 1,25,-1
1059 1575 m 1,29,-1
 1059 1326 l 1,30,-1
 825 1326 l 1,31,-1
 825 1575 l 1,32,-1
 1059 1575 l 1,29,-1
EndSplineSet
EndChar
StartChar: dagger
Encoding: 8224 8224 130
Width: 1015
VWidth: 3555
Flags: W
HStem: 871 235<54 342 668 957> 1463 20G<342 668>
VStem: 342 326<-196 871 1106 1483>
Fore
668 1483 m 1,0,-1
 668 1106 l 1,1,-1
 957 1106 l 1,2,-1
 957 871 l 1,3,-1
 668 871 l 1,4,-1
 668 -196 l 1,5,-1
 342 -196 l 1,6,-1
 342 871 l 1,7,-1
 54 871 l 1,8,-1
 54 1106 l 1,9,-1
 342 1106 l 1,10,-1
 342 1483 l 1,11,-1
 668 1483 l 1,0,-1
EndSplineSet
EndChar
StartChar: degree
Encoding: 176 176 131
Width: 1015
VWidth: 3555
Flags: W
HStem: 865 159<392.123 600.162> 1361 165<392.653 624.219>
VStem: 177 162<1076.44 1305.79> 679 159<1077.18 1306.29>
Fore
512 1361 m 0,0,1
 437 1361 437 1361 388 1311.5 c 128,-1,2
 339 1262 339 1262 339 1191 c 256,3,4
 339 1120 339 1120 388 1072 c 128,-1,5
 437 1024 437 1024 512 1024 c 0,6,7
 580 1024 580 1024 629.5 1072 c 128,-1,8
 679 1120 679 1120 679 1191 c 256,9,10
 679 1262 679 1262 629.5 1311.5 c 128,-1,11
 580 1361 580 1361 512 1361 c 0,0,1
512 1526 m 0,12,13
 573 1526 573 1526 633 1499 c 128,-1,14
 693 1472 693 1472 743 1425 c 0,15,16
 790 1380 790 1380 814 1317.5 c 128,-1,17
 838 1255 838 1255 838 1191 c 0,18,19
 838 1123 838 1123 814 1065 c 128,-1,20
 790 1007 790 1007 746 960 c 0,21,22
 693 910 693 910 633 887.5 c 128,-1,23
 573 865 573 865 509 865 c 0,24,25
 366 865 366 865 271.5 957 c 128,-1,26
 177 1049 177 1049 177 1191 c 0,27,28
 177 1330 177 1330 273.5 1428 c 128,-1,29
 370 1526 370 1526 512 1526 c 0,12,13
EndSplineSet
EndChar
StartChar: cent
Encoding: 162 162 132
Width: 1414
VWidth: 3555
Flags: W
HStem: -28 252<861 1018.17>
VStem: 174 366<364.785 744.873> 693 168<-309 -28 260 854 1137 1422>
Fore
693 854 m 1,0,1
 540 767 540 767 540 554 c 0,2,3
 540 339 540 339 693 260 c 1,4,-1
 693 854 l 1,0,1
1156 790 m 1,5,6
 1003 882 1003 882 875 882 c 2,7,-1
 861 882 l 1,8,-1
 861 224 l 1,9,10
 946 227 946 227 1020.5 252.5 c 128,-1,11
 1095 278 1095 278 1156 319 c 1,12,-1
 1156 31 l 1,13,14
 984 -28 984 -28 871 -28 c 2,15,-1
 861 -28 l 1,16,-1
 861 -309 l 1,17,-1
 693 -309 l 1,18,-1
 693 -24 l 1,19,20
 174 57 174 57 174 569 c 0,21,22
 174 814 174 814 305.5 958 c 128,-1,23
 437 1102 437 1102 693 1137 c 1,24,-1
 693 1422 l 1,25,-1
 861 1422 l 1,26,-1
 861 1137 l 1,27,28
 929 1134 929 1134 1003.5 1120 c 128,-1,29
 1078 1106 1078 1106 1156 1082 c 1,30,-1
 1156 790 l 1,5,6
EndSplineSet
EndChar
StartChar: sterling
Encoding: 163 163 133
Width: 1414
VWidth: 3555
Flags: W
HStem: 0 264<128 352 712 1245> 587 238<156 352 712 1085> 1245 262<793.594 1173.13>
VStem: 352 360<264 587 825 1164.63>
Fore
1234 1174 m 1,0,1
 1099 1245 1099 1245 939 1245 c 0,2,3
 712 1245 712 1245 712 991 c 2,4,-1
 712 825 l 1,5,-1
 1085 825 l 1,6,-1
 1085 587 l 1,7,-1
 712 587 l 1,8,-1
 712 264 l 1,9,-1
 1245 264 l 1,10,-1
 1245 0 l 1,11,-1
 128 0 l 1,12,-1
 128 264 l 1,13,-1
 352 264 l 1,14,-1
 352 587 l 1,15,-1
 156 587 l 1,16,-1
 156 825 l 1,17,-1
 352 825 l 1,18,-1
 352 991 l 2,19,20
 352 1262 352 1262 476.5 1384.5 c 128,-1,21
 601 1507 601 1507 878 1507 c 0,22,23
 1055 1507 1055 1507 1234 1458 c 1,24,-1
 1234 1174 l 1,0,1
EndSplineSet
EndChar
StartChar: section
Encoding: 167 167 134
Width: 1015
VWidth: 3555
Flags: W
HStem: -193 207<387.125 577.137> 1305 202<450.063 633.679>
VStem: 14 281<595.067 792.629> 733 277<524.776 718.949>
Fore
882 1231 m 1,0,1
 783 1262 783 1262 700.5 1283.5 c 128,-1,2
 618 1305 618 1305 566 1305 c 0,3,4
 495 1305 495 1305 457.5 1278.5 c 128,-1,5
 420 1252 420 1252 420 1208 c 0,6,7
 420 1144 420 1144 601 1062 c 0,8,9
 615 1055 615 1055 626 1052 c 128,-1,10
 637 1049 637 1049 644 1045 c 0,11,12
 854 957 854 957 932 873.5 c 128,-1,13
 1010 790 1010 790 1010 661 c 0,14,15
 1010 431 1010 431 783 342 c 1,16,17
 932 264 932 264 932 118 c 0,18,19
 932 -24 932 -24 810.5 -108.5 c 128,-1,20
 689 -193 689 -193 484 -193 c 0,21,22
 394 -193 394 -193 304 -178 c 128,-1,23
 214 -163 214 -163 118 -139 c 1,24,-1
 118 99 l 1,25,26
 227 61 227 61 320 37.5 c 128,-1,27
 413 14 413 14 465 14 c 0,28,29
 529 14 529 14 568.5 41 c 128,-1,30
 608 68 608 68 608 102 c 0,31,32
 608 174 608 174 431 245 c 0,33,34
 413 252 413 252 396.5 259.5 c 128,-1,35
 380 267 380 267 373 271 c 0,36,37
 174 356 174 356 94 444.5 c 128,-1,38
 14 533 14 533 14 661 c 0,39,40
 14 767 14 767 71 842 c 128,-1,41
 128 917 128 917 234 967 c 1,42,43
 163 1021 163 1021 129 1075.5 c 128,-1,44
 95 1130 95 1130 95 1205 c 0,45,46
 95 1347 95 1347 209 1427 c 128,-1,47
 323 1507 323 1507 526 1507 c 0,48,49
 608 1507 608 1507 699 1493 c 128,-1,50
 790 1479 790 1479 882 1455 c 1,51,-1
 882 1231 l 1,0,1
434 854 m 1,52,53
 295 793 295 793 295 693 c 0,54,55
 295 628 295 628 357.5 578.5 c 128,-1,56
 420 529 420 529 597 465 c 1,57,58
 733 526 733 526 733 618 c 0,59,60
 733 686 733 686 665 739.5 c 128,-1,61
 597 793 597 793 434 854 c 1,52,53
EndSplineSet
EndChar
StartChar: bullet
Encoding: 8226 8226 135
Width: 1300
VWidth: 3555
Flags: W
HStem: 1093 20G<580 686.5>
Fore
292 757 m 0,0,1
 292 899 292 899 394 1010 c 0,2,3
 509 1113 509 1113 651 1113 c 0,4,5
 722 1113 722 1113 788 1084 c 128,-1,6
 854 1055 854 1055 899 1010 c 0,7,8
 1007 903 1007 903 1007 757 c 0,9,10
 1007 682 1007 682 980 614.5 c 128,-1,11
 953 547 953 547 899 505 c 2,12,13
 854 451 854 451 788 424.5 c 128,-1,14
 722 398 722 398 648 398 c 0,15,16
 502 398 502 398 394 505 c 0,17,18
 349 547 349 547 320.5 614.5 c 128,-1,19
 292 682 292 682 292 757 c 0,0,1
EndSplineSet
EndChar
StartChar: paragraph
Encoding: 182 182 136
Width: 1293
VWidth: 3555
Flags: W
HStem: 1333 150<740 929>
VStem: 547 193<-196 644> 929 187<-196 1333>
Fore
1116 1483 m 1,0,-1
 1116 -196 l 1,1,-1
 929 -196 l 1,2,-1
 929 1333 l 1,3,-1
 740 1333 l 1,4,-1
 740 -196 l 1,5,-1
 547 -196 l 1,6,-1
 547 644 l 1,7,8
 345 668 345 668 238.5 775 c 128,-1,9
 132 882 132 882 132 1062 c 0,10,11
 132 1255 132 1255 258 1369 c 128,-1,12
 384 1483 384 1483 597 1483 c 2,13,-1
 1116 1483 l 1,0,-1
EndSplineSet
EndChar
StartChar: germandbls
Encoding: 223 223 137
Width: 1463
VWidth: 3555
Flags: W
HStem: -28 235<808.724 980.644> 1309 238<594.368 865.881>
VStem: 170 359<0 1244.57>
Fore
170 1106 m 1,0,1
 170 1547 170 1547 712 1547 c 0,2,3
 967 1547 967 1547 1100.5 1435 c 128,-1,4
 1234 1323 1234 1323 1234 1106 c 2,5,-1
 1234 1035 l 1,6,7
 943 1014 943 1014 943 878 c 0,8,9
 943 838 943 838 965.5 810.5 c 128,-1,10
 988 783 988 783 1085 729 c 2,11,-1
 1156 693 l 2,12,13
 1266 628 1266 628 1321.5 545 c 128,-1,14
 1377 462 1377 462 1377 345 c 0,15,16
 1377 -28 1377 -28 913 -28 c 0,17,18
 854 -28 854 -28 786.5 -15.5 c 128,-1,19
 719 -3 719 -3 644 17 c 1,20,-1
 644 264 l 1,21,22
 696 231 696 231 755 219 c 128,-1,23
 814 207 814 207 868 207 c 0,24,25
 936 207 936 207 980 244 c 128,-1,26
 1024 281 1024 281 1024 339 c 0,27,28
 1024 384 1024 384 995.5 417.5 c 128,-1,29
 967 451 967 451 875 505 c 2,30,-1
 804 540 l 2,31,32
 719 590 719 590 676.5 658 c 128,-1,33
 634 726 634 726 634 818 c 0,34,35
 634 929 634 929 699 1008.5 c 128,-1,36
 764 1088 764 1088 913 1137 c 1,37,38
 910 1309 910 1309 729 1309 c 0,39,40
 529 1309 529 1309 529 1092 c 2,41,-1
 529 0 l 1,42,-1
 170 0 l 1,43,-1
 170 1106 l 1,0,1
EndSplineSet
EndChar
StartChar: registered
Encoding: 174 174 138
Width: 2032
VWidth: 3555
Flags: W
HStem: 0 156<795.739 1235.32> 689 136<924 992.548> 1028 139<924 1097.68> 1319 157<787.583 1243.92>
VStem: 281 153<514.383 961.148> 715 209<339 689 825 1028> 1116 228<847.922 1003.78> 1604 149<515.355 960.811>
Fore
1017 1319 m 0,0,1
 779 1319 779 1319 601 1153 c 0,2,3
 519 1062 519 1062 476.5 961.5 c 128,-1,4
 434 861 434 861 434 736 c 0,5,6
 434 615 434 615 476.5 514 c 128,-1,7
 519 413 519 413 601 319 c 0,8,9
 689 234 689 234 792.5 195 c 128,-1,10
 896 156 896 156 1017 156 c 256,11,12
 1137 156 1137 156 1238.5 195 c 128,-1,13
 1340 234 1340 234 1429 319 c 0,14,15
 1604 505 1604 505 1604 736 c 0,16,17
 1604 977 1604 977 1429 1153 c 0,18,19
 1252 1319 1252 1319 1017 1319 c 0,0,1
924 1028 m 1,20,-1
 924 825 l 1,21,-1
 960 825 l 2,22,23
 1116 825 1116 825 1116 929 c 0,24,25
 1116 1028 1116 1028 960 1028 c 2,26,-1
 924 1028 l 1,20,-1
998 1167 m 1,27,28
 1344 1167 1344 1167 1344 929 c 0,29,30
 1344 842 1344 842 1291 787.5 c 128,-1,31
 1238 733 1238 733 1149 715 c 1,32,33
 1224 668 1224 668 1283 554 c 2,34,-1
 1394 339 l 1,35,-1
 1170 339 l 1,36,-1
 1059 543 l 2,37,38
 1024 621 1024 621 993.5 655 c 128,-1,39
 963 689 963 689 936 689 c 2,40,-1
 924 689 l 1,41,-1
 924 339 l 1,42,-1
 715 339 l 1,43,-1
 715 1167 l 1,44,-1
 998 1167 l 1,27,28
1017 1476 m 0,45,46
 1170 1476 1170 1476 1297.5 1418.5 c 128,-1,47
 1425 1361 1425 1361 1540 1255 c 0,48,49
 1753 1042 1753 1042 1753 736 c 0,50,51
 1753 437 1753 437 1540 217 c 0,52,53
 1425 115 1425 115 1297.5 57.5 c 128,-1,54
 1170 0 1170 0 1017 0 c 0,55,56
 868 0 868 0 736 57.5 c 128,-1,57
 604 115 604 115 498 217 c 0,58,59
 281 431 281 431 281 736 c 0,60,61
 281 885 281 885 334 1019 c 128,-1,62
 387 1153 387 1153 498 1255 c 0,63,64
 719 1476 719 1476 1017 1476 c 0,45,46
EndSplineSet
EndChar
StartChar: copyright
Encoding: 169 169 139
Width: 2032
VWidth: 3555
Flags: W
HStem: 0 156<795.739 1235.32> 309 189<932.056 1209.67> 974 189<940.224 1204.98> 1319 157<787.583 1243.92>
VStem: 281 153<514.383 961.148> 594 260<576.225 886.787> 1604 149<515.355 960.811>
Fore
1312 903 m 1,0,1
 1198 974 1198 974 1092 974 c 0,2,3
 977 974 977 974 915.5 909.5 c 128,-1,4
 854 845 854 845 854 736 c 0,5,6
 854 498 854 498 1092 498 c 0,7,8
 1224 498 1224 498 1312 566 c 1,9,-1
 1312 356 l 1,10,11
 1248 335 1248 335 1184 322 c 128,-1,12
 1120 309 1120 309 1055 309 c 0,13,14
 842 309 842 309 718 424.5 c 128,-1,15
 594 540 594 540 594 736 c 0,16,17
 594 929 594 929 718 1046 c 128,-1,18
 842 1163 842 1163 1055 1163 c 0,19,20
 1127 1163 1127 1163 1189.5 1150 c 128,-1,21
 1252 1137 1252 1137 1312 1116 c 1,22,-1
 1312 903 l 1,0,1
1017 1319 m 0,23,24
 779 1319 779 1319 601 1153 c 0,25,26
 519 1062 519 1062 476.5 961.5 c 128,-1,27
 434 861 434 861 434 736 c 0,28,29
 434 615 434 615 476.5 514 c 128,-1,30
 519 413 519 413 601 319 c 0,31,32
 689 234 689 234 792.5 195 c 128,-1,33
 896 156 896 156 1017 156 c 256,34,35
 1137 156 1137 156 1238.5 195 c 128,-1,36
 1340 234 1340 234 1429 319 c 0,37,38
 1604 505 1604 505 1604 736 c 0,39,40
 1604 977 1604 977 1429 1153 c 0,41,42
 1252 1319 1252 1319 1017 1319 c 0,23,24
1017 1476 m 0,43,44
 1170 1476 1170 1476 1297.5 1418.5 c 128,-1,45
 1425 1361 1425 1361 1540 1255 c 0,46,47
 1753 1042 1753 1042 1753 736 c 0,48,49
 1753 437 1753 437 1540 217 c 0,50,51
 1425 115 1425 115 1297.5 57.5 c 128,-1,52
 1170 0 1170 0 1017 0 c 0,53,54
 868 0 868 0 736 57.5 c 128,-1,55
 604 115 604 115 498 217 c 0,56,57
 281 431 281 431 281 736 c 0,58,59
 281 885 281 885 334 1019 c 128,-1,60
 387 1153 387 1153 498 1255 c 0,61,62
 719 1476 719 1476 1017 1476 c 0,43,44
EndSplineSet
EndChar
StartChar: trademark
Encoding: 8482 8482 140
Width: 2032
VWidth: 3555
Flags: W
HStem: 1340 143<292 462 634 807>
VStem: 462 172<906 1340> 917 175<906 1340> 1436 172<906 1340>
Fore
1262 1255 m 1,0,-1
 1384 1483 l 1,1,-1
 1608 1483 l 1,2,-1
 1608 906 l 1,3,-1
 1436 906 l 1,4,-1
 1436 1340 l 1,5,-1
 1302 1088 l 1,6,-1
 1231 1088 l 1,7,-1
 1092 1340 l 1,8,-1
 1092 906 l 1,9,-1
 917 906 l 1,10,-1
 917 1483 l 1,11,-1
 1149 1483 l 1,12,-1
 1262 1255 l 1,0,-1
807 1340 m 1,13,-1
 634 1340 l 1,14,-1
 634 906 l 1,15,-1
 462 906 l 1,16,-1
 462 1340 l 1,17,-1
 292 1340 l 1,18,-1
 292 1483 l 1,19,-1
 807 1483 l 1,20,-1
 807 1340 l 1,13,-1
EndSplineSet
EndChar
StartChar: acute
Encoding: 180 180 141
Width: 1015
VWidth: 3555
Flags: W
HStem: 1252 373<559 924>
VStem: 363 561<1252 1625>
Fore
924 1625 m 1,0,-1
 559 1252 l 1,1,-1
 363 1252 l 1,2,-1
 644 1625 l 1,3,-1
 924 1625 l 1,0,-1
EndSplineSet
EndChar
StartChar: dieresis
Encoding: 168 168 142
Width: 1015
VWidth: 3555
Flags: W
HStem: 1326 249<196 431 587 821>
VStem: 196 235<1326 1575> 587 234<1326 1575>
Fore
431 1575 m 1,0,-1
 431 1326 l 1,1,-1
 196 1326 l 1,2,-1
 196 1575 l 1,3,-1
 431 1575 l 1,0,-1
821 1575 m 1,4,-1
 821 1326 l 1,5,-1
 587 1326 l 1,6,-1
 587 1575 l 1,7,-1
 821 1575 l 1,4,-1
EndSplineSet
EndChar
StartChar: notequal
Encoding: 8800 8800 143
Width: 1701
VWidth: 3555
Flags: W
HStem: -10 21G<431.719 471.556> 292 237<214 451 899 1486> 746 231<214 811 1252 1486>
Fore
1003 977 m 1,0,-1
 1248 1279 l 1,1,-1
 1397 1160 l 1,2,-1
 1252 977 l 1,3,-1
 1486 977 l 1,4,-1
 1486 746 l 1,5,-1
 1078 746 l 1,6,-1
 899 529 l 1,7,-1
 1486 529 l 1,8,-1
 1486 292 l 1,9,-1
 705 292 l 1,10,-1
 455 -10 l 1,11,-1
 306 118 l 1,12,-1
 451 292 l 1,13,-1
 214 292 l 1,14,-1
 214 529 l 1,15,-1
 637 529 l 1,16,-1
 811 746 l 1,17,-1
 214 746 l 1,18,-1
 214 977 l 1,19,-1
 1003 977 l 1,0,-1
EndSplineSet
EndChar
StartChar: AE
Encoding: 198 198 144
Width: 2206
VWidth: 3555
Flags: W
HStem: 0 288<1387 2059> 349 269<628 1007> 628 285<1387 1995> 1194 289<1387 2038>
VStem: 1007 380<288 349 618 628 913 1194>
Fore
628 618 m 1,0,-1
 1007 618 l 1,1,-1
 1007 1231 l 1,2,-1
 882 1231 l 1,3,-1
 628 618 l 1,0,-1
2038 1483 m 1,4,-1
 2038 1194 l 1,5,-1
 1387 1194 l 1,6,-1
 1387 913 l 1,7,-1
 1995 913 l 1,8,-1
 1995 628 l 1,9,-1
 1387 628 l 1,10,-1
 1387 288 l 1,11,-1
 2059 288 l 1,12,-1
 2059 0 l 1,13,-1
 1007 0 l 1,14,-1
 1007 349 l 1,15,-1
 516 349 l 1,16,-1
 370 0 l 1,17,-1
 0 0 l 1,18,-1
 618 1483 l 1,19,-1
 2038 1483 l 1,4,-1
EndSplineSet
EndChar
StartChar: Oslash
Encoding: 216 216 145
Width: 1727
VWidth: 3555
Flags: W
HStem: -28 273<693.403 1039.81> 1234 273<686.71 1023.11>
VStem: 99 399<523.136 1010.2> 1234 391<471.584 905.483>
Fore
597 370 m 1,0,1
 700 245 700 245 868 245 c 0,2,3
 1038 245 1038 245 1136 375 c 128,-1,4
 1234 505 1234 505 1234 740 c 0,5,6
 1234 807 1234 807 1224.5 865.5 c 128,-1,7
 1215 924 1215 924 1201 970 c 1,8,-1
 597 370 l 1,0,1
1123 1116 m 1,9,10
 1078 1177 1078 1177 1012 1205.5 c 128,-1,11
 946 1234 946 1234 868 1234 c 0,12,13
 686 1234 686 1234 592 1104 c 128,-1,14
 498 974 498 974 498 740 c 0,15,16
 498 611 498 611 526 519 c 1,17,-1
 1123 1116 l 1,9,10
245 238 m 1,18,19
 99 448 99 448 99 740 c 0,20,21
 99 1102 99 1102 302 1304.5 c 128,-1,22
 505 1507 505 1507 868 1507 c 0,23,24
 1167 1507 1167 1507 1361 1354 c 1,25,-1
 1561 1557 l 1,26,-1
 1675 1443 l 1,27,-1
 1476 1241 l 1,28,29
 1550 1149 1550 1149 1587.5 1019 c 128,-1,30
 1625 889 1625 889 1625 740 c 0,31,32
 1625 377 1625 377 1428 174.5 c 128,-1,33
 1231 -28 1231 -28 868 -28 c 0,34,35
 562 -28 562 -28 359 132 c 1,36,-1
 156 -75 l 1,37,-1
 47 40 l 1,38,-1
 245 238 l 1,18,19
EndSplineSet
EndChar
StartChar: infinity
Encoding: 8734 8734 146
Width: 1690
VWidth: 3555
Flags: W
HStem: 184 250<386.762 614.444> 184 240<1040.59 1318.33> 779 245<1083.59 1323.21> 786 238<375.529 649.013>
VStem: 193 116<490.651 720.074> 1384 116<489.24 718.836>
Fore
950 559 m 1,0,1
 1035 424 1035 424 1184 424 c 0,2,3
 1269 424 1269 424 1326.5 475 c 128,-1,4
 1384 526 1384 526 1384 601 c 0,5,6
 1384 679 1384 679 1331.5 729 c 128,-1,7
 1279 779 1279 779 1205 779 c 0,8,9
 1134 779 1134 779 1075.5 729 c 128,-1,10
 1017 679 1017 679 950 559 c 1,0,1
746 651 m 1,11,12
 661 786 661 786 516 786 c 0,13,14
 427 786 427 786 368 736 c 128,-1,15
 309 686 309 686 309 608 c 256,16,17
 309 529 309 529 363 481.5 c 128,-1,18
 417 434 417 434 495 434 c 0,19,20
 562 434 562 434 622 483.5 c 128,-1,21
 682 533 682 533 746 651 c 1,11,12
854 441 m 1,22,23
 712 184 712 184 529 184 c 0,24,25
 458 184 458 184 396.5 216 c 128,-1,26
 335 248 335 248 290 305.5 c 128,-1,27
 245 363 245 363 219 439.5 c 128,-1,28
 193 516 193 516 193 601 c 0,29,30
 193 793 193 793 281.5 908.5 c 128,-1,31
 370 1024 370 1024 509 1024 c 0,32,33
 594 1024 594 1024 670 965 c 128,-1,34
 746 906 746 906 845 767 c 1,35,36
 981 1024 981 1024 1170 1024 c 0,37,38
 1309 1024 1309 1024 1404.5 905 c 128,-1,39
 1500 786 1500 786 1500 604 c 0,40,41
 1500 420 1500 420 1413 302 c 128,-1,42
 1326 184 1326 184 1191 184 c 0,43,44
 1099 184 1099 184 1024.5 239.5 c 128,-1,45
 950 295 950 295 854 441 c 1,22,23
EndSplineSet
EndChar
StartChar: plusminus
Encoding: 177 177 147
Width: 1701
VWidth: 3555
Flags: W
HStem: 0 234<214 1486> 689 235<214 733 967 1486>
VStem: 733 234<339 689 924 1272>
Fore
967 924 m 1,0,-1
 1486 924 l 1,1,-1
 1486 689 l 1,2,-1
 967 689 l 1,3,-1
 967 339 l 1,4,-1
 733 339 l 1,5,-1
 733 689 l 1,6,-1
 214 689 l 1,7,-1
 214 924 l 1,8,-1
 733 924 l 1,9,-1
 733 1272 l 1,10,-1
 967 1272 l 1,11,-1
 967 924 l 1,0,-1
1486 234 m 1,12,-1
 1486 0 l 1,13,-1
 214 0 l 1,14,-1
 214 234 l 1,15,-1
 1486 234 l 1,12,-1
EndSplineSet
EndChar
StartChar: lessequal
Encoding: 8804 8804 148
Width: 1701
VWidth: 3555
Flags: W
HStem: 0 234<214 1486>
Fore
1486 0 m 1,0,-1
 214 0 l 1,1,-1
 214 234 l 1,2,-1
 1486 234 l 1,3,-1
 1486 0 l 1,0,-1
597 733 m 1,4,-1
 1486 529 l 1,5,-1
 1486 285 l 1,6,-1
 214 615 l 1,7,-1
 214 854 l 1,8,-1
 1486 1184 l 1,9,-1
 1486 939 l 1,10,-1
 597 733 l 1,4,-1
EndSplineSet
EndChar
StartChar: greaterequal
Encoding: 8805 8805 149
Width: 1701
VWidth: 3555
Flags: W
HStem: 0 234<214 1486>
Fore
1486 234 m 1,0,-1
 1486 0 l 1,1,-1
 214 0 l 1,2,-1
 214 234 l 1,3,-1
 1486 234 l 1,0,-1
214 1184 m 1,4,-1
 1486 854 l 1,5,-1
 1486 615 l 1,6,-1
 214 285 l 1,7,-1
 214 529 l 1,8,-1
 1106 733 l 1,9,-1
 214 939 l 1,10,-1
 214 1184 l 1,4,-1
EndSplineSet
EndChar
StartChar: yen
Encoding: 165 165 150
Width: 1414
VWidth: 3555
Flags: W
HStem: 0 21G<519 896> 417 187<68 519 896 1347> 757 189<68 359 1055 1347> 1463 20G<24 436.375 978.669 1391>
VStem: 519 377<0 417 604 672>
Fore
896 417 m 1,0,-1
 896 0 l 1,1,-1
 519 0 l 1,2,-1
 519 417 l 1,3,-1
 68 417 l 1,4,-1
 68 604 l 1,5,-1
 519 604 l 1,6,-1
 519 672 l 1,7,-1
 469 757 l 1,8,-1
 68 757 l 1,9,-1
 68 946 l 1,10,-1
 359 946 l 1,11,-1
 24 1483 l 1,12,-1
 424 1483 l 1,13,-1
 708 1024 l 1,14,-1
 991 1483 l 1,15,-1
 1391 1483 l 1,16,-1
 1055 946 l 1,17,-1
 1347 946 l 1,18,-1
 1347 757 l 1,19,-1
 946 757 l 1,20,-1
 896 672 l 1,21,-1
 896 604 l 1,22,-1
 1347 604 l 1,23,-1
 1347 417 l 1,24,-1
 896 417 l 1,0,-1
EndSplineSet
EndChar
StartChar: mu
Encoding: 181 181 151
Width: 1496
VWidth: 3555
Flags: W
HStem: -427 21G<174 529> -28 262<593.399 868.28 1230.54 1411.49> 1093 20G<174 529 932 1286>
VStem: 174 355<-427 68 299.194 1113> 932 354<299.194 370 370 1113>
Fore
174 1113 m 1,0,-1
 529 1113 l 1,1,-1
 529 465 l 2,2,3
 529 234 529 234 733 234 c 0,4,5
 932 234 932 234 932 465 c 2,6,-1
 932 1113 l 1,7,-1
 1286 1113 l 1,8,-1
 1286 370 l 2,9,10
 1286 299 1286 299 1304.5 268.5 c 128,-1,11
 1323 238 1323 238 1361 238 c 0,12,13
 1384 238 1384 238 1397.5 243 c 128,-1,14
 1411 248 1411 248 1429 264 c 1,15,-1
 1429 14 l 1,16,17
 1330 -28 1330 -28 1241 -28 c 0,18,19
 1156 -28 1156 -28 1099 9.5 c 128,-1,20
 1042 47 1042 47 1007 132 c 1,21,22
 913 -28 913 -28 740 -28 c 0,23,24
 590 -28 590 -28 529 68 c 1,25,-1
 529 -427 l 1,26,-1
 174 -427 l 1,27,-1
 174 1113 l 1,0,-1
EndSplineSet
EndChar
StartChar: partialdiff
Encoding: 8706 8706 152
Width: 1104
VWidth: 3555
Flags: W
HStem: -24 78<371.886 570.644> 764 94<452.334 640.97> 1238 113<561.5 764.524>
VStem: 61 265<188.302 575.826> 804 241<683.534 1049.05>
Fore
760 679 m 1,0,1
 804 910 804 910 804 1031 c 0,2,3
 804 1120 804 1120 775 1179 c 128,-1,4
 746 1238 746 1238 708 1238 c 0,5,6
 675 1238 675 1238 573 1144 c 0,7,8
 479 1055 479 1055 394 1055 c 0,9,10
 349 1055 349 1055 317 1089 c 128,-1,11
 285 1123 285 1123 285 1174 c 0,12,13
 285 1205 285 1205 310 1237 c 128,-1,14
 335 1269 335 1269 377.5 1294 c 128,-1,15
 420 1319 420 1319 474.5 1335 c 128,-1,16
 529 1351 529 1351 594 1351 c 0,17,18
 807 1351 807 1351 926 1191 c 128,-1,19
 1045 1031 1045 1031 1045 753 c 0,20,21
 1045 417 1045 417 885 196 c 256,22,23
 726 -24 726 -24 469 -24 c 0,24,25
 288 -24 288 -24 174.5 91.5 c 128,-1,26
 61 207 61 207 61 387 c 0,27,28
 61 491 61 491 91.5 576 c 128,-1,29
 122 661 122 661 176.5 723.5 c 128,-1,30
 231 786 231 786 307.5 822 c 128,-1,31
 384 858 384 858 472 858 c 0,32,33
 573 858 573 858 642.5 812.5 c 128,-1,34
 712 767 712 767 760 679 c 1,0,1
693 529 m 0,35,36
 693 641 693 641 655.5 702.5 c 128,-1,37
 618 764 618 764 547 764 c 0,38,39
 458 764 458 764 392 631 c 128,-1,40
 326 498 326 498 326 285 c 0,41,42
 326 54 326 54 469 54 c 0,43,44
 569 54 569 54 631 185 c 128,-1,45
 693 316 693 316 693 529 c 0,35,36
EndSplineSet
EndChar
StartChar: summation
Encoding: 8721 8721 153
Width: 1459
VWidth: 3555
Flags: W
HStem: -387 259<495 1415> 1198 267<495 1361>
Fore
1361 1465 m 1,0,-1
 1361 1198 l 1,1,-1
 495 1198 l 1,2,-1
 1109 559 l 1,3,-1
 495 -128 l 1,4,-1
 1415 -128 l 1,5,-1
 1415 -387 l 1,6,-1
 43 -387 l 1,7,-1
 43 -220 l 1,8,-1
 733 543 l 1,9,-1
 68 1234 l 1,10,-1
 68 1465 l 1,11,-1
 1361 1465 l 1,0,-1
EndSplineSet
EndChar
StartChar: product
Encoding: 8719 8719 154
Width: 1598
VWidth: 3555
Flags: W
HStem: 1177 288<495 1106>
VStem: 153 342<-387 1177> 1106 345<-387 1177>
Fore
1451 1465 m 1,0,-1
 1451 -387 l 1,1,-1
 1106 -387 l 1,2,-1
 1106 1177 l 1,3,-1
 495 1177 l 1,4,-1
 495 -387 l 1,5,-1
 153 -387 l 1,6,-1
 153 1465 l 1,7,-1
 1451 1465 l 1,0,-1
EndSplineSet
EndChar
StartChar: pi
Encoding: 960 960 155
Width: 1307
VWidth: 3555
Flags: W
HStem: 0 21G<174 461.468 693 980.538> 865 220<281.966 319 608 845 1130 1305>
VStem: -31 208<758.029 879.057>
Fore
1305 865 m 1,0,-1
 1130 865 l 1,1,-1
 977 0 l 1,2,-1
 693 0 l 1,3,-1
 845 865 l 1,4,-1
 608 865 l 1,5,-1
 458 0 l 1,6,-1
 174 0 l 1,7,-1
 319 865 l 1,8,-1
 299 865 l 2,9,10
 193 865 193 865 177 733 c 1,11,-1
 -31 733 l 1,12,13
 -17 828 -17 828 11.5 895.5 c 128,-1,14
 40 963 40 963 89.5 1006 c 128,-1,15
 139 1049 139 1049 213.5 1067 c 128,-1,16
 288 1085 288 1085 394 1085 c 2,17,-1
 1344 1085 l 1,18,-1
 1305 865 l 1,0,-1
EndSplineSet
EndChar
StartChar: integral
Encoding: 8747 8747 156
Width: 1236
VWidth: 3555
Flags: W
HStem: -370 129<231 401.144> 1422 125<841.276 1009.5>
VStem: 484 273<505.216 711 760 1027.25>
Fore
359 -241 m 0,0,1
 458 -241 458 -241 476 417 c 0,2,3
 479 465 479 465 481.5 504 c 128,-1,4
 484 543 484 543 484 569 c 0,5,6
 502 1088 502 1088 614 1317.5 c 128,-1,7
 726 1547 726 1547 957 1547 c 0,8,9
 1062 1547 1062 1547 1126.5 1495 c 128,-1,10
 1191 1443 1191 1443 1191 1354 c 0,11,12
 1191 1293 1191 1293 1150 1254 c 128,-1,13
 1109 1215 1109 1215 1045 1215 c 0,14,15
 913 1215 913 1215 913 1361 c 0,16,17
 913 1401 913 1401 906 1411.5 c 128,-1,18
 899 1422 899 1422 882 1422 c 0,19,20
 790 1422 790 1422 760 760 c 0,21,22
 760 733 760 733 760 711 c 128,-1,23
 760 689 760 689 757 672 c 1,24,25
 750 509 750 509 743 391.5 c 128,-1,26
 736 274 736 274 729 203 c 256,27,28
 722 132 722 132 705.5 69.5 c 128,-1,29
 689 7 689 7 672 -43 c 0,30,31
 543 -370 543 -370 285 -370 c 0,32,33
 177 -370 177 -370 115.5 -318.5 c 128,-1,34
 54 -267 54 -267 54 -177 c 0,35,36
 54 -118 54 -118 94.5 -79 c 128,-1,37
 135 -40 135 -40 203 -40 c 0,38,39
 264 -40 264 -40 295 -77.5 c 128,-1,40
 326 -115 326 -115 326 -177 c 0,41,42
 326 -193 326 -193 323 -200 c 1,43,44
 323 -210 323 -210 326.5 -225.5 c 128,-1,45
 330 -241 330 -241 359 -241 c 0,0,1
EndSplineSet
EndChar
StartChar: ordfeminine
Encoding: 170 170 157
Width: 1147
VWidth: 3555
Flags: W
HStem: 370 199<174 981> 689 165<417.207 632.49> 1078 130<456.707 726> 1344 163<371.118 699.824>
VStem: 156 245<872.554 1042.93> 729 262<924.451 1078 1208 1311.5> 750 241<712 838>
Fore
981 569 m 1,0,-1
 981 370 l 1,1,-1
 174 370 l 1,2,-1
 174 569 l 1,3,-1
 981 569 l 1,0,-1
641 1078 m 1,4,5
 509 1078 509 1078 455 1049.5 c 128,-1,6
 401 1021 401 1021 401 960 c 0,7,8
 401 854 401 854 529 854 c 0,9,10
 611 854 611 854 670 908.5 c 128,-1,11
 729 963 729 963 729 1049 c 2,12,-1
 729 1078 l 1,13,-1
 641 1078 l 1,4,5
991 712 m 1,14,-1
 750 712 l 1,15,-1
 750 838 l 1,16,17
 693 760 693 760 626 724.5 c 128,-1,18
 559 689 559 689 462 689 c 0,19,20
 312 689 312 689 234 757 c 128,-1,21
 156 825 156 825 156 939 c 0,22,23
 156 1082 156 1082 261 1145 c 128,-1,24
 366 1208 366 1208 590 1208 c 2,25,-1
 726 1208 l 1,26,-1
 726 1234 l 2,27,28
 726 1344 726 1344 547 1344 c 0,29,30
 384 1344 384 1344 224 1272 c 1,31,-1
 224 1455 l 1,32,33
 312 1483 312 1483 398 1495 c 128,-1,34
 484 1507 484 1507 559 1507 c 0,35,36
 783 1507 783 1507 887 1420 c 128,-1,37
 991 1333 991 1333 991 1160 c 2,38,-1
 991 712 l 1,14,-1
EndSplineSet
EndChar
StartChar: ordmasculine
Encoding: 186 186 158
Width: 1147
VWidth: 3555
Flags: W
HStem: 370 199<163 981> 693 172<460.372 689.345> 1340 167<464.143 686.916>
VStem: 118 280<931.263 1270.45> 746 285<923.233 1279.2>
Fore
573 1507 m 256,0,1
 786 1507 786 1507 908.5 1398.5 c 128,-1,2
 1031 1290 1031 1290 1031 1099 c 256,3,4
 1031 906 1031 906 910.5 799.5 c 128,-1,5
 790 693 790 693 573 693 c 0,6,7
 359 693 359 693 238.5 799.5 c 128,-1,8
 118 906 118 906 118 1099 c 256,9,10
 118 1290 118 1290 238.5 1398.5 c 128,-1,11
 359 1507 359 1507 573 1507 c 256,0,1
981 569 m 1,12,-1
 981 370 l 1,13,-1
 163 370 l 1,14,-1
 163 569 l 1,15,-1
 981 569 l 1,12,-1
573 1340 m 0,16,17
 495 1340 495 1340 446.5 1277.5 c 128,-1,18
 398 1215 398 1215 398 1099 c 0,19,20
 398 984 398 984 446.5 924.5 c 128,-1,21
 495 865 495 865 573 865 c 0,22,23
 746 865 746 865 746 1099 c 0,24,25
 746 1340 746 1340 573 1340 c 0,16,17
EndSplineSet
EndChar
StartChar: Omega
Encoding: 937 937 159
Width: 1564
VWidth: 3555
Flags: W
HStem: 0 252<57 345 1224 1507> 1234 262<590.522 968.941>
VStem: 95 306<555.273 1029.52> 1160 305<555.807 1029.52>
Fore
1507 252 m 1,0,-1
 1507 0 l 1,1,-1
 899 0 l 1,2,-1
 899 288 l 1,3,4
 1028 373 1028 373 1094 505 c 128,-1,5
 1160 637 1160 637 1160 800 c 0,6,7
 1160 1003 1160 1003 1058.5 1118.5 c 128,-1,8
 957 1234 957 1234 783 1234 c 0,9,10
 601 1234 601 1234 501 1118.5 c 128,-1,11
 401 1003 401 1003 401 800 c 0,12,13
 401 637 401 637 467 505 c 128,-1,14
 533 373 533 373 658 288 c 1,15,-1
 658 0 l 1,16,-1
 57 0 l 1,17,-1
 57 252 l 1,18,-1
 345 252 l 1,19,20
 95 488 95 488 95 814 c 0,21,22
 95 970 95 970 144 1094.5 c 128,-1,23
 193 1219 193 1219 283 1310 c 128,-1,24
 373 1401 373 1401 499 1448.5 c 128,-1,25
 625 1496 625 1496 783 1496 c 256,26,27
 939 1496 939 1496 1063 1448.5 c 128,-1,28
 1187 1401 1187 1401 1277.5 1310 c 128,-1,29
 1368 1219 1368 1219 1416.5 1094.5 c 128,-1,30
 1465 970 1465 970 1465 814 c 0,31,32
 1465 651 1465 651 1402.5 512 c 128,-1,33
 1340 373 1340 373 1224 252 c 1,34,-1
 1507 252 l 1,0,-1
EndSplineSet
EndChar
StartChar: ae
Encoding: 230 230 160
Width: 2128
VWidth: 3555
Flags: W
HStem: -28 235<489.324 741.896 1319.58 1685.15> 458 217<1208 1668> 502 210<494.063 858> 899 238<472.479 793.897 1303.71 1590.08>
Fore
1668 675 m 1,0,1
 1668 779 1668 779 1609 839 c 128,-1,2
 1550 899 1550 899 1455 899 c 0,3,4
 1245 899 1245 899 1208 675 c 1,5,-1
 1668 675 l 1,0,1
668 502 m 1,6,7
 448 502 448 502 448 352 c 0,8,9
 448 285 448 285 490.5 246 c 128,-1,10
 533 207 533 207 615 207 c 0,11,12
 719 207 719 207 788.5 279.5 c 128,-1,13
 858 352 858 352 858 462 c 2,14,-1
 858 502 l 1,15,-1
 668 502 l 1,6,7
184 1085 m 1,16,17
 302 1109 302 1109 414 1123 c 128,-1,18
 526 1137 526 1137 618 1137 c 0,19,20
 767 1137 767 1137 875.5 1099.5 c 128,-1,21
 984 1062 984 1062 1055 981 c 1,22,23
 1205 1137 1205 1137 1458 1137 c 0,24,25
 1717 1137 1717 1137 1875 981 c 128,-1,26
 2033 825 2033 825 2033 559 c 2,27,-1
 2033 458 l 1,28,-1
 1201 458 l 1,29,30
 1231 207 1231 207 1507 207 c 0,31,32
 1727 207 1727 207 1981 342 c 1,33,-1
 1981 68 l 1,34,35
 1852 17 1852 17 1726.5 -5.5 c 128,-1,36
 1601 -28 1601 -28 1476 -28 c 0,37,38
 1293 -28 1293 -28 1164 25 c 128,-1,39
 1035 78 1035 78 963 177 c 1,40,41
 779 -28 779 -28 505 -28 c 0,42,43
 309 -28 309 -28 197 67.5 c 128,-1,44
 85 163 85 163 85 335 c 0,45,46
 85 529 85 529 220.5 620.5 c 128,-1,47
 356 712 356 712 644 712 c 2,48,-1
 858 712 l 1,49,-1
 858 740 l 2,50,51
 858 825 858 825 790 862 c 128,-1,52
 722 899 722 899 580 899 c 0,53,54
 465 899 465 899 368 880 c 128,-1,55
 271 861 271 861 184 811 c 1,56,-1
 184 1085 l 1,16,17
EndSplineSet
EndChar
StartChar: oslash
Encoding: 248 248 161
Width: 1395
VWidth: 3555
Flags: W
HStem: -28 252<558.175 839.875> 882 255<554.226 805.383>
VStem: 85 373<436.958 772.373> 939 370<335.216 668.134>
Fore
854 832 m 1,0,1
 821 861 821 861 783.5 871.5 c 128,-1,2
 746 882 746 882 696 882 c 0,3,4
 458 882 458 882 458 554 c 0,5,6
 458 516 458 516 460 483.5 c 128,-1,7
 462 451 462 451 469 424 c 1,8,-1
 854 832 l 1,0,1
540 285 m 1,9,10
 601 224 601 224 696 224 c 0,11,12
 818 224 818 224 878.5 309 c 128,-1,13
 939 394 939 394 939 554 c 0,14,15
 939 641 939 641 924 693 c 1,16,-1
 540 285 l 1,9,10
220 156 m 1,17,18
 85 312 85 312 85 554 c 0,19,20
 85 832 85 832 247.5 984.5 c 128,-1,21
 410 1137 410 1137 696 1137 c 0,22,23
 910 1137 910 1137 1055 1049 c 1,24,-1
 1205 1208 l 1,25,-1
 1312 1109 l 1,26,-1
 1174 960 l 1,27,28
 1309 804 1309 804 1309 554 c 0,29,30
 1309 278 1309 278 1146.5 125 c 128,-1,31
 984 -28 984 -28 696 -28 c 0,32,33
 590 -28 590 -28 501.5 -7 c 128,-1,34
 413 14 413 14 339 64 c 1,35,-1
 189 -92 l 1,36,-1
 78 0 l 1,37,-1
 220 156 l 1,17,18
EndSplineSet
EndChar
StartChar: questiondown
Encoding: 191 191 162
Width: 1178
VWidth: 3555
Flags: W
HStem: -28 259<543.44 809.77> 1127 356<488 842>
VStem: 488 354<854.612 977 1127 1483>
Fore
842 977 m 1,0,-1
 842 932 l 2,1,2
 842 854 842 854 810.5 790 c 128,-1,3
 779 726 779 726 668 621 c 2,4,-1
 604 569 l 2,5,6
 547 519 547 519 524.5 475 c 128,-1,7
 502 431 502 431 502 380 c 0,8,9
 502 231 502 231 679 231 c 0,10,11
 845 231 845 231 1045 366 c 1,12,-1
 1045 54 l 1,13,14
 929 10 929 10 829 -9 c 128,-1,15
 729 -28 729 -28 637 -28 c 0,16,17
 142 -28 142 -28 142 359 c 0,18,19
 142 455 142 455 179.5 531.5 c 128,-1,20
 217 608 217 608 309 693 c 2,21,-1
 373 753 l 2,22,23
 444 818 444 818 466 853.5 c 128,-1,24
 488 889 488 889 488 936 c 2,25,-1
 488 977 l 1,26,-1
 842 977 l 1,0,-1
488 1127 m 1,27,-1
 488 1483 l 1,28,-1
 842 1483 l 1,29,-1
 842 1127 l 1,30,-1
 488 1127 l 1,27,-1
EndSplineSet
EndChar
StartChar: exclamdown
Encoding: 161 161 163
Width: 927
VWidth: 3555
Flags: W
HStem: 0 21G<285 644> 1127 356<285 644>
VStem: 285 359<0 615.876 1127 1483>
Fore
285 569 m 1,0,-1
 339 981 l 1,1,-1
 590 981 l 1,2,-1
 644 569 l 1,3,-1
 644 0 l 1,4,-1
 285 0 l 1,5,-1
 285 569 l 1,0,-1
285 1483 m 1,6,-1
 644 1483 l 1,7,-1
 644 1127 l 1,8,-1
 285 1127 l 1,9,-1
 285 1483 l 1,6,-1
EndSplineSet
EndChar
StartChar: logicalnot
Encoding: 172 172 164
Width: 1701
VWidth: 3555
Flags: W
HStem: 668 231<214 1252>
VStem: 1252 234<285 668>
Fore
1486 899 m 1,0,-1
 1486 285 l 1,1,-1
 1252 285 l 1,2,-1
 1252 668 l 1,3,-1
 214 668 l 1,4,-1
 214 899 l 1,5,-1
 1486 899 l 1,0,-1
EndSplineSet
EndChar
StartChar: radical
Encoding: 8730 8730 165
Width: 1354
VWidth: 3555
Flags: W
HStem: 1554 146<1262 1358>
Fore
1358 1700 m 1,0,-1
 1358 1554 l 1,1,-1
 1262 1554 l 1,2,-1
 679 -43 l 1,3,-1
 562 -43 l 1,4,-1
 252 800 l 1,5,-1
 115 746 l 1,6,-1
 78 875 l 1,7,-1
 434 998 l 1,8,-1
 654 370 l 1,9,-1
 1149 1700 l 1,10,-1
 1358 1700 l 1,0,-1
EndSplineSet
EndChar
StartChar: florin
Encoding: 402 402 166
Width: 1414
VWidth: 3555
Flags: W
HStem: -424 240<149.169 302.996> 651 234<271 512 903 1191> 1309 238<1025.29 1233.92>
Fore
1323 1252 m 1,0,1
 1234 1309 1234 1309 1160 1309 c 0,2,3
 1062 1309 1062 1309 1012.5 1251.5 c 128,-1,4
 963 1194 963 1194 939 1055 c 2,5,-1
 903 885 l 1,6,-1
 1191 885 l 1,7,-1
 1191 651 l 1,8,-1
 861 651 l 1,9,-1
 729 -14 l 2,10,11
 686 -220 686 -220 574 -322 c 128,-1,12
 462 -424 462 -424 271 -424 c 0,13,14
 207 -424 207 -424 141 -412.5 c 128,-1,15
 75 -401 75 -401 3 -384 c 1,16,-1
 3 -132 l 1,17,18
 54 -160 54 -160 96.5 -172 c 128,-1,19
 139 -184 139 -184 177 -184 c 0,20,21
 267 -184 267 -184 315 -129.5 c 128,-1,22
 363 -75 363 -75 391 68 c 2,23,-1
 512 651 l 1,24,-1
 271 651 l 1,25,-1
 271 885 l 1,26,-1
 554 885 l 1,27,-1
 604 1137 l 2,28,29
 689 1547 689 1547 1059 1547 c 0,30,31
 1127 1547 1127 1547 1191 1538 c 128,-1,32
 1255 1529 1255 1529 1323 1503 c 1,33,-1
 1323 1252 l 1,0,1
EndSplineSet
EndChar
StartChar: approxequal
Encoding: 8776 8776 167
Width: 1701
VWidth: 3555
Flags: W
HStem: 241 235<928.981 1297.33> 384 227<401.28 767.042> 661 228<935.576 1297.33> 800 228<393.69 768.125>
Fore
1486 811 m 1,0,1
 1384 729 1384 729 1294.5 695 c 128,-1,2
 1205 661 1205 661 1109 661 c 0,3,4
 998 661 998 661 865 719 c 0,5,6
 842 726 842 726 838 729 c 1,7,8
 818 736 l 2,9,10
 665 800 665 800 569 800 c 0,11,12
 398 800 398 800 214 641 c 1,13,-1
 214 882 l 1,14,15
 417 1028 417 1028 594 1028 c 0,16,17
 696 1028 696 1028 845 967 c 0,18,19
 865 960 865 960 868 960 c 1,20,21
 871 957 871 957 874.5 957 c 128,-1,22
 878 957 878 957 885 953 c 0,23,24
 1042 889 1042 889 1134 889 c 0,25,26
 1224 889 1224 889 1305.5 928 c 128,-1,27
 1387 967 1387 967 1486 1049 c 1,28,-1
 1486 811 l 1,0,1
1486 391 m 1,29,30
 1384 312 1384 312 1294.5 276.5 c 128,-1,31
 1205 241 1205 241 1109 241 c 0,32,33
 1007 241 1007 241 865 302 c 0,34,35
 842 309 842 309 838 312 c 1,36,37
 818 319 l 2,38,39
 665 384 665 384 569 384 c 0,40,41
 398 384 398 384 214 224 c 1,42,-1
 214 465 l 1,43,44
 319 540 319 540 410.5 575.5 c 128,-1,45
 502 611 502 611 594 611 c 0,46,47
 705 611 705 611 842 554 c 0,48,49
 865 547 865 547 868 543 c 256,50,51
 871 540 871 540 874.5 540 c 128,-1,52
 878 540 878 540 885 536 c 0,53,54
 1045 476 1045 476 1134 476 c 256,55,56
 1224 476 1224 476 1305.5 511.5 c 128,-1,57
 1387 547 1387 547 1486 637 c 1,58,-1
 1486 391 l 1,29,30
EndSplineSet
EndChar
StartChar: Delta
Encoding: 8710 8710 168
Width: 1414
VWidth: 3555
Flags: W
HStem: 0 252<384 1031>
Fore
384 252 m 1,0,-1
 1031 252 l 1,1,-1
 708 1102 l 1,2,-1
 384 252 l 1,0,-1
861 1465 m 1,3,-1
 1415 0 l 1,4,-1
 0 0 l 1,5,-1
 559 1465 l 1,6,-1
 861 1465 l 1,3,-1
EndSplineSet
EndChar
StartChar: guillemotleft
Encoding: 171 171 169
Width: 1310
VWidth: 3555
Flags: W
HStem: 139 916<648 648>
VStem: 156 967<505 818>
Fore
648 818 m 1,0,-1
 356 594 l 1,1,-1
 648 377 l 1,2,-1
 648 139 l 1,3,-1
 156 505 l 1,4,-1
 156 686 l 1,5,-1
 648 1055 l 1,6,-1
 648 818 l 1,0,-1
1123 818 m 1,7,-1
 832 594 l 1,8,-1
 1123 377 l 1,9,-1
 1123 139 l 1,10,-1
 634 505 l 1,11,-1
 634 686 l 1,12,-1
 1123 1055 l 1,13,-1
 1123 818 l 1,7,-1
EndSplineSet
EndChar
StartChar: guillemotright
Encoding: 187 187 170
Width: 1310
VWidth: 3555
Flags: W
HStem: 139 916<668 668>
VStem: 193 967<139 686>
Fore
1160 686 m 1,0,-1
 1160 505 l 1,1,-1
 668 139 l 1,2,-1
 668 377 l 1,3,-1
 957 594 l 1,4,-1
 668 818 l 1,5,-1
 668 1055 l 1,6,-1
 1160 686 l 1,0,-1
679 686 m 1,7,-1
 679 505 l 1,8,-1
 193 139 l 1,9,-1
 193 377 l 1,10,-1
 484 594 l 1,11,-1
 193 818 l 1,12,-1
 193 1055 l 1,13,-1
 679 686 l 1,7,-1
EndSplineSet
EndChar
StartChar: ellipsis
Encoding: 8230 8230 171
Width: 2032
VWidth: 3555
Flags: W
HStem: 0 384<160 519 838 1194 1517 1870>
VStem: 160 359<0 384> 838 356<0 384> 1517 353<0 384>
Fore
1870 384 m 1,0,-1
 1870 0 l 1,1,-1
 1517 0 l 1,2,-1
 1517 384 l 1,3,-1
 1870 384 l 1,0,-1
519 384 m 1,4,-1
 519 0 l 1,5,-1
 160 0 l 1,6,-1
 160 384 l 1,7,-1
 519 384 l 1,4,-1
1194 384 m 1,8,-1
 1194 0 l 1,9,-1
 838 0 l 1,10,-1
 838 384 l 1,11,-1
 1194 384 l 1,8,-1
EndSplineSet
EndChar
StartChar: Agrave
Encoding: 192 192 173
Width: 1574
VWidth: 3555
Flags: W
HStem: 0 21G<10 398.38 1173.21 1564> 271 269<583 988> 1463 20G<551.596 1021.42>
Fore
491 271 m 1,0,-1
 391 0 l 1,1,-1
 10 0 l 1,2,-1
 559 1483 l 1,3,-1
 1014 1483 l 1,4,-1
 1564 0 l 1,5,-1
 1180 0 l 1,6,-1
 1088 271 l 1,7,-1
 491 271 l 1,0,-1
988 540 m 1,8,-1
 790 1134 l 1,9,-1
 583 540 l 1,10,-1
 988 540 l 1,8,-1
906 1621 m 1,11,-1
 715 1621 l 1,12,-1
 431 1887 l 1,13,-1
 712 1887 l 1,14,-1
 906 1621 l 1,11,-1
EndSplineSet
EndChar
StartChar: Atilde
Encoding: 195 195 174
Width: 1574
VWidth: 3555
Flags: W
HStem: 0 21G<10 398.38 1173.21 1564> 271 269<583 988> 1463 20G<551.596 1021.42> 1621 150<857.881 957.454> 1738 149<564.126 688.17>
VStem: 417 137<1621 1732.47> 970 139<1778.42 1869.17 1869.83 1887>
Fore
491 271 m 1,0,-1
 391 0 l 1,1,-1
 10 0 l 1,2,-1
 559 1483 l 1,3,-1
 1014 1483 l 1,4,-1
 1564 0 l 1,5,-1
 1180 0 l 1,6,-1
 1088 271 l 1,7,-1
 491 271 l 1,0,-1
988 540 m 1,8,-1
 790 1134 l 1,9,-1
 583 540 l 1,10,-1
 988 540 l 1,8,-1
708 1703 m 2,11,12
 705 1706 705 1706 702.5 1706 c 128,-1,13
 700 1706 700 1706 696 1710 c 0,14,15
 648 1738 648 1738 625 1738 c 0,16,17
 554 1738 554 1738 554 1625 c 2,18,-1
 554 1621 l 1,19,-1
 417 1621 l 1,20,-1
 417 1649 l 2,21,22
 417 1757 417 1757 470 1822 c 128,-1,23
 523 1887 523 1887 611 1887 c 0,24,25
 672 1887 672 1887 760 1838 c 2,26,-1
 818 1798 l 2,27,28
 865 1771 865 1771 892 1771 c 0,29,30
 970 1771 970 1771 970 1887 c 1,31,-1
 1109 1887 l 1,32,33
 1109 1880 1109 1880 1107.5 1869.5 c 128,-1,34
 1106 1859 1106 1859 1106 1856 c 0,35,36
 1106 1753 1106 1753 1052 1687 c 128,-1,37
 998 1621 998 1621 910 1621 c 0,38,39
 871 1621 871 1621 835.5 1631.5 c 128,-1,40
 800 1642 800 1642 764 1672 c 1,41,-1
 708 1703 l 2,11,12
EndSplineSet
EndChar
StartChar: Otilde
Encoding: 213 213 175
Width: 1727
VWidth: 3555
Flags: W
HStem: -28 273<686.71 1039.81> 1234 273<686.71 1039.81> 1621 150<939.491 1039.62> 1738 149<647.622 770.013>
VStem: 99 399<469.028 1010.2> 498 139<1621 1732.47> 1052 139<1778.42 1869.17 1869.83 1887> 1234 391<471.584 1007.65>
Fore
868 1234 m 0,0,1
 686 1234 686 1234 592 1104 c 128,-1,2
 498 974 498 974 498 740 c 256,3,4
 498 505 498 505 592 375 c 128,-1,5
 686 245 686 245 868 245 c 0,6,7
 1038 245 1038 245 1136 375 c 128,-1,8
 1234 505 1234 505 1234 740 c 256,9,10
 1234 974 1234 974 1136 1104 c 128,-1,11
 1038 1234 1038 1234 868 1234 c 0,0,1
868 1507 m 256,12,13
 1231 1507 1231 1507 1428 1304.5 c 128,-1,14
 1625 1102 1625 1102 1625 740 c 256,15,16
 1625 377 1625 377 1428 174.5 c 128,-1,17
 1231 -28 1231 -28 868 -28 c 256,18,19
 505 -28 505 -28 302 174.5 c 128,-1,20
 99 377 99 377 99 740 c 256,21,22
 99 1102 99 1102 302 1304.5 c 128,-1,23
 505 1507 505 1507 868 1507 c 256,12,13
790 1703 m 2,24,25
 786 1706 786 1706 784.5 1706 c 128,-1,26
 783 1706 783 1706 779 1710 c 0,27,28
 729 1738 729 1738 708 1738 c 0,29,30
 637 1738 637 1738 637 1625 c 2,31,-1
 637 1621 l 1,32,-1
 498 1621 l 1,33,-1
 498 1649 l 2,34,35
 498 1757 498 1757 551 1822 c 128,-1,36
 604 1887 604 1887 693 1887 c 0,37,38
 753 1887 753 1887 842 1838 c 2,39,-1
 899 1798 l 2,40,41
 946 1771 946 1771 974 1771 c 0,42,43
 1052 1771 1052 1771 1052 1887 c 1,44,-1
 1191 1887 l 1,45,46
 1191 1880 1191 1880 1189 1869.5 c 128,-1,47
 1187 1859 1187 1859 1187 1856 c 0,48,49
 1187 1753 1187 1753 1134.5 1687 c 128,-1,50
 1082 1621 1082 1621 991 1621 c 0,51,52
 953 1621 953 1621 917.5 1631.5 c 128,-1,53
 882 1642 882 1642 845 1672 c 1,54,-1
 790 1703 l 2,24,25
EndSplineSet
EndChar
StartChar: OE
Encoding: 338 338 176
Width: 2371
VWidth: 3555
Flags: W
HStem: 0 288<766.469 1174 1554 2226> 628 285<1554 2161> 1194 289<766.469 1174 1554 2205>
VStem: 99 399<523.407 958.968> 1174 380<288 628 913 1194>
Fore
1066 1194 m 2,0,1
 498 1194 498 1194 498 743 c 0,2,3
 498 288 498 288 1066 288 c 2,4,-1
 1174 288 l 1,5,-1
 1174 1194 l 1,6,-1
 1066 1194 l 2,0,1
2205 1483 m 1,7,-1
 2205 1194 l 1,8,-1
 1554 1194 l 1,9,-1
 1554 913 l 1,10,-1
 2161 913 l 1,11,-1
 2161 628 l 1,12,-1
 1554 628 l 1,13,-1
 1554 288 l 1,14,-1
 2226 288 l 1,15,-1
 2226 0 l 1,16,-1
 1085 0 l 1,17,-1
 1010 0 l 2,18,19
 569 0 569 0 334 190 c 128,-1,20
 99 380 99 380 99 743 c 0,21,22
 99 1099 99 1099 334 1291 c 128,-1,23
 569 1483 569 1483 1010 1483 c 2,24,-1
 1085 1483 l 1,25,-1
 2205 1483 l 1,7,-1
EndSplineSet
EndChar
StartChar: oe
Encoding: 339 339 177
Width: 2225
VWidth: 3555
Flags: W
HStem: -28 252<559.191 839.639> -28 235<1412.03 1776.26> 458 217<1302 1764> 882 255<554.226 838.221> 899 238<1394.92 1681.17>
VStem: 85 373<335.216 772.801>
Fore
1764 675 m 1,0,1
 1764 779 1764 779 1701.5 839 c 128,-1,2
 1639 899 1639 899 1547 899 c 0,3,4
 1448 899 1448 899 1382 844.5 c 128,-1,5
 1316 790 1316 790 1302 675 c 1,6,-1
 1764 675 l 1,0,1
2127 458 m 1,7,-1
 1299 458 l 1,8,9
 1319 207 1319 207 1604 207 c 0,10,11
 1812 207 1812 207 2073 342 c 1,12,-1
 2073 68 l 1,13,14
 1944 17 1944 17 1818.5 -5.5 c 128,-1,15
 1693 -28 1693 -28 1571 -28 c 0,16,17
 1401 -28 1401 -28 1297.5 13 c 128,-1,18
 1194 54 1194 54 1123 139 c 1,19,20
 950 -28 950 -28 696 -28 c 0,21,22
 410 -28 410 -28 247.5 125 c 128,-1,23
 85 278 85 278 85 554 c 256,24,25
 85 832 85 832 247.5 984.5 c 128,-1,26
 410 1137 410 1137 696 1137 c 0,27,28
 963 1137 963 1137 1116 970 c 1,29,30
 1198 1055 1198 1055 1297.5 1096 c 128,-1,31
 1397 1137 1397 1137 1533 1137 c 0,32,33
 1809 1137 1809 1137 1968 982.5 c 128,-1,34
 2127 828 2127 828 2127 559 c 2,35,-1
 2127 458 l 1,7,-1
696 882 m 0,36,37
 458 882 458 882 458 554 c 0,38,39
 458 394 458 394 519 309 c 128,-1,40
 580 224 580 224 696 224 c 0,41,42
 818 224 818 224 878.5 309 c 128,-1,43
 939 394 939 394 939 554 c 0,44,45
 939 882 939 882 696 882 c 0,36,37
EndSplineSet
EndChar
StartChar: endash
Encoding: 8211 8211 178
Width: 1015
VWidth: 3555
Flags: W
HStem: 431 255<0 1017>
Fore
1017 686 m 1,0,-1
 1017 431 l 1,1,-1
 0 431 l 1,2,-1
 0 686 l 1,3,-1
 1017 686 l 1,0,-1
EndSplineSet
EndChar
StartChar: emdash
Encoding: 8212 8212 179
Width: 2032
VWidth: 3555
Flags: W
HStem: 431 255<0 2033>
Fore
2033 686 m 1,0,-1
 2033 431 l 1,1,-1
 0 431 l 1,2,-1
 0 686 l 1,3,-1
 2033 686 l 1,0,-1
EndSplineSet
EndChar
StartChar: quotedblleft
Encoding: 8220 8220 180
Width: 1333
VWidth: 3555
Flags: W
HStem: 1463 20G<423.991 648 923.309 1153>
VStem: 210 333<854 1134> 712 337<854 1130>
Fore
712 854 m 1,0,-1
 712 1130 l 1,1,-1
 936 1483 l 1,2,-1
 1153 1483 l 1,3,-1
 1049 1130 l 1,4,-1
 1049 854 l 1,5,-1
 712 854 l 1,0,-1
210 854 m 1,6,-1
 210 1134 l 1,7,-1
 437 1483 l 1,8,-1
 648 1483 l 1,9,-1
 543 1134 l 1,10,-1
 543 854 l 1,11,-1
 210 854 l 1,6,-1
EndSplineSet
EndChar
StartChar: quotedblright
Encoding: 8221 8221 181
Width: 1333
VWidth: 3555
Flags: W
HStem: 1463 20G<288 621 790 1127>
VStem: 288 333<1198 1483> 790 337<1198 1483>
Fore
621 1483 m 1,0,-1
 621 1198 l 1,1,-1
 398 854 l 1,2,-1
 184 854 l 1,3,-1
 288 1198 l 1,4,-1
 288 1483 l 1,5,-1
 621 1483 l 1,0,-1
1127 1483 m 1,6,-1
 1127 1198 l 1,7,-1
 899 854 l 1,8,-1
 689 854 l 1,9,-1
 790 1198 l 1,10,-1
 790 1483 l 1,11,-1
 1127 1483 l 1,6,-1
EndSplineSet
EndChar
StartChar: quoteleft
Encoding: 8216 8216 182
Width: 770
VWidth: 3555
Flags: W
HStem: 1463 20G<423.991 648>
VStem: 210 333<854 1134>
Fore
210 854 m 1,0,-1
 210 1134 l 1,1,-1
 437 1483 l 1,2,-1
 648 1483 l 1,3,-1
 543 1134 l 1,4,-1
 543 854 l 1,5,-1
 210 854 l 1,0,-1
EndSplineSet
EndChar
StartChar: quoteright
Encoding: 8217 8217 183
Width: 770
VWidth: 3555
Flags: W
HStem: 1463 20G<227 566>
VStem: 227 339<1198 1483>
Fore
566 1483 m 1,0,-1
 566 1198 l 1,1,-1
 342 854 l 1,2,-1
 132 854 l 1,3,-1
 227 1198 l 1,4,-1
 227 1483 l 1,5,-1
 566 1483 l 1,0,-1
EndSplineSet
EndChar
StartChar: divide
Encoding: 247 247 184
Width: 1701
VWidth: 3555
Flags: W
HStem: 85 306<696 1007> 523 230<214 1486> 882 309<696 1007>
VStem: 696 311<85 391 882 1191>
Fore
1007 391 m 1,0,-1
 1007 85 l 1,1,-1
 696 85 l 1,2,-1
 696 391 l 1,3,-1
 1007 391 l 1,0,-1
1007 1191 m 1,4,-1
 1007 882 l 1,5,-1
 696 882 l 1,6,-1
 696 1191 l 1,7,-1
 1007 1191 l 1,4,-1
1486 753 m 1,8,-1
 1486 523 l 1,9,-1
 214 523 l 1,10,-1
 214 753 l 1,11,-1
 1486 753 l 1,8,-1
EndSplineSet
EndChar
StartChar: lozenge
Encoding: 9674 9674 185
Width: 1005
VWidth: 3555
Flags: W
VStem: 3 995<587 587>
Fore
125 587 m 1,0,-1
 505 -231 l 1,1,-1
 882 587 l 1,2,-1
 505 1397 l 1,3,-1
 125 587 l 1,0,-1
998 587 m 1,4,-1
 505 -472 l 1,5,-1
 3 587 l 1,6,-1
 505 1639 l 1,7,-1
 998 587 l 1,4,-1
EndSplineSet
EndChar
StartChar: ydieresis
Encoding: 255 255 186
Width: 1321
VWidth: 3555
Flags: W
HStem: -441 234<203 444.583> 1093 20G<24 387.931 925.289 1286> 1326 249<352 587 743 977>
VStem: 352 235<1326 1575> 743 234<1326 1575>
Fore
380 1113 m 1,0,-1
 679 359 l 1,1,-1
 932 1113 l 1,2,-1
 1286 1113 l 1,3,-1
 821 -102 l 2,4,5
 750 -295 750 -295 656 -368 c 128,-1,6
 562 -441 562 -441 413 -441 c 2,7,-1
 203 -441 l 1,8,-1
 203 -207 l 1,9,-1
 312 -207 l 2,10,11
 401 -207 401 -207 446 -178 c 128,-1,12
 491 -149 491 -149 512 -75 c 2,13,-1
 523 -47 l 1,14,-1
 24 1113 l 1,15,-1
 380 1113 l 1,0,-1
587 1575 m 1,16,-1
 587 1326 l 1,17,-1
 352 1326 l 1,18,-1
 352 1575 l 1,19,-1
 587 1575 l 1,16,-1
977 1575 m 1,20,-1
 977 1326 l 1,21,-1
 743 1326 l 1,22,-1
 743 1575 l 1,23,-1
 977 1575 l 1,20,-1
EndSplineSet
EndChar
StartChar: Ydieresis
Encoding: 376 376 187
Width: 1470
VWidth: 3555
Flags: W
HStem: 0 21G<540 929> 1463 20G<-17 410.755 1065.09 1493> 1639 248<398 634 790 1024>
VStem: 398 236<1639 1887> 540 389<0 621> 790 234<1639 1887>
Fore
398 1483 m 1,0,-1
 736 953 l 1,1,-1
 1078 1483 l 1,2,-1
 1493 1483 l 1,3,-1
 929 621 l 1,4,-1
 929 0 l 1,5,-1
 540 0 l 1,6,-1
 540 621 l 1,7,-1
 -17 1483 l 1,8,-1
 398 1483 l 1,0,-1
634 1887 m 1,9,-1
 634 1639 l 1,10,-1
 398 1639 l 1,11,-1
 398 1887 l 1,12,-1
 634 1887 l 1,9,-1
1024 1887 m 1,13,-1
 1024 1639 l 1,14,-1
 790 1639 l 1,15,-1
 790 1887 l 1,16,-1
 1024 1887 l 1,13,-1
EndSplineSet
EndChar
StartChar: fraction
Encoding: 8725 8725 188
Width: 326
VWidth: 3555
Flags: W
HStem: -28 21G<-387 -161.924>
Fore
-387 -28 m 1,0,-1
 502 1451 l 1,1,-1
 719 1451 l 1,2,-1
 -174 -28 l 1,3,-1
 -387 -28 l 1,0,-1
EndSplineSet
EndChar
StartChar: currency
Encoding: 164 164 189
Width: 1293
VWidth: 3555
Flags: W
HStem: 210 210<540.723 784.937> 858 201<519.573 753.676>
VStem: 224 210<524.775 745.455> 868 210<501.009 770.023>
Fore
224 64 m 1,0,-1
 75 214 l 1,1,-1
 281 420 l 1,2,3
 248 465 248 465 236 519 c 128,-1,4
 224 573 224 573 224 637 c 0,5,6
 224 696 224 696 236 751.5 c 128,-1,7
 248 807 248 807 285 854 c 1,8,-1
 78 1055 l 1,9,-1
 227 1208 l 1,10,-1
 434 1003 l 1,11,12
 533 1059 533 1059 648 1059 c 0,13,14
 705 1059 705 1059 758 1047 c 128,-1,15
 811 1035 811 1035 868 1007 c 1,16,-1
 1073 1212 l 1,17,-1
 1227 1059 l 1,18,-1
 1017 858 l 1,19,20
 1078 743 1078 743 1078 637 c 0,21,22
 1078 516 1078 516 1014 424 c 1,23,-1
 1224 217 l 1,24,-1
 1066 68 l 1,25,-1
 865 271 l 1,26,27
 779 210 779 210 648 210 c 0,28,29
 590 210 590 210 539 222 c 128,-1,30
 488 234 488 234 434 267 c 1,31,-1
 224 64 l 1,0,-1
648 420 m 256,32,33
 740 420 740 420 804 480 c 128,-1,34
 868 540 868 540 868 637 c 0,35,36
 868 729 868 729 804 793.5 c 128,-1,37
 740 858 740 858 648 858 c 0,38,39
 559 858 559 858 496.5 793.5 c 128,-1,40
 434 729 434 729 434 637 c 0,41,42
 434 540 434 540 494 480 c 128,-1,43
 554 420 554 420 648 420 c 256,32,33
EndSplineSet
EndChar
StartChar: guilsinglleft
Encoding: 8249 8249 190
Width: 838
VWidth: 3555
Flags: W
HStem: 139 916<648 648>
VStem: 156 492<505 818>
Fore
648 818 m 1,0,-1
 356 594 l 1,1,-1
 648 377 l 1,2,-1
 648 139 l 1,3,-1
 156 505 l 1,4,-1
 156 686 l 1,5,-1
 648 1055 l 1,6,-1
 648 818 l 1,0,-1
EndSplineSet
EndChar
StartChar: guilsinglright
Encoding: 8250 8250 191
Width: 838
VWidth: 3555
Flags: W
HStem: 139 916<193 193>
VStem: 193 486<139 686>
Fore
679 686 m 1,0,-1
 679 505 l 1,1,-1
 193 139 l 1,2,-1
 193 377 l 1,3,-1
 484 594 l 1,4,-1
 193 818 l 1,5,-1
 193 1055 l 1,6,-1
 679 686 l 1,0,-1
EndSplineSet
EndChar
StartChar: fi
Encoding: 64257 64257 192
Width: 1506
VWidth: 3555
Flags: W
HStem: 0 21G<217 576 977 1333> 861 252<47 217 576 977> 1252 295<977 1333> 1312 235<605.917 634 634 903>
VStem: 217 359<0 861 1113 1282.6> 977 356<0 861 1252 1547>
Fore
1333 1547 m 1,0,-1
 1333 1252 l 1,1,-1
 977 1252 l 1,2,-1
 977 1547 l 1,3,-1
 1333 1547 l 1,0,-1
903 1312 m 1,4,-1
 708 1312 l 2,5,6
 634 1312 634 1312 605 1283.5 c 128,-1,7
 576 1255 576 1255 576 1191 c 2,8,-1
 576 1113 l 1,9,-1
 1333 1113 l 1,10,-1
 1333 0 l 1,11,-1
 977 0 l 1,12,-1
 977 861 l 1,13,-1
 576 861 l 1,14,-1
 576 0 l 1,15,-1
 217 0 l 1,16,-1
 217 861 l 1,17,-1
 47 861 l 1,18,-1
 47 1113 l 1,19,-1
 217 1113 l 1,20,-1
 217 1191 l 2,21,22
 217 1547 217 1547 634 1547 c 2,23,-1
 903 1547 l 1,24,-1
 903 1312 l 1,4,-1
EndSplineSet
Ligature2: "'liga' Standard Ligatures in Latin lookup 19 subtable" f i
EndChar
StartChar: fl
Encoding: 64258 64258 193
Width: 1506
VWidth: 3555
Flags: W
HStem: 0 21G<214 569 977 1333> 861 252<40 214 569 854> 1312 235<599.434 628 628 977>
VStem: 214 355<0 861 1113 1282.6> 977 356<0 1312>
Fore
1333 1547 m 1,0,-1
 1333 0 l 1,1,-1
 977 0 l 1,2,-1
 977 1312 l 1,3,-1
 708 1312 l 2,4,5
 628 1312 628 1312 598.5 1283.5 c 128,-1,6
 569 1255 569 1255 569 1191 c 2,7,-1
 569 1113 l 1,8,-1
 854 1113 l 1,9,-1
 854 861 l 1,10,-1
 569 861 l 1,11,-1
 569 0 l 1,12,-1
 214 0 l 1,13,-1
 214 861 l 1,14,-1
 40 861 l 1,15,-1
 40 1113 l 1,16,-1
 214 1113 l 1,17,-1
 214 1191 l 2,18,19
 214 1547 214 1547 628 1547 c 2,20,-1
 1333 1547 l 1,0,-1
EndSplineSet
Ligature2: "'liga' Standard Ligatures in Latin lookup 19 subtable" f l
EndChar
StartChar: daggerdbl
Encoding: 8225 8225 194
Width: 1015
VWidth: 3555
Flags: W
HStem: 177 243<54 342 668 957> 871 235<54 342 668 957> 1463 20G<342 668>
VStem: 342 326<-196 177 420 871 1106 1483>
Fore
668 1483 m 1,0,-1
 668 1106 l 1,1,-1
 957 1106 l 1,2,-1
 957 871 l 1,3,-1
 668 871 l 1,4,-1
 668 420 l 1,5,-1
 957 420 l 1,6,-1
 957 177 l 1,7,-1
 668 177 l 1,8,-1
 668 -196 l 1,9,-1
 342 -196 l 1,10,-1
 342 177 l 1,11,-1
 54 177 l 1,12,-1
 54 420 l 1,13,-1
 342 420 l 1,14,-1
 342 871 l 1,15,-1
 54 871 l 1,16,-1
 54 1106 l 1,17,-1
 342 1106 l 1,18,-1
 342 1483 l 1,19,-1
 668 1483 l 1,0,-1
EndSplineSet
EndChar
StartChar: periodcentered
Encoding: 183 183 195
Width: 770
VWidth: 3555
Flags: W
HStem: 516 380<207 566>
VStem: 207 359<516 896>
Fore
566 896 m 1,0,-1
 566 516 l 1,1,-1
 207 516 l 1,2,-1
 207 896 l 1,3,-1
 566 896 l 1,0,-1
EndSplineSet
EndChar
StartChar: quotesinglbase
Encoding: 8218 8218 196
Width: 770
VWidth: 3555
Flags: W
VStem: 241 342<99 384>
Fore
583 384 m 1,0,-1
 583 99 l 1,1,-1
 356 -245 l 1,2,-1
 149 -245 l 1,3,-1
 241 99 l 1,4,-1
 241 384 l 1,5,-1
 583 384 l 1,0,-1
EndSplineSet
EndChar
StartChar: quotedblbase
Encoding: 8222 8222 197
Width: 1333
VWidth: 3555
Flags: W
VStem: 241 342<99 384> 750 338<99 384>
Fore
583 384 m 1,0,-1
 583 99 l 1,1,-1
 356 -245 l 1,2,-1
 149 -245 l 1,3,-1
 241 99 l 1,4,-1
 241 384 l 1,5,-1
 583 384 l 1,0,-1
1088 384 m 1,6,-1
 1088 99 l 1,7,-1
 861 -245 l 1,8,-1
 648 -245 l 1,9,-1
 750 99 l 1,10,-1
 750 384 l 1,11,-1
 1088 384 l 1,6,-1
EndSplineSet
EndChar
StartChar: perthousand
Encoding: 8240 8240 198
Width: 2928
VWidth: 3555
Flags: W
HStem: -28 170<1472.54 1667.78 2384.27 2587.15> 611 168<1472.54 1667.78 2384.27 2587.15> 705 166<358.561 556.699> 1340 167<358.561 556.699>
VStem: 68 241<922.08 1289.53> 608 253<928.699 1283.06> 1177 248<191.926 560.92> 1720 254<204.919 549.112> 2083 254<191.926 560.92> 2635 245<191.926 560.92>
Fore
2486 611 m 256,0,1
 2337 611 2337 611 2337 377 c 256,2,3
 2337 142 2337 142 2486 142 c 256,4,5
 2635 142 2635 142 2635 377 c 256,6,7
 2635 611 2635 611 2486 611 c 256,0,1
2486 779 m 0,8,9
 2666 779 2666 779 2773 670.5 c 128,-1,10
 2880 562 2880 562 2880 377 c 0,11,12
 2880 184 2880 184 2773 78 c 128,-1,13
 2666 -28 2666 -28 2486 -28 c 0,14,15
 2293 -28 2293 -28 2188 78 c 128,-1,16
 2083 184 2083 184 2083 377 c 0,17,18
 2083 562 2083 562 2188 670.5 c 128,-1,19
 2293 779 2293 779 2486 779 c 0,8,9
462 1340 m 0,20,21
 309 1340 309 1340 309 1106 c 256,22,23
 309 871 309 871 462 871 c 0,24,25
 529 871 529 871 568.5 929.5 c 128,-1,26
 608 988 608 988 608 1106 c 256,27,28
 608 1224 608 1224 568.5 1282 c 128,-1,29
 529 1340 529 1340 462 1340 c 0,20,21
462 1507 m 256,30,31
 648 1507 648 1507 754.5 1403 c 128,-1,32
 861 1299 861 1299 861 1106 c 256,33,34
 861 913 861 913 754.5 809 c 128,-1,35
 648 705 648 705 462 705 c 256,36,37
 278 705 278 705 173 809 c 128,-1,38
 68 913 68 913 68 1106 c 256,39,40
 68 1299 68 1299 173 1403 c 128,-1,41
 278 1507 278 1507 462 1507 c 256,30,31
448 -28 m 1,42,-1
 1373 1507 l 1,43,-1
 1594 1507 l 1,44,-1
 665 -28 l 1,45,-1
 448 -28 l 1,42,-1
1575 779 m 256,46,47
 1760 779 1760 779 1867 670.5 c 128,-1,48
 1974 562 1974 562 1974 377 c 0,49,50
 1974 184 1974 184 1867 78 c 128,-1,51
 1760 -28 1760 -28 1575 -28 c 256,52,53
 1391 -28 1391 -28 1284 78 c 128,-1,54
 1177 184 1177 184 1177 377 c 0,55,56
 1177 562 1177 562 1284 670.5 c 128,-1,57
 1391 779 1391 779 1575 779 c 256,46,47
1575 611 m 0,58,59
 1425 611 1425 611 1425 377 c 256,60,61
 1425 142 1425 142 1575 142 c 0,62,63
 1642 142 1642 142 1681 203 c 128,-1,64
 1720 264 1720 264 1720 377 c 256,65,66
 1720 491 1720 491 1681 551 c 128,-1,67
 1642 611 1642 611 1575 611 c 0,58,59
EndSplineSet
EndChar
StartChar: Acircumflex
Encoding: 194 194 199
Width: 1574
VWidth: 3555
Flags: W
HStem: 0 21G<10 398.38 1173.21 1564> 271 269<583 988> 1463 20G<551.596 1021.42>
Fore
491 271 m 1,0,-1
 391 0 l 1,1,-1
 10 0 l 1,2,-1
 559 1483 l 1,3,-1
 1014 1483 l 1,4,-1
 1564 0 l 1,5,-1
 1180 0 l 1,6,-1
 1088 271 l 1,7,-1
 491 271 l 1,0,-1
988 540 m 1,8,-1
 790 1134 l 1,9,-1
 583 540 l 1,10,-1
 988 540 l 1,8,-1
913 1887 m 1,11,-1
 1134 1621 l 1,12,-1
 960 1621 l 1,13,-1
 764 1781 l 1,14,-1
 562 1621 l 1,15,-1
 387 1621 l 1,16,-1
 608 1887 l 1,17,-1
 913 1887 l 1,11,-1
EndSplineSet
EndChar
StartChar: Ecircumflex
Encoding: 202 202 200
Width: 1385
VWidth: 3555
Flags: W
HStem: 0 288<569 1238> 628 285<569 1180> 1194 289<569 1224>
VStem: 184 385<288 628 913 1194>
Fore
1224 1483 m 1,0,-1
 1224 1194 l 1,1,-1
 569 1194 l 1,2,-1
 569 913 l 1,3,-1
 1180 913 l 1,4,-1
 1180 628 l 1,5,-1
 569 628 l 1,6,-1
 569 288 l 1,7,-1
 1238 288 l 1,8,-1
 1238 0 l 1,9,-1
 184 0 l 1,10,-1
 184 1483 l 1,11,-1
 1224 1483 l 1,0,-1
838 1887 m 1,12,-1
 1059 1621 l 1,13,-1
 885 1621 l 1,14,-1
 689 1781 l 1,15,-1
 488 1621 l 1,16,-1
 312 1621 l 1,17,-1
 533 1887 l 1,18,-1
 838 1887 l 1,12,-1
EndSplineSet
EndChar
StartChar: Aacute
Encoding: 193 193 201
Width: 1574
VWidth: 3555
Flags: W
HStem: 0 21G<10 398.38 1173.21 1564> 271 269<583 988> 1463 20G<551.596 1021.42>
Fore
491 271 m 1,0,-1
 391 0 l 1,1,-1
 10 0 l 1,2,-1
 559 1483 l 1,3,-1
 1014 1483 l 1,4,-1
 1564 0 l 1,5,-1
 1180 0 l 1,6,-1
 1088 271 l 1,7,-1
 491 271 l 1,0,-1
988 540 m 1,8,-1
 790 1134 l 1,9,-1
 583 540 l 1,10,-1
 988 540 l 1,8,-1
1092 1887 m 1,11,-1
 811 1621 l 1,12,-1
 615 1621 l 1,13,-1
 811 1887 l 1,14,-1
 1092 1887 l 1,11,-1
EndSplineSet
EndChar
StartChar: Edieresis
Encoding: 203 203 202
Width: 1385
VWidth: 3555
Flags: W
HStem: 0 288<569 1238> 628 285<569 1180> 1194 289<569 1224> 1639 248<373 608 764 998>
VStem: 184 385<288 628 913 1194> 373 235<1639 1887> 764 234<1639 1887>
Fore
1224 1483 m 1,0,-1
 1224 1194 l 1,1,-1
 569 1194 l 1,2,-1
 569 913 l 1,3,-1
 1180 913 l 1,4,-1
 1180 628 l 1,5,-1
 569 628 l 1,6,-1
 569 288 l 1,7,-1
 1238 288 l 1,8,-1
 1238 0 l 1,9,-1
 184 0 l 1,10,-1
 184 1483 l 1,11,-1
 1224 1483 l 1,0,-1
608 1887 m 1,12,-1
 608 1639 l 1,13,-1
 373 1639 l 1,14,-1
 373 1887 l 1,15,-1
 608 1887 l 1,12,-1
998 1887 m 1,16,-1
 998 1639 l 1,17,-1
 764 1639 l 1,18,-1
 764 1887 l 1,19,-1
 998 1887 l 1,16,-1
EndSplineSet
EndChar
StartChar: Egrave
Encoding: 200 200 203
Width: 1385
VWidth: 3555
Flags: W
HStem: 0 288<569 1238> 628 285<569 1180> 1194 289<569 1224>
VStem: 184 385<288 628 913 1194>
Fore
1224 1483 m 1,0,-1
 1224 1194 l 1,1,-1
 569 1194 l 1,2,-1
 569 913 l 1,3,-1
 1180 913 l 1,4,-1
 1180 628 l 1,5,-1
 569 628 l 1,6,-1
 569 288 l 1,7,-1
 1238 288 l 1,8,-1
 1238 0 l 1,9,-1
 184 0 l 1,10,-1
 184 1483 l 1,11,-1
 1224 1483 l 1,0,-1
832 1621 m 1,12,-1
 641 1621 l 1,13,-1
 356 1887 l 1,14,-1
 637 1887 l 1,15,-1
 832 1621 l 1,12,-1
EndSplineSet
EndChar
StartChar: Iacute
Encoding: 205 205 204
Width: 756
VWidth: 3555
Flags: W
HStem: 0 21G<184 569> 1463 20G<184 569>
VStem: 184 385<0 1483>
Fore
569 1483 m 1,0,-1
 569 0 l 1,1,-1
 184 0 l 1,2,-1
 184 1483 l 1,3,-1
 569 1483 l 1,0,-1
696 1887 m 1,4,-1
 417 1621 l 1,5,-1
 220 1621 l 1,6,-1
 417 1887 l 1,7,-1
 696 1887 l 1,4,-1
EndSplineSet
EndChar
StartChar: Icircumflex
Encoding: 206 206 205
Width: 756
VWidth: 3555
Flags: W
HStem: 0 21G<184 569> 1463 20G<184 569>
VStem: 184 385<0 1483>
Fore
569 1483 m 1,0,-1
 569 0 l 1,1,-1
 184 0 l 1,2,-1
 184 1483 l 1,3,-1
 569 1483 l 1,0,-1
519 1887 m 1,4,-1
 740 1621 l 1,5,-1
 566 1621 l 1,6,-1
 370 1781 l 1,7,-1
 167 1621 l 1,8,-1
 -7 1621 l 1,9,-1
 214 1887 l 1,10,-1
 519 1887 l 1,4,-1
EndSplineSet
EndChar
StartChar: Idieresis
Encoding: 207 207 206
Width: 756
VWidth: 3555
Flags: W
HStem: 0 21G<184 569> 1463 20G<184 569> 1639 248<54 288 444 679>
VStem: 54 234<1639 1887> 184 385<0 1483> 444 235<1639 1887>
Fore
569 1483 m 1,0,-1
 569 0 l 1,1,-1
 184 0 l 1,2,-1
 184 1483 l 1,3,-1
 569 1483 l 1,0,-1
288 1887 m 1,4,-1
 288 1639 l 1,5,-1
 54 1639 l 1,6,-1
 54 1887 l 1,7,-1
 288 1887 l 1,4,-1
679 1887 m 1,8,-1
 679 1639 l 1,9,-1
 444 1639 l 1,10,-1
 444 1887 l 1,11,-1
 679 1887 l 1,8,-1
EndSplineSet
EndChar
StartChar: Igrave
Encoding: 204 204 207
Width: 756
VWidth: 3555
Flags: W
HStem: 0 21G<184 569> 1463 20G<184 569>
VStem: 184 385<0 1483>
Fore
569 1483 m 1,0,-1
 569 0 l 1,1,-1
 184 0 l 1,2,-1
 184 1483 l 1,3,-1
 569 1483 l 1,0,-1
512 1621 m 1,4,-1
 319 1621 l 1,5,-1
 35 1887 l 1,6,-1
 316 1887 l 1,7,-1
 512 1621 l 1,4,-1
EndSplineSet
EndChar
StartChar: Oacute
Encoding: 211 211 208
Width: 1727
VWidth: 3555
Flags: W
HStem: -28 273<686.71 1039.81> 1234 273<686.71 1039.81>
VStem: 99 399<469.028 1010.2> 1234 391<471.584 1007.65>
Fore
868 1234 m 0,0,1
 686 1234 686 1234 592 1104 c 128,-1,2
 498 974 498 974 498 740 c 256,3,4
 498 505 498 505 592 375 c 128,-1,5
 686 245 686 245 868 245 c 0,6,7
 1038 245 1038 245 1136 375 c 128,-1,8
 1234 505 1234 505 1234 740 c 256,9,10
 1234 974 1234 974 1136 1104 c 128,-1,11
 1038 1234 1038 1234 868 1234 c 0,0,1
868 1507 m 256,12,13
 1231 1507 1231 1507 1428 1304.5 c 128,-1,14
 1625 1102 1625 1102 1625 740 c 256,15,16
 1625 377 1625 377 1428 174.5 c 128,-1,17
 1231 -28 1231 -28 868 -28 c 256,18,19
 505 -28 505 -28 302 174.5 c 128,-1,20
 99 377 99 377 99 740 c 256,21,22
 99 1102 99 1102 302 1304.5 c 128,-1,23
 505 1507 505 1507 868 1507 c 256,12,13
1174 1887 m 1,24,-1
 892 1621 l 1,25,-1
 696 1621 l 1,26,-1
 892 1887 l 1,27,-1
 1174 1887 l 1,24,-1
EndSplineSet
EndChar
StartChar: Ocircumflex
Encoding: 212 212 209
Width: 1727
VWidth: 3555
Flags: W
HStem: -28 273<686.71 1039.81> 1234 273<686.71 1039.81>
VStem: 99 399<469.028 1010.2> 1234 391<471.584 1007.65>
Fore
868 1234 m 0,0,1
 686 1234 686 1234 592 1104 c 128,-1,2
 498 974 498 974 498 740 c 256,3,4
 498 505 498 505 592 375 c 128,-1,5
 686 245 686 245 868 245 c 0,6,7
 1038 245 1038 245 1136 375 c 128,-1,8
 1234 505 1234 505 1234 740 c 256,9,10
 1234 974 1234 974 1136 1104 c 128,-1,11
 1038 1234 1038 1234 868 1234 c 0,0,1
868 1507 m 256,12,13
 1231 1507 1231 1507 1428 1304.5 c 128,-1,14
 1625 1102 1625 1102 1625 740 c 256,15,16
 1625 377 1625 377 1428 174.5 c 128,-1,17
 1231 -28 1231 -28 868 -28 c 256,18,19
 505 -28 505 -28 302 174.5 c 128,-1,20
 99 377 99 377 99 740 c 256,21,22
 99 1102 99 1102 302 1304.5 c 128,-1,23
 505 1507 505 1507 868 1507 c 256,12,13
995 1887 m 1,24,-1
 1215 1621 l 1,25,-1
 1042 1621 l 1,26,-1
 845 1781 l 1,27,-1
 644 1621 l 1,28,-1
 469 1621 l 1,29,-1
 689 1887 l 1,30,-1
 995 1887 l 1,24,-1
EndSplineSet
EndChar
StartChar: Ograve
Encoding: 210 210 210
Width: 1727
VWidth: 3555
Flags: W
HStem: -28 273<686.71 1039.81> 1234 273<686.71 1039.81>
VStem: 99 399<469.028 1010.2> 1234 391<471.584 1007.65>
Fore
868 1234 m 0,0,1
 686 1234 686 1234 592 1104 c 128,-1,2
 498 974 498 974 498 740 c 256,3,4
 498 505 498 505 592 375 c 128,-1,5
 686 245 686 245 868 245 c 0,6,7
 1038 245 1038 245 1136 375 c 128,-1,8
 1234 505 1234 505 1234 740 c 256,9,10
 1234 974 1234 974 1136 1104 c 128,-1,11
 1038 1234 1038 1234 868 1234 c 0,0,1
868 1507 m 256,12,13
 1231 1507 1231 1507 1428 1304.5 c 128,-1,14
 1625 1102 1625 1102 1625 740 c 256,15,16
 1625 377 1625 377 1428 174.5 c 128,-1,17
 1231 -28 1231 -28 868 -28 c 256,18,19
 505 -28 505 -28 302 174.5 c 128,-1,20
 99 377 99 377 99 740 c 256,21,22
 99 1102 99 1102 302 1304.5 c 128,-1,23
 505 1507 505 1507 868 1507 c 256,12,13
988 1621 m 1,24,-1
 797 1621 l 1,25,-1
 512 1887 l 1,26,-1
 793 1887 l 1,27,-1
 988 1621 l 1,24,-1
EndSplineSet
EndChar
StartChar: Uacute
Encoding: 218 218 211
Width: 1649
VWidth: 3555
Flags: W
HStem: -28 276<670.501 981.825> 1463 20G<184 569 1085 1465>
VStem: 184 385<366.976 1483> 1085 380<358.686 1483>
Fore
569 1483 m 1,0,-1
 569 594 l 2,1,2
 569 413 569 413 629 330.5 c 128,-1,3
 689 248 689 248 825 248 c 256,4,5
 960 248 960 248 1022.5 330.5 c 128,-1,6
 1085 413 1085 413 1085 594 c 2,7,-1
 1085 1483 l 1,8,-1
 1465 1483 l 1,9,-1
 1465 594 l 2,10,11
 1465 281 1465 281 1310.5 126.5 c 128,-1,12
 1156 -28 1156 -28 825 -28 c 0,13,14
 184 -28 184 -28 184 594 c 2,15,-1
 184 1483 l 1,16,-1
 569 1483 l 1,0,-1
1130 1887 m 1,17,-1
 849 1621 l 1,18,-1
 654 1621 l 1,19,-1
 849 1887 l 1,20,-1
 1130 1887 l 1,17,-1
EndSplineSet
EndChar
StartChar: Ucircumflex
Encoding: 219 219 212
Width: 1649
VWidth: 3555
Flags: W
HStem: -28 276<670.501 981.825> 1463 20G<184 569 1085 1465>
VStem: 184 385<366.976 1483> 1085 380<358.686 1483>
Fore
569 1483 m 1,0,-1
 569 594 l 2,1,2
 569 413 569 413 629 330.5 c 128,-1,3
 689 248 689 248 825 248 c 256,4,5
 960 248 960 248 1022.5 330.5 c 128,-1,6
 1085 413 1085 413 1085 594 c 2,7,-1
 1085 1483 l 1,8,-1
 1465 1483 l 1,9,-1
 1465 594 l 2,10,11
 1465 281 1465 281 1310.5 126.5 c 128,-1,12
 1156 -28 1156 -28 825 -28 c 0,13,14
 184 -28 184 -28 184 594 c 2,15,-1
 184 1483 l 1,16,-1
 569 1483 l 1,0,-1
953 1887 m 1,17,-1
 1174 1621 l 1,18,-1
 998 1621 l 1,19,-1
 804 1781 l 1,20,-1
 601 1621 l 1,21,-1
 427 1621 l 1,22,-1
 648 1887 l 1,23,-1
 953 1887 l 1,17,-1
EndSplineSet
EndChar
StartChar: Ugrave
Encoding: 217 217 213
Width: 1649
VWidth: 3555
Flags: W
HStem: -28 276<670.501 981.825> 1463 20G<184 569 1085 1465>
VStem: 184 385<366.976 1483> 1085 380<358.686 1483>
Fore
569 1483 m 1,0,-1
 569 594 l 2,1,2
 569 413 569 413 629 330.5 c 128,-1,3
 689 248 689 248 825 248 c 256,4,5
 960 248 960 248 1022.5 330.5 c 128,-1,6
 1085 413 1085 413 1085 594 c 2,7,-1
 1085 1483 l 1,8,-1
 1465 1483 l 1,9,-1
 1465 594 l 2,10,11
 1465 281 1465 281 1310.5 126.5 c 128,-1,12
 1156 -28 1156 -28 825 -28 c 0,13,14
 184 -28 184 -28 184 594 c 2,15,-1
 184 1483 l 1,16,-1
 569 1483 l 1,0,-1
946 1621 m 1,17,-1
 753 1621 l 1,18,-1
 469 1887 l 1,19,-1
 750 1887 l 1,20,-1
 946 1621 l 1,17,-1
EndSplineSet
EndChar
StartChar: dotlessi
Encoding: 305 305 214
Width: 692
VWidth: 3555
Flags: W
HStem: 0 21G<170 529> 1093 20G<170 529>
VStem: 170 359<0 1113>
Fore
529 1113 m 1,0,-1
 529 0 l 1,1,-1
 170 0 l 1,2,-1
 170 1113 l 1,3,-1
 529 1113 l 1,0,-1
EndSplineSet
EndChar
StartChar: circumflex
Encoding: 710 710 215
Width: 1015
VWidth: 3555
Flags: W
HStem: 1252 373<628 882>
VStem: 135 747<1252 1252>
Fore
628 1625 m 1,0,-1
 882 1252 l 1,1,-1
 708 1252 l 1,2,-1
 512 1476 l 1,3,-1
 309 1252 l 1,4,-1
 135 1252 l 1,5,-1
 387 1625 l 1,6,-1
 628 1625 l 1,0,-1
EndSplineSet
EndChar
StartChar: tilde
Encoding: 732 732 216
Width: 1015
VWidth: 3555
Flags: W
HStem: 1299 156<606.321 700.252> 1425 156<312.891 402.523>
VStem: 163 139<1302 1418.12> 719 139<1486.97 1578>
Fore
455 1391 m 1,0,-1
 448 1397 l 1,1,2
 398 1425 398 1425 373 1425 c 0,3,4
 302 1425 302 1425 302 1309 c 2,5,-1
 302 1302 l 1,6,-1
 163 1302 l 1,7,8
 163 1432 163 1432 215 1506.5 c 128,-1,9
 267 1581 267 1581 359 1581 c 0,10,11
 391 1581 391 1581 428 1567.5 c 128,-1,12
 465 1554 465 1554 509 1529 c 1,13,-1
 566 1483 l 2,14,15
 611 1455 611 1455 641 1455 c 0,16,17
 675 1455 675 1455 697 1486 c 128,-1,18
 719 1517 719 1517 719 1571 c 2,19,-1
 719 1578 l 1,20,-1
 858 1578 l 1,21,22
 858 1448 858 1448 804 1373.5 c 128,-1,23
 750 1299 750 1299 658 1299 c 0,24,25
 618 1299 618 1299 588.5 1309 c 128,-1,26
 559 1319 559 1319 512 1351 c 2,27,-1
 455 1391 l 1,0,-1
EndSplineSet
EndChar
StartChar: macron
Encoding: 175 175 217
Width: 1015
VWidth: 3555
Flags: W
HStem: 1354 193<196 821>
Fore
821 1547 m 1,0,-1
 821 1354 l 1,1,-1
 196 1354 l 1,2,-1
 196 1547 l 1,3,-1
 821 1547 l 1,0,-1
EndSplineSet
EndChar
StartChar: breve
Encoding: 728 728 218
Width: 1015
VWidth: 3555
Flags: W
HStem: 1302 153<374.106 643.559>
VStem: 174 668<1455 1492 1594 1594> 696 146<1487.86 1594>
Fore
312 1594 m 1,0,1
 326 1529 326 1529 376.5 1492 c 128,-1,2
 427 1455 427 1455 512 1455 c 0,3,4
 590 1455 590 1455 639.5 1492 c 128,-1,5
 689 1529 689 1529 696 1594 c 1,6,-1
 842 1594 l 1,7,8
 835 1455 835 1455 748 1378.5 c 128,-1,9
 661 1302 661 1302 512 1302 c 0,10,11
 352 1302 352 1302 264.5 1378.5 c 128,-1,12
 177 1455 177 1455 174 1594 c 1,13,-1
 312 1594 l 1,0,1
EndSplineSet
EndChar
StartChar: dotaccent
Encoding: 729 729 219
Width: 1015
VWidth: 3555
Flags: W
HStem: 1326 249<373 644>
VStem: 373 271<1326 1575>
Fore
644 1575 m 1,0,-1
 644 1326 l 1,1,-1
 373 1326 l 1,2,-1
 373 1575 l 1,3,-1
 644 1575 l 1,0,-1
EndSplineSet
EndChar
StartChar: ring
Encoding: 730 730 220
Width: 1015
VWidth: 3555
Flags: W
HStem: 1238 156<415.99 603.161> 1649 153<414.36 584.396>
VStem: 224 156<1429.7 1614.84> 641 152<1429.7 1613.11>
Fore
380 1526 m 0,0,1
 380 1469 380 1469 417.5 1431.5 c 128,-1,2
 455 1394 455 1394 512 1394 c 0,3,4
 562 1394 562 1394 601.5 1431.5 c 128,-1,5
 641 1469 641 1469 641 1526 c 0,6,7
 641 1575 641 1575 601.5 1612 c 128,-1,8
 562 1649 562 1649 512 1649 c 0,9,10
 455 1649 455 1649 417.5 1612 c 128,-1,11
 380 1575 380 1575 380 1526 c 0,0,1
224 1526 m 0,12,13
 224 1639 224 1639 307.5 1720.5 c 128,-1,14
 391 1802 391 1802 512 1802 c 0,15,16
 566 1802 566 1802 617 1781 c 128,-1,17
 668 1760 668 1760 707 1723 c 128,-1,18
 746 1686 746 1686 769.5 1633.5 c 128,-1,19
 793 1581 793 1581 793 1526 c 0,20,21
 793 1404 793 1404 707 1321 c 128,-1,22
 621 1238 621 1238 512 1238 c 0,23,24
 391 1238 391 1238 307.5 1321 c 128,-1,25
 224 1404 224 1404 224 1526 c 0,12,13
EndSplineSet
EndChar
StartChar: cedilla
Encoding: 184 184 221
Width: 1015
VWidth: 3555
Flags: W
HStem: -398 150<366.931 534.418> -20 20G<462 654.5>
VStem: 543 169<-235.961 -92.3695>
Fore
597 0 m 1,0,1
 712 -132 712 -132 712 -214 c 0,2,3
 712 -398 712 -398 462 -398 c 0,4,5
 417 -398 417 -398 363 -391 c 128,-1,6
 309 -384 309 -384 264 -373 c 1,7,-1
 260 -220 l 1,8,9
 366 -248 366 -248 427 -248 c 0,10,11
 543 -248 543 -248 543 -167 c 0,12,13
 543 -118 543 -118 462 0 c 1,14,-1
 597 0 l 1,0,1
EndSplineSet
EndChar
StartChar: hungarumlaut
Encoding: 733 733 222
Width: 1015
VWidth: 3555
Flags: W
HStem: 1252 373<356 597>
VStem: 193 781<1252 1625>
Fore
597 1625 m 1,0,-1
 356 1252 l 1,1,-1
 193 1252 l 1,2,-1
 384 1625 l 1,3,-1
 597 1625 l 1,0,-1
974 1625 m 1,4,-1
 705 1252 l 1,5,-1
 529 1252 l 1,6,-1
 746 1625 l 1,7,-1
 974 1625 l 1,4,-1
EndSplineSet
EndChar
StartChar: ogonek
Encoding: 731 731 223
Width: 1015
VWidth: 3555
Flags: W
HStem: -398 150<524.605 715.623> -20 20G<421 590>
Fore
590 0 m 1,0,1
 536 -68 536 -68 520.5 -105 c 128,-1,2
 505 -142 505 -142 505 -163 c 0,3,4
 505 -203 505 -203 533.5 -225.5 c 128,-1,5
 562 -248 562 -248 608 -248 c 0,6,7
 679 -248 679 -248 764 -220 c 1,8,-1
 764 -377 l 1,9,10
 658 -398 658 -398 576 -398 c 0,11,12
 342 -398 342 -398 342 -220 c 0,13,14
 342 -170 342 -170 366.5 -117 c 128,-1,15
 391 -64 391 -64 451 0 c 1,16,-1
 590 0 l 1,0,1
EndSplineSet
EndChar
StartChar: caron
Encoding: 711 711 224
Width: 1015
VWidth: 3555
Flags: W
HStem: 1252 373<135 628>
VStem: 135 747<1625 1625>
Fore
135 1625 m 1,0,-1
 309 1625 l 1,1,-1
 512 1401 l 1,2,-1
 708 1625 l 1,3,-1
 882 1625 l 1,4,-1
 628 1252 l 1,5,-1
 387 1252 l 1,6,-1
 135 1625 l 1,0,-1
EndSplineSet
EndChar
StartChar: Lslash
Encoding: 321 321 225
Width: 1303
VWidth: 3555
Flags: W
HStem: 0 288<580 1248> 1463 20G<196 580>
VStem: 196 384<288 523 1066 1483>
Fore
580 1483 m 1,0,-1
 580 1066 l 1,1,-1
 832 1252 l 1,2,-1
 974 1059 l 1,3,-1
 580 793 l 1,4,-1
 580 288 l 1,5,-1
 1248 288 l 1,6,-1
 1248 0 l 1,7,-1
 196 0 l 1,8,-1
 196 523 l 1,9,-1
 54 417 l 1,10,-1
 -92 601 l 1,11,-1
 196 800 l 1,12,-1
 196 1483 l 1,13,-1
 580 1483 l 1,0,-1
EndSplineSet
EndChar
StartChar: lslash
Encoding: 322 322 226
Width: 753
VWidth: 3555
Flags: W
HStem: 0 21G<196 554> 1114 20G<653.236 696.51>
VStem: 196 358<0 637 1045 1547>
Fore
554 1547 m 1,0,-1
 554 1045 l 1,1,-1
 682 1134 l 1,2,-1
 793 981 l 1,3,-1
 554 821 l 1,4,-1
 554 0 l 1,5,-1
 196 0 l 1,6,-1
 196 637 l 1,7,-1
 75 547 l 1,8,-1
 -40 705 l 1,9,-1
 196 868 l 1,10,-1
 196 1547 l 1,11,-1
 554 1547 l 1,0,-1
EndSplineSet
EndChar
StartChar: Scaron
Encoding: 352 352 227
Width: 1463
VWidth: 3555
Flags: W
HStem: -28 273<418.319 871.102> 1123 21G<1159.5 1224> 1234 273<554.013 910.162>
Fore
1224 1123 m 1,0,1
 1095 1177 1095 1177 981.5 1205.5 c 128,-1,2
 868 1234 868 1234 760 1234 c 0,3,4
 618 1234 618 1234 556.5 1197 c 128,-1,5
 495 1160 495 1160 495 1082 c 0,6,7
 495 1017 495 1017 537.5 983.5 c 128,-1,8
 580 950 580 950 693 929 c 2,9,-1
 861 892 l 2,10,11
 1106 845 1106 845 1211 746.5 c 128,-1,12
 1316 648 1316 648 1316 455 c 0,13,14
 1316 -28 1316 -28 726 -28 c 0,15,16
 444 -28 444 -28 160 78 c 1,17,-1
 160 398 l 1,18,19
 448 245 448 245 689 245 c 0,20,21
 814 245 814 245 880 290 c 128,-1,22
 946 335 946 335 946 413 c 0,23,24
 946 476 946 476 903.5 515 c 128,-1,25
 861 554 861 554 722 583 c 2,26,-1
 573 615 l 2,27,28
 349 665 349 665 249 770 c 128,-1,29
 149 875 149 875 149 1049 c 0,30,31
 149 1272 149 1272 290 1389.5 c 128,-1,32
 431 1507 431 1507 696 1507 c 0,33,34
 821 1507 821 1507 951.5 1489.5 c 128,-1,35
 1082 1472 1082 1472 1224 1432 c 1,36,-1
 1224 1123 l 1,0,1
335 1887 m 1,37,-1
 509 1887 l 1,38,-1
 712 1720 l 1,39,-1
 906 1887 l 1,40,-1
 1082 1887 l 1,41,-1
 861 1621 l 1,42,-1
 554 1621 l 1,43,-1
 335 1887 l 1,37,-1
EndSplineSet
EndChar
StartChar: scaron
Encoding: 353 353 228
Width: 1208
VWidth: 3555
Flags: W
HStem: -28 235<362.553 744.858> 899 238<441.231 817.926>
Fore
1038 807 m 1,0,1
 924 858 924 858 819.5 878.5 c 128,-1,2
 715 899 715 899 615 899 c 0,3,4
 420 899 420 899 420 800 c 0,5,6
 420 757 420 757 457.5 734.5 c 128,-1,7
 495 712 495 712 590 696 c 2,8,-1
 651 689 l 2,9,10
 929 658 929 658 1017 580 c 0,11,12
 1113 502 1113 502 1113 326 c 0,13,14
 1113 -28 1113 -28 590 -28 c 0,15,16
 484 -28 484 -28 362.5 -12.5 c 128,-1,17
 241 3 241 3 125 43 c 1,18,-1
 125 309 l 1,19,20
 339 207 339 207 566 207 c 0,21,22
 779 207 779 207 779 319 c 0,23,24
 779 370 779 370 742 393.5 c 128,-1,25
 705 417 705 417 594 431 c 2,26,-1
 529 437 l 2,27,28
 295 465 295 465 198.5 546.5 c 128,-1,29
 102 628 102 628 102 793 c 0,30,31
 102 1137 102 1137 597 1137 c 0,32,33
 790 1137 790 1137 1038 1082 c 1,34,-1
 1038 807 l 1,0,1
231 1625 m 1,35,-1
 404 1625 l 1,36,-1
 608 1401 l 1,37,-1
 804 1625 l 1,38,-1
 977 1625 l 1,39,-1
 726 1252 l 1,40,-1
 484 1252 l 1,41,-1
 231 1625 l 1,35,-1
EndSplineSet
EndChar
StartChar: Zcaron
Encoding: 381 381 229
Width: 1473
VWidth: 3555
Flags: W
HStem: 0 288<566 1384> 1194 289<118 885>
Fore
1358 1483 m 1,0,-1
 1358 1248 l 1,1,-1
 566 288 l 1,2,-1
 1384 288 l 1,3,-1
 1384 0 l 1,4,-1
 92 0 l 1,5,-1
 92 231 l 1,6,-1
 885 1194 l 1,7,-1
 118 1194 l 1,8,-1
 118 1483 l 1,9,-1
 1358 1483 l 1,0,-1
342 1887 m 1,10,-1
 516 1887 l 1,11,-1
 719 1720 l 1,12,-1
 913 1887 l 1,13,-1
 1088 1887 l 1,14,-1
 868 1621 l 1,15,-1
 562 1621 l 1,16,-1
 342 1887 l 1,10,-1
EndSplineSet
EndChar
StartChar: zcaron
Encoding: 382 382 230
Width: 1182
VWidth: 3555
Flags: W
HStem: 0 252<502 1088> 861 252<118 675>
Fore
1088 1113 m 1,0,-1
 1088 868 l 1,1,-1
 502 252 l 1,2,-1
 1088 252 l 1,3,-1
 1088 0 l 1,4,-1
 92 0 l 1,5,-1
 92 245 l 1,6,-1
 675 861 l 1,7,-1
 118 861 l 1,8,-1
 118 1113 l 1,9,-1
 1088 1113 l 1,0,-1
217 1625 m 1,10,-1
 391 1625 l 1,11,-1
 594 1401 l 1,12,-1
 790 1625 l 1,13,-1
 963 1625 l 1,14,-1
 712 1252 l 1,15,-1
 469 1252 l 1,16,-1
 217 1625 l 1,10,-1
EndSplineSet
EndChar
StartChar: brokenbar
Encoding: 166 166 231
Width: 743
VWidth: 3555
Flags: W
VStem: 260 228<-349 401 668 1422>
Fore
488 668 m 1,0,-1
 260 668 l 1,1,-1
 260 1422 l 1,2,-1
 488 1422 l 1,3,-1
 488 668 l 1,0,-1
488 -349 m 1,4,-1
 260 -349 l 1,5,-1
 260 401 l 1,6,-1
 488 401 l 1,7,-1
 488 -349 l 1,4,-1
EndSplineSet
EndChar
StartChar: Eth
Encoding: 208 208 232
Width: 1701
VWidth: 3555
Flags: W
HStem: 0 288<587 968.011> 615 263<31 207 587 821> 1194 289<587 973.101>
VStem: 207 380<288 615 878 1194> 1205 396<518.071 970.044>
Fore
587 878 m 1,0,-1
 821 878 l 1,1,-1
 821 615 l 1,2,-1
 587 615 l 1,3,-1
 587 288 l 1,4,-1
 726 288 l 2,5,6
 960 288 960 288 1082.5 403.5 c 128,-1,7
 1205 519 1205 519 1205 743 c 256,8,9
 1205 967 1205 967 1082.5 1080.5 c 128,-1,10
 960 1194 960 1194 726 1194 c 2,11,-1
 587 1194 l 1,12,-1
 587 878 l 1,0,-1
608 1483 m 2,13,14
 939 1483 939 1483 1109 1432 c 0,15,16
 1272 1387 1272 1387 1394 1269 c 0,17,18
 1601 1073 1601 1073 1601 743 c 0,19,20
 1601 404 1601 404 1394 210 c 0,21,22
 1266 92 1266 92 1106 47 c 256,23,24
 946 0 946 0 608 0 c 2,25,-1
 207 0 l 1,26,-1
 207 615 l 1,27,-1
 31 615 l 1,28,-1
 31 878 l 1,29,-1
 207 878 l 1,30,-1
 207 1483 l 1,31,-1
 608 1483 l 2,13,14
EndSplineSet
EndChar
StartChar: eth
Encoding: 240 240 233
Width: 1395
VWidth: 3555
Flags: W
HStem: -28 252<560.312 839.875> 793 252<548.725 785.244> 1120 21G<239.4 307.712>
VStem: 85 373<335.776 703.252> 939 370<335.216 741.157>
Fore
910 740 m 1,0,1
 861 764 861 764 805.5 778.5 c 128,-1,2
 750 793 750 793 696 793 c 0,3,4
 583 793 583 793 520.5 725.5 c 128,-1,5
 458 658 458 658 458 536 c 0,6,7
 458 387 458 387 522.5 305.5 c 128,-1,8
 587 224 587 224 696 224 c 0,9,10
 818 224 818 224 878.5 309 c 128,-1,11
 939 394 939 394 939 554 c 0,12,13
 939 634 939 634 910 740 c 1,0,1
1088 1092 m 1,14,15
 1205 957 1205 957 1257 831 c 128,-1,16
 1309 705 1309 705 1309 554 c 0,17,18
 1309 278 1309 278 1146.5 125 c 128,-1,19
 984 -28 984 -28 696 -28 c 256,20,21
 410 -28 410 -28 247.5 125 c 128,-1,22
 85 278 85 278 85 554 c 0,23,24
 85 790 85 790 232.5 917.5 c 128,-1,25
 380 1045 380 1045 648 1045 c 0,26,27
 733 1045 733 1045 807 1021 c 1,28,-1
 615 1238 l 1,29,-1
 245 1120 l 1,30,-1
 210 1245 l 1,31,-1
 519 1344 l 1,32,-1
 326 1547 l 1,33,-1
 679 1547 l 1,34,-1
 790 1429 l 1,35,-1
 1163 1543 l 1,36,-1
 1198 1415 l 1,37,-1
 882 1319 l 1,38,-1
 1088 1092 l 1,14,15
EndSplineSet
EndChar
StartChar: Yacute
Encoding: 221 221 234
Width: 1470
VWidth: 3555
Flags: W
HStem: 0 21G<540 929> 1463 20G<-17 410.755 1065.09 1493>
VStem: 540 389<0 621>
Fore
398 1483 m 1,0,-1
 736 953 l 1,1,-1
 1078 1483 l 1,2,-1
 1493 1483 l 1,3,-1
 929 621 l 1,4,-1
 929 0 l 1,5,-1
 540 0 l 1,6,-1
 540 621 l 1,7,-1
 -17 1483 l 1,8,-1
 398 1483 l 1,0,-1
1042 1887 m 1,9,-1
 760 1621 l 1,10,-1
 566 1621 l 1,11,-1
 760 1887 l 1,12,-1
 1042 1887 l 1,9,-1
EndSplineSet
EndChar
StartChar: yacute
Encoding: 253 253 235
Width: 1321
VWidth: 3555
Flags: W
HStem: -441 234<203 444.583> 1093 20G<24 387.931 925.289 1286>
Fore
380 1113 m 1,0,-1
 679 359 l 1,1,-1
 932 1113 l 1,2,-1
 1286 1113 l 1,3,-1
 821 -102 l 2,4,5
 750 -295 750 -295 656 -368 c 128,-1,6
 562 -441 562 -441 413 -441 c 2,7,-1
 203 -441 l 1,8,-1
 203 -207 l 1,9,-1
 312 -207 l 2,10,11
 401 -207 401 -207 446 -178 c 128,-1,12
 491 -149 491 -149 512 -75 c 2,13,-1
 523 -47 l 1,14,-1
 24 1113 l 1,15,-1
 380 1113 l 1,0,-1
1082 1625 m 1,16,-1
 715 1252 l 1,17,-1
 519 1252 l 1,18,-1
 800 1625 l 1,19,-1
 1082 1625 l 1,16,-1
EndSplineSet
EndChar
StartChar: Thorn
Encoding: 222 222 236
Width: 1499
VWidth: 3555
Flags: W
HStem: 0 21G<184 569> 252 277<569 932.203> 950 277<569 932.203> 1463 20G<184 569>
VStem: 184 385<0 252 529 950 1227 1483> 1014 390<603.721 875.475>
Fore
569 0 m 1,0,-1
 184 0 l 1,1,-1
 184 1483 l 1,2,-1
 569 1483 l 1,3,-1
 569 1227 l 1,4,-1
 821 1227 l 2,5,6
 1109 1227 1109 1227 1256.5 1100.5 c 128,-1,7
 1404 974 1404 974 1404 740 c 256,8,9
 1404 505 1404 505 1256.5 378.5 c 128,-1,10
 1109 252 1109 252 821 252 c 2,11,-1
 569 252 l 1,12,-1
 569 0 l 1,0,-1
569 529 m 1,13,-1
 783 529 l 2,14,15
 889 529 889 529 951.5 585 c 128,-1,16
 1014 641 1014 641 1014 740 c 256,17,18
 1014 838 1014 838 951.5 894 c 128,-1,19
 889 950 889 950 783 950 c 2,20,-1
 569 950 l 1,21,-1
 569 529 l 1,13,-1
EndSplineSet
EndChar
StartChar: thorn
Encoding: 254 254 237
Width: 1456
VWidth: 3555
Flags: W
HStem: -424 21G<170 529> -28 255<692.449 900.972> 882 255<693.452 900.325>
VStem: 170 359<-424 160 330.465 778.219 950 1547> 998 363<336.293 772.373>
Fore
529 -424 m 1,0,-1
 170 -424 l 1,1,-1
 170 1547 l 1,2,-1
 529 1547 l 1,3,-1
 529 950 l 1,4,5
 661 1137 661 1137 892 1137 c 0,6,7
 995 1137 995 1137 1081 1094.5 c 128,-1,8
 1167 1052 1167 1052 1228.5 975.5 c 128,-1,9
 1290 899 1290 899 1325.5 790.5 c 128,-1,10
 1361 682 1361 682 1361 554 c 256,11,12
 1361 427 1361 427 1325.5 320.5 c 128,-1,13
 1290 214 1290 214 1228.5 135.5 c 128,-1,14
 1167 57 1167 57 1081 14.5 c 128,-1,15
 995 -28 995 -28 892 -28 c 0,16,17
 661 -28 661 -28 529 160 c 1,18,-1
 529 -424 l 1,0,-1
760 882 m 0,19,20
 529 882 529 882 529 554 c 256,21,22
 529 227 529 227 760 227 c 0,23,24
 998 227 998 227 998 554 c 256,25,26
 998 882 998 882 760 882 c 0,19,20
EndSplineSet
EndChar
StartChar: minus
Encoding: 8722 8722 238
Width: 1701
VWidth: 3555
Flags: W
HStem: 523 230<214 1486>
Fore
1486 753 m 1,0,-1
 1486 523 l 1,1,-1
 214 523 l 1,2,-1
 214 753 l 1,3,-1
 1486 753 l 1,0,-1
EndSplineSet
EndChar
StartChar: multiply
Encoding: 215 215 239
Width: 1701
VWidth: 3555
Flags: W
Fore
1017 637 m 1,0,-1
 1451 207 l 1,1,-1
 1279 43 l 1,2,-1
 854 469 l 1,3,-1
 424 43 l 1,4,-1
 252 207 l 1,5,-1
 686 637 l 1,6,-1
 252 1066 l 1,7,-1
 424 1234 l 1,8,-1
 854 804 l 1,9,-1
 1279 1234 l 1,10,-1
 1451 1066 l 1,11,-1
 1017 637 l 1,0,-1
EndSplineSet
EndChar
StartChar: onesuperior
Encoding: 185 185 240
Width: 888
VWidth: 3555
Flags: W
HStem: 661 160<142 345 573 779> 1473 20G<251.111 573>
VStem: 345 228<821 1333>
Fore
345 821 m 1,0,-1
 345 1333 l 1,1,-1
 125 1283 l 1,2,-1
 125 1448 l 1,3,-1
 352 1493 l 1,4,-1
 573 1493 l 1,5,-1
 573 821 l 1,6,-1
 779 821 l 1,7,-1
 779 661 l 1,8,-1
 142 661 l 1,9,-1
 142 821 l 1,10,-1
 345 821 l 1,0,-1
EndSplineSet
EndChar
StartChar: twosuperior
Encoding: 178 178 241
Width: 888
VWidth: 3555
Flags: W
HStem: 661 171<413 779> 1361 146<273.847 509.284>
VStem: 529 242<1175.68 1339.8>
Fore
779 832 m 1,0,-1
 779 661 l 1,1,-1
 106 661 l 1,2,-1
 106 818 l 1,3,-1
 420 1082 l 2,4,5
 484 1130 484 1130 506.5 1171 c 128,-1,6
 529 1212 529 1212 529 1248 c 0,7,8
 529 1361 529 1361 398 1361 c 0,9,10
 342 1361 342 1361 269 1338.5 c 128,-1,11
 196 1316 196 1316 118 1269 c 1,12,-1
 118 1458 l 1,13,14
 288 1507 288 1507 437 1507 c 0,15,16
 597 1507 597 1507 684 1445.5 c 128,-1,17
 771 1384 771 1384 771 1269 c 0,18,19
 771 1198 771 1198 738 1140 c 128,-1,20
 705 1082 705 1082 601 991 c 2,21,-1
 413 832 l 1,22,-1
 779 832 l 1,0,-1
EndSplineSet
EndChar
StartChar: threesuperior
Encoding: 179 179 242
Width: 888
VWidth: 3555
Flags: W
HStem: 648 145<273.985 491.944> 1038 139<241 473.61> 1361 146<283.058 502.303>
VStem: 519 238<1202.14 1339.24> 536 247<833.276 1002.06>
Fore
587 1113 m 1,0,1
 783 1073 783 1073 783 903 c 0,2,3
 783 648 783 648 384 648 c 0,4,5
 302 648 302 648 229 660 c 128,-1,6
 156 672 156 672 89 693 c 1,7,-1
 89 868 l 1,8,9
 156 832 156 832 218.5 812.5 c 128,-1,10
 281 793 281 793 342 793 c 0,11,12
 437 793 437 793 486.5 827 c 128,-1,13
 536 861 536 861 536 913 c 0,14,15
 536 977 536 977 485 1007.5 c 128,-1,16
 434 1038 434 1038 316 1038 c 2,17,-1
 241 1038 l 1,18,-1
 241 1177 l 1,19,-1
 326 1177 l 2,20,21
 431 1177 431 1177 475 1202 c 128,-1,22
 519 1227 519 1227 519 1269 c 0,23,24
 519 1361 519 1361 359 1361 c 0,25,26
 306 1361 306 1361 245 1347 c 128,-1,27
 184 1333 184 1333 118 1309 c 1,28,-1
 118 1476 l 1,29,30
 177 1489 177 1489 251.5 1498 c 128,-1,31
 326 1507 326 1507 420 1507 c 0,32,33
 583 1507 583 1507 670 1452 c 128,-1,34
 757 1397 757 1397 757 1293 c 0,35,36
 757 1231 757 1231 712.5 1180.5 c 128,-1,37
 668 1130 668 1130 587 1113 c 1,0,1
EndSplineSet
EndChar
StartChar: onequarter
Encoding: 188 188 243
Width: 2100
VWidth: 3555
Flags: W
HStem: 0 21<509 741.039 1581 1812> 160 152<1344 1581 1812 1941> 661 160<122 319 543 753> 1487 20<225.111 543 1419.97 1653>
VStem: 319 224<821 1333> 1581 231<0 160 312 637>
Fore
1344 312 m 1,0,-1
 1581 312 l 1,1,-1
 1581 637 l 1,2,-1
 1344 312 l 1,0,-1
1812 832 m 1,3,-1
 1812 312 l 1,4,-1
 1941 312 l 1,5,-1
 1941 160 l 1,6,-1
 1812 160 l 1,7,-1
 1812 0 l 1,8,-1
 1581 0 l 1,9,-1
 1581 160 l 1,10,-1
 1194 160 l 1,11,-1
 1194 326 l 1,12,-1
 1564 832 l 1,13,-1
 1812 832 l 1,3,-1
509 -28 m 1,14,-1
 1432 1507 l 1,15,-1
 1653 1507 l 1,16,-1
 729 -28 l 1,17,-1
 509 -28 l 1,14,-1
319 821 m 1,18,-1
 319 1333 l 1,19,-1
 99 1283 l 1,20,-1
 99 1448 l 1,21,-1
 326 1493 l 1,22,-1
 543 1493 l 1,23,-1
 543 821 l 1,24,-1
 753 821 l 1,25,-1
 753 661 l 1,26,-1
 122 661 l 1,27,-1
 122 821 l 1,28,-1
 319 821 l 1,18,-1
EndSplineSet
Ligature2: "'frac' Diagonal Fractions in Latin lookup 0 subtable" one fraction four
Ligature2: "'frac' Diagonal Fractions in Latin lookup 0 subtable" one slash four
EndChar
StartChar: onehalf
Encoding: 189 189 244
Width: 2100
VWidth: 3555
Flags: W
HStem: -28 21G<509 741.039> 0 167<1635 2005> 661 160<122 319 543 753> 696 149<1498.05 1732.3> 1487 20<225.111 543 1419.97 1653>
VStem: 319 224<821 1333> 1764 234<496.516 668.317>
Fore
2005 167 m 1,0,-1
 2005 0 l 1,1,-1
 1333 0 l 1,2,-1
 1333 156 l 1,3,-1
 1646 420 l 2,4,5
 1710 469 1710 469 1737 506 c 128,-1,6
 1764 543 1764 543 1764 587 c 0,7,8
 1764 637 1764 637 1726.5 666.5 c 128,-1,9
 1689 696 1689 696 1625 696 c 0,10,11
 1507 696 1507 696 1344 608 c 1,12,-1
 1344 793 l 1,13,14
 1429 821 1429 821 1511.5 833 c 128,-1,15
 1594 845 1594 845 1663 845 c 0,16,17
 1825 845 1825 845 1911.5 783.5 c 128,-1,18
 1998 722 1998 722 1998 608 c 0,19,20
 1998 536 1998 536 1962.5 476.5 c 128,-1,21
 1927 417 1927 417 1831 335 c 2,22,-1
 1635 167 l 1,23,-1
 2005 167 l 1,0,-1
509 -28 m 1,24,-1
 1432 1507 l 1,25,-1
 1653 1507 l 1,26,-1
 729 -28 l 1,27,-1
 509 -28 l 1,24,-1
319 821 m 1,28,-1
 319 1333 l 1,29,-1
 99 1283 l 1,30,-1
 99 1448 l 1,31,-1
 326 1493 l 1,32,-1
 543 1493 l 1,33,-1
 543 821 l 1,34,-1
 753 821 l 1,35,-1
 753 661 l 1,36,-1
 122 661 l 1,37,-1
 122 821 l 1,38,-1
 319 821 l 1,28,-1
EndSplineSet
Ligature2: "'frac' Diagonal Fractions in Latin lookup 0 subtable" one fraction two
Ligature2: "'frac' Diagonal Fractions in Latin lookup 0 subtable" one slash two
EndChar
StartChar: threequarters
Encoding: 190 190 245
Width: 2100
VWidth: 3555
Flags: W
HStem: 0 21<509 741.039 1581 1812> 160 152<1344 1581 1812 1941> 648 145<287.985 499.908> 1038 139<260 495.938> 1361 146<299.352 512.258>
VStem: 529 242<1201.48 1339.92> 547 250<829.34 1004.54> 1581 231<0 160 312 637>
Fore
1812 832 m 1,0,-1
 1812 312 l 1,1,-1
 1941 312 l 1,2,-1
 1941 160 l 1,3,-1
 1812 160 l 1,4,-1
 1812 0 l 1,5,-1
 1581 0 l 1,6,-1
 1581 160 l 1,7,-1
 1194 160 l 1,8,-1
 1194 326 l 1,9,-1
 1564 832 l 1,10,-1
 1812 832 l 1,0,-1
1344 312 m 1,11,-1
 1581 312 l 1,12,-1
 1581 637 l 1,13,-1
 1344 312 l 1,11,-1
601 1113 m 1,14,15
 797 1073 797 1073 797 903 c 0,16,17
 797 648 797 648 398 648 c 0,18,19
 316 648 316 648 243 660 c 128,-1,20
 170 672 170 672 102 693 c 1,21,-1
 102 868 l 1,22,23
 170 832 170 832 232.5 812.5 c 128,-1,24
 295 793 295 793 356 793 c 0,25,26
 451 793 451 793 499 827 c 128,-1,27
 547 861 547 861 547 913 c 0,28,29
 547 977 547 977 497.5 1007.5 c 128,-1,30
 448 1038 448 1038 335 1038 c 2,31,-1
 260 1038 l 1,32,-1
 260 1177 l 1,33,-1
 345 1177 l 2,34,35
 529 1177 529 1177 529 1269 c 256,36,37
 529 1361 529 1361 373 1361 c 0,38,39
 319 1361 319 1361 259.5 1347 c 128,-1,40
 200 1333 200 1333 132 1309 c 1,41,-1
 132 1476 l 1,42,43
 196 1489 196 1489 270.5 1498 c 128,-1,44
 345 1507 345 1507 434 1507 c 0,45,46
 597 1507 597 1507 684 1452 c 128,-1,47
 771 1397 771 1397 771 1293 c 0,48,49
 771 1231 771 1231 726.5 1180.5 c 128,-1,50
 682 1130 682 1130 601 1113 c 1,14,15
509 -28 m 1,51,-1
 1432 1507 l 1,52,-1
 1653 1507 l 1,53,-1
 729 -28 l 1,54,-1
 509 -28 l 1,51,-1
EndSplineSet
Ligature2: "'frac' Diagonal Fractions in Latin lookup 0 subtable" three fraction four
Ligature2: "'frac' Diagonal Fractions in Latin lookup 0 subtable" three slash four
EndChar
StartChar: Gbreve
Encoding: 286 286 246
Width: 1670
VWidth: 3555
Flags: W
HStem: -28 273<733.846 1156.23> 566 259<924 1160> 1234 273<741.526 1246.74> 1621 143<672.927 949.646>
VStem: 99 399<492.917 980.399> 1160 362<281 566>
Fore
1522 115 m 1,0,1
 1234 -28 1234 -28 903 -28 c 0,2,3
 719 -28 719 -28 569.5 25 c 128,-1,4
 420 78 420 78 317 178 c 128,-1,5
 214 278 214 278 156.5 420 c 128,-1,6
 99 562 99 562 99 740 c 0,7,8
 99 1102 99 1102 317.5 1304.5 c 128,-1,9
 536 1507 536 1507 924 1507 c 0,10,11
 1231 1507 1231 1507 1465 1397 c 1,12,-1
 1465 1092 l 1,13,14
 1215 1234 1215 1234 970 1234 c 0,15,16
 743 1234 743 1234 620.5 1104 c 128,-1,17
 498 974 498 974 498 740 c 256,18,19
 498 505 498 505 617 375 c 128,-1,20
 736 245 736 245 953 245 c 0,21,22
 1078 245 1078 245 1160 281 c 1,23,-1
 1160 566 l 1,24,-1
 924 566 l 1,25,-1
 924 825 l 1,26,-1
 1522 825 l 1,27,-1
 1522 115 l 1,0,1
615 1887 m 1,28,29
 665 1764 665 1764 814 1764 c 0,30,31
 960 1764 960 1764 998 1887 c 1,32,-1
 1144 1887 l 1,33,34
 1130 1757 1130 1757 1043.5 1689 c 128,-1,35
 957 1621 957 1621 814 1621 c 0,36,37
 516 1621 516 1621 476 1887 c 1,38,-1
 615 1887 l 1,28,29
EndSplineSet
EndChar
StartChar: gbreve
Encoding: 287 287 247
Width: 1456
VWidth: 3555
Flags: W
HStem: -441 238<383.277 803.102> 0 260<553.954 759.535> 882 255<458.567 762.05> 1302 153<599.087 858.946>
VStem: 92 370<358.702 773.674> 917 145<1487.86 1594> 929 354<-83.98 189 363.865 776.224 946 1113>
Fore
929 189 m 1,0,1
 786 0 786 0 562 0 c 0,2,3
 359 0 359 0 224 160 c 0,4,5
 92 316 92 316 92 569 c 256,6,7
 92 821 92 821 224 977 c 0,8,9
 359 1137 359 1137 562 1137 c 0,10,11
 790 1137 790 1137 929 946 c 1,12,-1
 929 1113 l 1,13,-1
 1283 1113 l 1,14,-1
 1283 115 l 2,15,16
 1283 -156 1283 -156 1114.5 -298.5 c 128,-1,17
 946 -441 946 -441 621 -441 c 0,18,19
 417 -441 417 -441 227 -373 c 1,20,-1
 227 -95 l 1,21,22
 319 -153 319 -153 410.5 -178 c 128,-1,23
 502 -203 502 -203 590 -203 c 0,24,25
 764 -203 764 -203 846.5 -130 c 128,-1,26
 929 -57 929 -57 929 115 c 2,27,-1
 929 189 l 1,0,1
693 882 m 0,28,29
 583 882 583 882 522.5 800.5 c 128,-1,30
 462 719 462 719 462 569 c 0,31,32
 462 260 462 260 693 260 c 0,33,34
 807 260 807 260 868 340 c 128,-1,35
 929 420 929 420 929 569 c 256,36,37
 929 719 929 719 868 800.5 c 128,-1,38
 807 882 807 882 693 882 c 0,28,29
533 1594 m 1,39,40
 547 1529 547 1529 597.5 1492 c 128,-1,41
 648 1455 648 1455 733 1455 c 0,42,43
 811 1455 811 1455 860.5 1492 c 128,-1,44
 910 1529 910 1529 917 1594 c 1,45,-1
 1062 1594 l 1,46,47
 1055 1455 1055 1455 968.5 1378.5 c 128,-1,48
 882 1302 882 1302 733 1302 c 0,49,50
 573 1302 573 1302 485.5 1378.5 c 128,-1,51
 398 1455 398 1455 394 1594 c 1,52,-1
 533 1594 l 1,39,40
EndSplineSet
EndChar
StartChar: Idotaccent
Encoding: 304 304 248
Width: 756
VWidth: 3555
Flags: W
HStem: 0 21G<184 569> 1463 20G<184 569> 1639 248<231 502>
VStem: 184 385<0 1483> 231 271<1639 1887>
Fore
569 1483 m 1,0,-1
 569 0 l 1,1,-1
 184 0 l 1,2,-1
 184 1483 l 1,3,-1
 569 1483 l 1,0,-1
502 1887 m 1,4,-1
 502 1639 l 1,5,-1
 231 1639 l 1,6,-1
 231 1887 l 1,7,-1
 502 1887 l 1,4,-1
EndSplineSet
EndChar
StartChar: Scedilla
Encoding: 350 350 249
Width: 1463
VWidth: 3555
Flags: W
HStem: -398 150<587.226 754.918> -28 28<690.742 818> 1123 21G<1159.5 1224> 1234 273<554.013 910.162>
VStem: 764 168<-235.961 -92.3695>
Fore
1224 1123 m 1,0,1
 1095 1177 1095 1177 981.5 1205.5 c 128,-1,2
 868 1234 868 1234 760 1234 c 0,3,4
 618 1234 618 1234 556.5 1197 c 128,-1,5
 495 1160 495 1160 495 1082 c 0,6,7
 495 1017 495 1017 537.5 983.5 c 128,-1,8
 580 950 580 950 693 929 c 2,9,-1
 861 892 l 2,10,11
 1106 845 1106 845 1211 746.5 c 128,-1,12
 1316 648 1316 648 1316 455 c 0,13,14
 1316 -28 1316 -28 726 -28 c 0,15,16
 444 -28 444 -28 160 78 c 1,17,-1
 160 398 l 1,18,19
 448 245 448 245 689 245 c 0,20,21
 814 245 814 245 880 290 c 128,-1,22
 946 335 946 335 946 413 c 0,23,24
 946 476 946 476 903.5 515 c 128,-1,25
 861 554 861 554 722 583 c 2,26,-1
 573 615 l 2,27,28
 349 665 349 665 249 770 c 128,-1,29
 149 875 149 875 149 1049 c 0,30,31
 149 1272 149 1272 290 1389.5 c 128,-1,32
 431 1507 431 1507 696 1507 c 0,33,34
 821 1507 821 1507 951.5 1489.5 c 128,-1,35
 1082 1472 1082 1472 1224 1432 c 1,36,-1
 1224 1123 l 1,0,1
818 0 m 1,37,38
 932 -132 932 -132 932 -214 c 0,39,40
 932 -398 932 -398 682 -398 c 0,41,42
 637 -398 637 -398 583 -391 c 128,-1,43
 529 -384 529 -384 484 -373 c 1,44,-1
 479 -220 l 1,45,46
 587 -248 587 -248 648 -248 c 0,47,48
 764 -248 764 -248 764 -167 c 0,49,50
 764 -118 764 -118 682 0 c 1,51,-1
 818 0 l 1,37,38
EndSplineSet
EndChar
StartChar: scedilla
Encoding: 351 351 250
Width: 1208
VWidth: 3555
Flags: W
HStem: -398 150<462.437 631.56> -28 28<559.881 693> 899 238<441.231 817.926>
VStem: 641 166<-233.243 -92.3695>
Fore
1038 807 m 1,0,1
 924 858 924 858 819.5 878.5 c 128,-1,2
 715 899 715 899 615 899 c 0,3,4
 420 899 420 899 420 800 c 0,5,6
 420 757 420 757 457.5 734.5 c 128,-1,7
 495 712 495 712 590 696 c 2,8,-1
 651 689 l 2,9,10
 929 658 929 658 1017 580 c 0,11,12
 1113 502 1113 502 1113 326 c 0,13,14
 1113 -28 1113 -28 590 -28 c 0,15,16
 484 -28 484 -28 362.5 -12.5 c 128,-1,17
 241 3 241 3 125 43 c 1,18,-1
 125 309 l 1,19,20
 339 207 339 207 566 207 c 0,21,22
 779 207 779 207 779 319 c 0,23,24
 779 370 779 370 742 393.5 c 128,-1,25
 705 417 705 417 594 431 c 2,26,-1
 529 437 l 2,27,28
 295 465 295 465 198.5 546.5 c 128,-1,29
 102 628 102 628 102 793 c 0,30,31
 102 1137 102 1137 597 1137 c 0,32,33
 790 1137 790 1137 1038 1082 c 1,34,-1
 1038 807 l 1,0,1
693 0 m 1,35,36
 807 -132 807 -132 807 -214 c 0,37,38
 807 -398 807 -398 559 -398 c 0,39,40
 512 -398 512 -398 458 -391 c 128,-1,41
 404 -384 404 -384 359 -373 c 1,42,-1
 356 -220 l 1,43,44
 462 -248 462 -248 523 -248 c 0,45,46
 641 -248 641 -248 641 -167 c 0,47,48
 641 -118 641 -118 559 0 c 1,49,-1
 693 0 l 1,35,36
EndSplineSet
EndChar
StartChar: Cacute
Encoding: 262 262 251
Width: 1492
VWidth: 3555
Flags: W
HStem: -28 273<731.351 1163.4> 1234 273<731.351 1163.4>
VStem: 99 399<497.597 981.515>
Fore
1361 82 m 1,0,1
 1153 -28 1153 -28 903 -28 c 0,2,3
 719 -28 719 -28 569.5 25 c 128,-1,4
 420 78 420 78 317 178 c 128,-1,5
 214 278 214 278 156.5 420 c 128,-1,6
 99 562 99 562 99 740 c 256,7,8
 99 917 99 917 156.5 1059 c 128,-1,9
 214 1201 214 1201 317 1301 c 128,-1,10
 420 1401 420 1401 569.5 1454 c 128,-1,11
 719 1507 719 1507 903 1507 c 0,12,13
 1153 1507 1153 1507 1361 1397 c 1,14,-1
 1361 1092 l 1,15,16
 1255 1167 1255 1167 1152 1200.5 c 128,-1,17
 1049 1234 1049 1234 936 1234 c 0,18,19
 733 1234 733 1234 615.5 1100.5 c 128,-1,20
 498 967 498 967 498 740 c 256,21,22
 498 512 498 512 615.5 378.5 c 128,-1,23
 733 245 733 245 936 245 c 0,24,25
 1049 245 1049 245 1152 278.5 c 128,-1,26
 1255 312 1255 312 1361 387 c 1,27,-1
 1361 82 l 1,0,1
1194 1887 m 1,28,-1
 913 1621 l 1,29,-1
 719 1621 l 1,30,-1
 913 1887 l 1,31,-1
 1194 1887 l 1,28,-1
EndSplineSet
EndChar
StartChar: cacute
Encoding: 263 263 252
Width: 1204
VWidth: 3555
Flags: W
HStem: -28 252<591.704 885.366> 882 255<585.919 954.342>
VStem: 85 373<356.665 748.379>
Fore
1066 790 m 1,0,1
 998 838 998 838 926 860 c 128,-1,2
 854 882 854 882 771 882 c 0,3,4
 618 882 618 882 538 798.5 c 128,-1,5
 458 715 458 715 458 554 c 256,6,7
 458 394 458 394 538 309 c 128,-1,8
 618 224 618 224 771 224 c 0,9,10
 858 224 858 224 932.5 249 c 128,-1,11
 1007 274 1007 274 1066 319 c 1,12,-1
 1066 31 l 1,13,14
 984 0 984 0 899 -14 c 128,-1,15
 814 -28 814 -28 729 -28 c 0,16,17
 427 -28 427 -28 256 125 c 128,-1,18
 85 278 85 278 85 554 c 256,19,20
 85 832 85 832 256 984.5 c 128,-1,21
 427 1137 427 1137 729 1137 c 0,22,23
 906 1137 906 1137 1066 1082 c 1,24,-1
 1066 790 l 1,0,1
1134 1625 m 1,25,-1
 767 1252 l 1,26,-1
 573 1252 l 1,27,-1
 854 1625 l 1,28,-1
 1134 1625 l 1,25,-1
EndSplineSet
EndChar
StartChar: Ccaron
Encoding: 268 268 253
Width: 1492
VWidth: 3555
Flags: W
HStem: -28 273<731.351 1163.4> 1234 273<731.351 1163.4>
VStem: 99 399<497.597 981.515>
Fore
1361 82 m 1,0,1
 1153 -28 1153 -28 903 -28 c 0,2,3
 719 -28 719 -28 569.5 25 c 128,-1,4
 420 78 420 78 317 178 c 128,-1,5
 214 278 214 278 156.5 420 c 128,-1,6
 99 562 99 562 99 740 c 256,7,8
 99 917 99 917 156.5 1059 c 128,-1,9
 214 1201 214 1201 317 1301 c 128,-1,10
 420 1401 420 1401 569.5 1454 c 128,-1,11
 719 1507 719 1507 903 1507 c 0,12,13
 1153 1507 1153 1507 1361 1397 c 1,14,-1
 1361 1092 l 1,15,16
 1255 1167 1255 1167 1152 1200.5 c 128,-1,17
 1049 1234 1049 1234 936 1234 c 0,18,19
 733 1234 733 1234 615.5 1100.5 c 128,-1,20
 498 967 498 967 498 740 c 256,21,22
 498 512 498 512 615.5 378.5 c 128,-1,23
 733 245 733 245 936 245 c 0,24,25
 1049 245 1049 245 1152 278.5 c 128,-1,26
 1255 312 1255 312 1361 387 c 1,27,-1
 1361 82 l 1,0,1
491 1887 m 1,28,-1
 665 1887 l 1,29,-1
 868 1720 l 1,30,-1
 1062 1887 l 1,31,-1
 1238 1887 l 1,32,-1
 1017 1621 l 1,33,-1
 712 1621 l 1,34,-1
 491 1887 l 1,28,-1
EndSplineSet
EndChar
StartChar: ccaron
Encoding: 269 269 254
Width: 1204
VWidth: 3555
Flags: W
HStem: -28 252<591.704 885.366> 882 255<585.919 954.342>
VStem: 85 373<356.665 748.379>
Fore
1066 790 m 1,0,1
 998 838 998 838 926 860 c 128,-1,2
 854 882 854 882 771 882 c 0,3,4
 618 882 618 882 538 798.5 c 128,-1,5
 458 715 458 715 458 554 c 256,6,7
 458 394 458 394 538 309 c 128,-1,8
 618 224 618 224 771 224 c 0,9,10
 858 224 858 224 932.5 249 c 128,-1,11
 1007 274 1007 274 1066 319 c 1,12,-1
 1066 31 l 1,13,14
 984 0 984 0 899 -14 c 128,-1,15
 814 -28 814 -28 729 -28 c 0,16,17
 427 -28 427 -28 256 125 c 128,-1,18
 85 278 85 278 85 554 c 256,19,20
 85 832 85 832 256 984.5 c 128,-1,21
 427 1137 427 1137 729 1137 c 0,22,23
 906 1137 906 1137 1066 1082 c 1,24,-1
 1066 790 l 1,0,1
345 1625 m 1,25,-1
 519 1625 l 1,26,-1
 722 1401 l 1,27,-1
 917 1625 l 1,28,-1
 1092 1625 l 1,29,-1
 838 1252 l 1,30,-1
 597 1252 l 1,31,-1
 345 1625 l 1,25,-1
EndSplineSet
EndChar
StartChar: dcroat
Encoding: 273 273 255
Width: 1456
VWidth: 3555
Flags: W
HStem: -28 255<556.161 760.492> 882 255<556.802 759.996> 1231 198<601 929 1283 1436>
VStem: 92 370<330.529 776.861> 929 354<0 160 336.293 772.373 950 1231 1429 1547>
Fore
929 1231 m 1,0,-1
 601 1231 l 1,1,-1
 601 1429 l 1,2,-1
 929 1429 l 1,3,-1
 929 1547 l 1,4,-1
 1283 1547 l 1,5,-1
 1283 1429 l 1,6,-1
 1436 1429 l 1,7,-1
 1436 1231 l 1,8,-1
 1283 1231 l 1,9,-1
 1283 0 l 1,10,-1
 929 0 l 1,11,-1
 929 160 l 1,12,13
 786 -28 786 -28 562 -28 c 0,14,15
 458 -28 458 -28 373 14.5 c 128,-1,16
 288 57 288 57 225.5 135.5 c 128,-1,17
 163 214 163 214 127.5 320.5 c 128,-1,18
 92 427 92 427 92 554 c 256,19,20
 92 682 92 682 127.5 790.5 c 128,-1,21
 163 899 163 899 225.5 975.5 c 128,-1,22
 288 1052 288 1052 373 1094.5 c 128,-1,23
 458 1137 458 1137 562 1137 c 0,24,25
 786 1137 786 1137 929 950 c 1,26,-1
 929 1231 l 1,0,-1
693 227 m 0,27,28
 929 227 929 227 929 554 c 256,29,30
 929 882 929 882 693 882 c 0,31,32
 462 882 462 882 462 554 c 256,33,34
 462 227 462 227 693 227 c 0,27,28
EndSplineSet
EndChar
StartChar: sfthyphen
Encoding: 173 173 256
Width: 845
VWidth: 3555
Flags: W
HStem: 441 288<115 733>
Fore
733 729 m 1,0,-1
 733 441 l 1,1,-1
 115 441 l 1,2,-1
 115 729 l 1,3,-1
 733 729 l 1,0,-1
EndSplineSet
EndChar
StartChar: periodcentered
Encoding: 8729 8729 257
Width: 743
VWidth: 3555
Flags: W
HStem: 495 370<200 543>
VStem: 200 343<495 865>
Fore
543 865 m 1,0,-1
 543 495 l 1,1,-1
 200 495 l 1,2,-1
 200 865 l 1,3,-1
 543 865 l 1,0,-1
EndSplineSet
EndChar
StartChar: Euro
Encoding: 8364 8364 258
Width: 1414
VWidth: 3555
Flags: W
HStem: -28 259<732.54 1108.45> 472 196<50 149 569 868> 818 192<50 149 569 1017> 1245 262<728.01 1120.22>
Fore
1276 82 m 1,0,1
 1092 -28 1092 -28 871 -28 c 0,2,3
 604 -28 604 -28 426 99.5 c 128,-1,4
 248 227 248 227 177 472 c 1,5,-1
 -40 472 l 1,6,-1
 50 668 l 1,7,-1
 149 668 l 1,8,9
 146 682 146 682 146 740 c 0,10,11
 146 767 146 767 146 783.5 c 128,-1,12
 146 800 146 800 149 818 c 1,13,-1
 -40 818 l 1,14,-1
 50 1010 l 1,15,-1
 177 1010 l 1,16,17
 248 1255 248 1255 426 1381 c 128,-1,18
 604 1507 604 1507 871 1507 c 0,19,20
 1092 1507 1092 1507 1276 1397 c 1,21,-1
 1276 1092 l 1,22,23
 1123 1245 1123 1245 913 1245 c 0,24,25
 793 1245 793 1245 702 1186 c 128,-1,26
 611 1127 611 1127 569 1010 c 1,27,-1
 1106 1010 l 1,28,-1
 1017 818 l 1,29,-1
 529 818 l 1,30,-1
 529 729 l 1,31,-1
 529 668 l 1,32,-1
 953 668 l 1,33,-1
 868 472 l 1,34,-1
 569 472 l 1,35,36
 615 352 615 352 704 291.5 c 128,-1,37
 793 231 793 231 913 231 c 0,38,39
 1017 231 1017 231 1105.5 270 c 128,-1,40
 1194 309 1194 309 1276 387 c 1,41,-1
 1276 82 l 1,0,1
EndSplineSet
EndChar
StartChar: c6459
Encoding: 65539 -1 259
Width: 1015
VWidth: 3555
Flags: W
HStem: 1269 248<196 431 587 821>
VStem: 196 235<1269 1517> 587 234<1269 1517>
Fore
431 1517 m 1,0,-1
 431 1269 l 1,1,-1
 196 1269 l 1,2,-1
 196 1517 l 1,3,-1
 431 1517 l 1,0,-1
821 1517 m 1,4,-1
 821 1269 l 1,5,-1
 587 1269 l 1,6,-1
 587 1517 l 1,7,-1
 821 1517 l 1,4,-1
EndSplineSet
EndChar
StartChar: c6460
Encoding: 65540 -1 260
Width: 1015
VWidth: 3555
Flags: W
HStem: 1252 265<559 559 559 838>
VStem: 363 475<1252 1517>
Fore
838 1517 m 1,0,-1
 559 1252 l 1,1,-1
 363 1252 l 1,2,-1
 559 1517 l 1,3,-1
 838 1517 l 1,0,-1
EndSplineSet
EndChar
StartChar: c6461
Encoding: 65541 -1 261
Width: 1015
VWidth: 3555
Flags: W
HStem: 1252 149<604.49 707.176> 1368 149<312.087 434.694>
VStem: 163 139<1252 1362.47> 719 139<1409.07 1499.17 1499.83 1517>
Fore
455 1333 m 2,0,1
 451 1337 451 1337 449.5 1337 c 128,-1,2
 448 1337 448 1337 444 1340 c 0,3,4
 394 1368 394 1368 373 1368 c 0,5,6
 302 1368 302 1368 302 1255 c 2,7,-1
 302 1252 l 1,8,-1
 163 1252 l 1,9,-1
 163 1279 l 2,10,11
 163 1387 163 1387 217 1452 c 128,-1,12
 271 1517 271 1517 359 1517 c 0,13,14
 420 1517 420 1517 509 1469 c 2,15,-1
 566 1429 l 2,16,17
 611 1401 611 1401 641 1401 c 0,18,19
 719 1401 719 1401 719 1517 c 1,20,-1
 858 1517 l 1,21,22
 858 1510 858 1510 856 1499.5 c 128,-1,23
 854 1489 854 1489 854 1486 c 0,24,25
 854 1384 854 1384 800 1318 c 128,-1,26
 746 1252 746 1252 658 1252 c 0,27,28
 618 1252 618 1252 582.5 1262 c 128,-1,29
 547 1272 547 1272 512 1302 c 1,30,-1
 455 1333 l 2,0,1
EndSplineSet
EndChar
StartChar: c6462
Encoding: 65542 -1 262
Width: 1015
VWidth: 3555
Flags: W
HStem: 1252 265<177 654>
VStem: 177 477<1252 1517>
Fore
654 1252 m 1,0,-1
 462 1252 l 1,1,-1
 177 1517 l 1,2,-1
 458 1517 l 1,3,-1
 654 1252 l 1,0,-1
EndSplineSet
EndChar
StartChar: c6463
Encoding: 65543 -1 263
Width: 1015
VWidth: 3555
Flags: W
HStem: 1252 265<661 882>
VStem: 135 747<1252 1252>
Fore
661 1517 m 1,0,-1
 882 1252 l 1,1,-1
 708 1252 l 1,2,-1
 512 1411 l 1,3,-1
 309 1252 l 1,4,-1
 135 1252 l 1,5,-1
 356 1517 l 1,6,-1
 661 1517 l 1,0,-1
EndSplineSet
EndChar
StartChar: c6466
Encoding: 65544 -1 264
Width: 1015
VWidth: 3555
Flags: W
HStem: 1252 265<135 661>
VStem: 135 747<1517 1517>
Fore
135 1517 m 1,0,-1
 309 1517 l 1,1,-1
 512 1351 l 1,2,-1
 708 1517 l 1,3,-1
 882 1517 l 1,4,-1
 661 1252 l 1,5,-1
 356 1252 l 1,6,-1
 135 1517 l 1,0,-1
EndSplineSet
EndChar
StartChar: c6467
Encoding: 65545 -1 265
Width: 1015
VWidth: 3555
Flags: W
HStem: 1252 142<370.751 647.327>
VStem: 174 668<1387 1394 1517 1517>
Fore
312 1517 m 1,0,1
 363 1394 363 1394 512 1394 c 0,2,3
 658 1394 658 1394 696 1517 c 1,4,-1
 842 1517 l 1,5,6
 828 1387 828 1387 741 1319.5 c 128,-1,7
 654 1252 654 1252 512 1252 c 0,8,9
 214 1252 214 1252 174 1517 c 1,10,-1
 312 1517 l 1,0,1
EndSplineSet
EndChar
StartChar: c6468
Encoding: 65546 -1 266
Width: 1015
VWidth: 3555
Flags: W
HStem: 1269 248<373 644>
VStem: 373 271<1269 1517>
Fore
644 1517 m 1,0,-1
 644 1269 l 1,1,-1
 373 1269 l 1,2,-1
 373 1517 l 1,3,-1
 644 1517 l 1,0,-1
EndSplineSet
EndChar
StartChar: uni0E99
Encoding: 3737 3737 267
Width: 743
VWidth: 3555
Flags: W
HStem: 495 370<200 543>
VStem: 200 343<495 865>
Fore
543 865 m 1,0,-1
 543 495 l 1,1,-1
 200 495 l 1,2,-1
 200 865 l 1,3,-1
 543 865 l 1,0,-1
EndSplineSet
EndChar
StartChar: uni0E01
Encoding: 3585 3585 268
Width: 1524
VWidth: 3555
Flags: W
HStem: 0 21G<125 413 1028 1309> 1187 193<497.775 819.071>
VStem: 125 288<0 737.823> 1028 281<0 1020.76>
Fore
1028 0 m 1,0,-1
 1028 892 l 2,1,2
 1028 967 1028 967 999 1022.5 c 128,-1,3
 970 1078 970 1078 922.5 1115.5 c 128,-1,4
 875 1153 875 1153 810.5 1170 c 128,-1,5
 746 1187 746 1187 679 1187 c 0,6,7
 547 1187 547 1187 446 1155 c 128,-1,8
 345 1123 345 1123 255 1021 c 1,9,-1
 547 1021 l 1,10,-1
 547 858 l 1,11,12
 488 838 488 838 450.5 802.5 c 128,-1,13
 413 767 413 767 413 700 c 2,14,-1
 413 0 l 1,15,-1
 125 0 l 1,16,-1
 125 611 l 2,17,18
 125 686 125 686 151 739.5 c 128,-1,19
 177 793 177 793 227 845 c 1,20,-1
 0 845 l 1,21,-1
 0 1073 l 1,22,23
 40 1088 40 1088 71 1120 c 0,24,25
 156 1194 156 1194 218.5 1243.5 c 128,-1,26
 281 1293 281 1293 347 1323.5 c 128,-1,27
 413 1354 413 1354 491 1367 c 128,-1,28
 569 1380 569 1380 686 1380 c 0,29,30
 800 1380 800 1380 912 1344.5 c 128,-1,31
 1024 1309 1024 1309 1112.5 1241.5 c 128,-1,32
 1201 1174 1201 1174 1255 1074 c 128,-1,33
 1309 974 1309 974 1309 849 c 2,34,-1
 1309 0 l 1,35,-1
 1028 0 l 1,0,-1
EndSplineSet
EndChar
StartChar: uni0E02
Encoding: 3586 3586 269
Width: 1388
VWidth: 3555
Flags: W
HStem: 0 231<580 896> 722 156<176.832 298.685> 1191 189<352.708 525.075>
VStem: -28 191<903.565 1030.52> 292 288<231 601.559> 312 157<903.919 1030.29> 590 228<891.627 1125.72> 896 281<231 1364>
Fore
292 0 m 1,0,-1
 292 434 l 2,1,2
 292 526 292 526 338 604 c 128,-1,3
 384 682 384 682 441 753.5 c 128,-1,4
 498 825 498 825 544 889 c 128,-1,5
 590 953 590 953 590 1014 c 0,6,7
 590 1085 590 1085 534.5 1138 c 128,-1,8
 479 1191 479 1191 413 1191 c 0,9,10
 377 1191 377 1191 335 1174 c 1,11,12
 404 1149 404 1149 436.5 1079.5 c 128,-1,13
 469 1010 469 1010 469 943 c 0,14,15
 469 838 469 838 402 780 c 128,-1,16
 335 722 335 722 234 722 c 0,17,18
 109 722 109 722 40.5 791.5 c 128,-1,19
 -28 861 -28 861 -28 984 c 0,20,21
 -28 1073 -28 1073 6 1146 c 128,-1,22
 40 1219 40 1219 94.5 1271 c 128,-1,23
 149 1323 149 1323 225.5 1351.5 c 128,-1,24
 302 1380 302 1380 387 1380 c 256,25,26
 472 1380 472 1380 548.5 1356.5 c 128,-1,27
 625 1333 625 1333 685.5 1285.5 c 128,-1,28
 746 1238 746 1238 782 1168.5 c 128,-1,29
 818 1099 818 1099 818 1007 c 0,30,31
 818 932 818 932 780.5 861 c 128,-1,32
 743 790 743 790 698.5 727.5 c 128,-1,33
 654 665 654 665 617 613.5 c 128,-1,34
 580 562 580 562 580 519 c 2,35,-1
 580 231 l 1,36,-1
 896 231 l 1,37,-1
 896 1364 l 1,38,-1
 1177 1364 l 1,39,-1
 1177 0 l 1,40,-1
 292 0 l 1,0,-1
312 957 m 0,41,42
 312 1035 312 1035 238 1035 c 256,43,44
 163 1035 163 1035 163 960 c 0,45,46
 163 924 163 924 181.5 901 c 128,-1,47
 200 878 200 878 238 878 c 0,48,49
 274 878 274 878 293 901 c 128,-1,50
 312 924 312 924 312 957 c 0,41,42
EndSplineSet
EndChar
StartChar: uni0E03
Encoding: 3587 3587 270
Width: 1418
VWidth: 3555
Flags: W
HStem: 0 248<618 924> 672 128<225.704 349.534> 957 128<266.86 357.349> 1357 20G<213 280.5 626 705.5 924 1208>
VStem: -7 221<854.052 1094.06> 330 288<248 561.406> 363 139<814.844 951.741> 686 210<952.773 1162.64> 924 284<248 1364>
Fore
330 0 m 1,0,-1
 330 410 l 2,1,2
 330 495 330 495 385.5 580 c 128,-1,3
 441 665 441 665 508.5 748.5 c 128,-1,4
 576 832 576 832 631 915 c 128,-1,5
 686 998 686 998 686 1085 c 0,6,7
 686 1113 686 1113 679 1148.5 c 128,-1,8
 672 1184 672 1184 634 1184 c 0,9,10
 611 1184 611 1184 597 1172 c 128,-1,11
 583 1160 583 1160 566.5 1143.5 c 128,-1,12
 550 1127 550 1127 533 1114.5 c 128,-1,13
 516 1102 516 1102 488 1102 c 0,14,15
 448 1102 448 1102 410 1130 c 0,16,17
 377 1160 377 1160 343 1180.5 c 128,-1,18
 309 1201 309 1201 274 1219 c 1,19,-1
 252 1144 l 1,20,-1
 241 1078 l 1,21,22
 255 1082 255 1082 266.5 1083.5 c 128,-1,23
 278 1085 278 1085 292 1085 c 0,24,25
 377 1085 377 1085 439.5 1027.5 c 128,-1,26
 502 970 502 970 502 882 c 0,27,28
 502 779 502 779 434 725.5 c 128,-1,29
 366 672 366 672 271 672 c 0,30,31
 196 672 196 672 142.5 706 c 128,-1,32
 89 740 89 740 56.5 792.5 c 128,-1,33
 24 845 24 845 8.5 909.5 c 128,-1,34
 -7 974 -7 974 -7 1038 c 0,35,36
 -7 1092 -7 1092 8.5 1152 c 128,-1,37
 24 1212 24 1212 56.5 1262 c 128,-1,38
 89 1312 89 1312 135 1344.5 c 128,-1,39
 181 1377 181 1377 245 1377 c 0,40,41
 316 1377 316 1377 353.5 1346.5 c 128,-1,42
 391 1316 391 1316 448 1286 c 1,43,44
 476 1299 476 1299 487 1306 c 0,45,-1
 530 1338 l 0,46,47
 562 1361 562 1361 585 1372.5 c 128,-1,48
 608 1384 608 1384 644 1384 c 0,49,50
 767 1384 767 1384 831.5 1309 c 128,-1,51
 896 1234 896 1234 896 1116 c 0,52,53
 896 1045 896 1045 871 970 c 0,54,55
 858 924 858 924 836 891 c 0,56,-1
 750 756 l 0,57,58
 686 654 686 654 652 591.5 c 128,-1,59
 618 529 618 529 618 491 c 2,60,-1
 618 248 l 1,61,-1
 924 248 l 1,62,-1
 924 1364 l 1,63,-1
 1208 1364 l 1,64,-1
 1208 0 l 1,65,-1
 330 0 l 1,0,-1
363 878 m 0,66,67
 363 957 363 957 288 957 c 256,68,69
 214 957 214 957 214 882 c 0,70,71
 214 845 214 845 231 822.5 c 128,-1,72
 248 800 248 800 288 800 c 0,73,74
 323 800 323 800 343 822.5 c 128,-1,75
 363 845 363 845 363 878 c 0,66,67
EndSplineSet
EndChar
StartChar: uni0E04
Encoding: 3588 3588 271
Width: 1541
VWidth: 3555
Flags: W
HStem: 0 21G<192 502 1049 1333> 509 170<657.209 783.686> 871 167<641.24 798.333> 1187 190<534.655 793.926>
VStem: 28 264<616.501 965.846> 383.5 234.5<602.5 774> 821 174<699.546 849.556> 1049 284<0 1036.31>
Fore
1049 0 m 1,0,-1
 1049 910 l 2,1,2
 1049 984 1049 984 1018.5 1038 c 128,-1,3
 988 1092 988 1092 938.5 1124 c 128,-1,4
 889 1156 889 1156 826.5 1171.5 c 128,-1,5
 764 1187 764 1187 700 1187 c 0,6,7
 519 1187 519 1187 405.5 1100.5 c 128,-1,8
 292 1014 292 1014 292 818 c 0,9,10
 292 726 292 726 315.5 636.5 c 128,-1,11
 339 547 339 547 366 458 c 1,12,13
 380 526 380 526 383.5 602.5 c 128,-1,14
 387 679 387 679 400 752 c 128,-1,15
 413 825 413 825 442.5 889 c 128,-1,16
 472 953 472 953 540 991 c 0,17,18
 621 1038 621 1038 708 1038 c 0,19,20
 832 1038 832 1038 913.5 968.5 c 128,-1,21
 995 899 995 899 995 771 c 0,22,23
 995 719 995 719 972.5 672 c 128,-1,24
 950 625 950 625 910.5 587.5 c 128,-1,25
 871 550 871 550 822.5 529.5 c 128,-1,26
 774 509 774 509 722 509 c 0,27,28
 689 509 689 509 657 517.5 c 128,-1,29
 625 526 625 526 597 543 c 1,30,-1
 536 267 l 2,31,32
 529 231 529 231 515.5 193.5 c 128,-1,33
 502 156 502 156 502 122 c 2,34,-1
 502 0 l 1,35,-1
 200 0 l 1,36,37
 184 95 184 95 170 193.5 c 128,-1,38
 156 292 156 292 128 384 c 0,39,40
 99 488 99 488 63.5 590.5 c 128,-1,41
 28 693 28 693 28 804 c 0,42,43
 28 865 28 865 35.5 924.5 c 128,-1,44
 43 984 43 984 68 1042 c 0,45,46
 106 1134 106 1134 175.5 1196.5 c 128,-1,47
 245 1259 245 1259 331 1299.5 c 128,-1,48
 417 1340 417 1340 512.5 1358.5 c 128,-1,49
 608 1377 608 1377 696 1377 c 0,50,51
 804 1377 804 1377 916 1355 c 128,-1,52
 1028 1333 1028 1333 1120 1280 c 128,-1,53
 1212 1227 1212 1227 1272.5 1141 c 128,-1,54
 1333 1055 1333 1055 1333 929 c 2,55,-1
 1333 0 l 1,56,-1
 1049 0 l 1,0,-1
821 774 m 0,57,58
 821 818 821 818 792.5 844.5 c 128,-1,59
 764 871 764 871 722 871 c 256,60,61
 679 871 679 871 648.5 846 c 128,-1,62
 618 821 618 821 618 774 c 0,63,64
 618 733 618 733 646.5 706 c 128,-1,65
 675 679 675 679 719 679 c 256,66,67
 760 679 760 679 790.5 704 c 128,-1,68
 821 729 821 729 821 774 c 0,57,58
EndSplineSet
EndChar
